<svg width="256" height="61" viewBox="0 0 256 61" fill="none" xmlns="http://www.w3.org/2000/svg">
<g clip-path="url(#clip0_262_358)">
<path fill-rule="evenodd" clip-rule="evenodd" d="M18.0784 16.292C17.4788 17.75 16.959 19.2396 16.5214 20.7541C15.9286 22.8121 15.498 24.9134 15.2334 27.0387H16.1711C18.2117 27.0387 19.8371 26.5279 21.0473 25.5065C21.6311 25.0327 22.0984 24.4313 22.4132 23.7484C22.7279 23.0656 22.8816 22.3196 22.8626 21.568C22.8813 20.8126 22.7245 20.0631 22.4046 19.3785C22.0847 18.6939 21.6104 18.0928 21.019 17.6225C20.166 16.9392 19.1547 16.4816 18.0784 16.292ZM42.0701 24.682C41.0863 23.6912 40.092 22.8313 38.942 21.8015C38.4678 21.3805 38.0042 21.0761 37.5265 20.6869L35.9943 19.5652C33.986 18.1781 31.8703 16.9534 29.6673 15.9027C30.6996 17.4402 31.2378 19.2563 31.2101 21.108C31.2291 22.2936 30.944 23.4644 30.3821 24.5086C31.1886 24.6215 32.0023 24.6747 32.8167 24.6678L42.0701 24.682ZM41.4013 37.1697C42.9724 35.9807 44.7523 34.5405 45.0177 33.9849C45.3716 33.2347 44.7842 33.4223 45.2831 31.8264C45.8068 30.1385 46.6985 30.326 45.7396 28.9743C45.2843 28.9389 44.796 28.9212 44.2746 28.9212H41.4013V37.1697ZM32.9724 42.1697C33.3262 42.0175 33.6518 41.8654 33.9632 41.7167C34.2713 41.5928 34.5725 41.4522 34.8655 41.2957C35.1627 41.1152 35.4317 40.963 35.69 40.8215V28.9354H31.0898C29.271 28.9354 28.1622 28.3645 27.7635 27.2227C26.5554 27.965 25.2219 28.4806 23.8286 28.7443C26.2407 29.1361 28.5131 30.1359 30.4316 31.6495C31.4191 32.467 32.2233 33.4835 32.7919 34.6325C33.4057 35.8636 33.7163 37.2237 33.6978 38.5992C33.7091 39.8271 33.462 41.0436 32.9724 42.1697ZM14.9043 32.3749C14.9239 35.7225 15.33 39.0567 16.1145 42.3112C16.4684 43.7691 16.8505 43.2277 17.7918 44.123C19.9952 44.0121 21.7538 43.4837 23.0678 42.5377C23.7657 42.0737 24.3357 41.4415 24.7253 40.6995C25.1148 39.9575 25.3115 39.1293 25.2971 38.2914C25.311 37.4491 25.1144 36.6166 24.7251 35.8695C24.3358 35.1225 23.7662 34.4844 23.0678 34.0132C21.5816 32.9233 19.5245 32.3784 16.8965 32.3784L14.9043 32.3749Z" fill="#2E3191"/>
<path fill-rule="evenodd" clip-rule="evenodd" d="M54.5331 20.3402C54.5331 19.6714 52.732 16.2071 52.1516 15.326C51.6385 14.5439 51.1962 13.9105 50.6548 13.178C46.7571 8.08092 41.2519 4.44986 35.0319 2.87366C34.0942 2.64365 33.0468 2.47026 31.9533 2.31102C27.7459 1.70592 27.9724 1.91824 26.3553 3.53183C25.2937 4.59341 22.661 7.74276 22.1833 8.74772C21.8577 9.43067 22.1514 9.37405 22.1833 10.1809C22.2045 10.6019 22.1833 10.9133 22.2222 11.1504C24.0589 11.5418 25.7911 12.3198 27.3036 13.4328C30.8788 14.8429 34.2652 16.6912 37.3851 18.9353C37.7779 19.2326 38.0928 19.413 38.475 19.7244L39.9859 20.9736C41.2103 22.1094 42.8168 23.3798 43.935 24.682H46.0015C48.3276 24.682 49.4906 25.615 49.4906 27.481C49.4901 27.7211 49.4531 27.9598 49.3809 28.1888C50.1382 28.1215 50.1842 28.1888 50.5805 27.6332C51.3059 26.5928 54.5508 21.1646 54.5508 20.3437L54.5331 20.3402Z" fill="#2E3191"/>
<path fill-rule="evenodd" clip-rule="evenodd" d="M13.8925 27.0139C14.0398 25.6657 14.2762 24.3288 14.6002 23.0118C15.0779 21.1186 15.6158 18.8539 16.3448 17.028C16.4969 16.6459 16.6208 16.3522 16.6986 16.1186C16.4332 16.1186 16.1572 16.0938 15.8777 16.0938C13.9963 16.0534 12.1187 16.2798 10.3008 16.7662V26.9821L13.8925 27.0139ZM14.3455 43.9992C14.671 43.341 15.1452 43.8116 14.5932 41.6212C13.905 38.5869 13.5737 35.4826 13.6059 32.3714H10.3115V41.0834C10.3115 42.6828 11.6561 43.6559 14.3455 44.0027V43.9992ZM0 29.0592C0 32.3749 0 33.9071 0.90588 37.198C1.23559 38.4243 1.64215 39.6286 2.12316 40.8038C2.12316 40.6729 2.12316 40.5455 2.12316 40.411V19.3387C0.888187 22.2864 0 25.9064 0 29.0592Z" fill="#2E3191"/>
<path fill-rule="evenodd" clip-rule="evenodd" d="M18.9883 50.2555C18.9883 50.9349 22.7852 57.1345 23.3337 57.5025C24.1511 58.051 28.2311 57.9837 29.4767 57.9837C30.8691 57.9526 32.2554 57.7891 33.6168 57.4954C38.0719 56.6072 41.4548 54.9724 45.0323 52.4635C45.4857 52.1508 45.9194 51.8104 46.331 51.4444C46.7768 51.0269 47.1059 50.7792 47.5447 50.3404C48.3555 49.5667 49.1233 48.7492 49.8448 47.8917C50.2164 47.421 50.5242 47.0601 50.871 46.6001C53.0968 43.6418 52.8703 43.7692 51.9326 41.0233C51.3895 39.3513 50.7406 37.7155 49.9899 36.1259C48.7655 33.6488 48.7938 34.1761 47.481 34.6113C46.1682 35.0466 46.6565 34.3601 45.4923 35.4924C44.2201 36.7261 42.8523 37.8573 41.4017 38.8753V47.7218C41.4017 49.0311 41.8016 49.891 42.6013 50.3015C42.1942 50.794 41.6826 51.1899 41.1037 51.4604C40.5247 51.7309 39.8928 51.8693 39.2538 51.8655C36.8782 51.8655 35.6904 50.423 35.6904 47.5378V42.3396C35.2764 42.559 34.8589 42.7713 34.4449 42.9801C33.5956 43.4083 32.6756 43.8081 31.7555 44.1797C30.9749 45.1243 30.0577 45.9473 29.0343 46.6213C26.4394 48.3694 23.1626 49.3861 19.2041 49.6716C19.0821 49.8478 19.0077 50.0526 18.9883 50.2661V50.2555Z" fill="#2E3191"/>
<path fill-rule="evenodd" clip-rule="evenodd" d="M50.0078 32.9234C50.0078 33.3304 50.6554 34.4344 50.8571 34.8378L52.5485 38.663C52.8033 39.3035 52.9024 40.2094 53.7623 40.2094C54.6221 40.2094 54.7566 39.2646 54.9901 38.5675C56.2747 34.7246 56.7913 28.9779 55.8571 24.8696C55.6129 23.808 54.5372 23.5815 53.9427 24.7174C53.0227 26.4867 52.0637 27.6509 51.2817 28.8965C50.9597 29.4096 51.1897 29.7776 51.0729 30.4535C50.8677 31.6071 50.0113 32.6014 50.0113 32.9305L50.0078 32.9234Z" fill="#2E3191"/>
<path fill-rule="evenodd" clip-rule="evenodd" d="M6.61352 48.0544C7.10893 48.9426 8.35451 49.9405 8.85699 50.4501C9.0809 50.6676 9.3172 50.872 9.56471 51.0623C9.86549 51.317 10.007 51.4621 10.3361 51.7275C11.8935 52.9862 13.583 54.0719 15.3751 54.9653C16.0403 55.2979 18.5846 56.5506 19.3135 56.5506C19.535 56.5152 19.7396 56.4105 19.8979 56.2515C20.0562 56.0926 20.1601 55.8876 20.1946 55.666C20.1946 55.1776 18.9844 53.3623 18.6837 52.7608C18.3829 52.1592 17.5018 50.2625 17.0134 49.9051C16.9299 49.8462 16.8424 49.793 16.7516 49.7459C12.3449 49.7459 8.96315 49.1821 6.60645 48.0544H6.61352Z" fill="#2E3191"/>
<path fill-rule="evenodd" clip-rule="evenodd" d="M9.38477 9.40948C9.38477 10.8603 10.4463 10.5206 12.8101 10.5135L13.4011 10.5631C14.2197 10.5182 15.0453 10.4946 15.8781 10.4923C16.5044 10.4923 17.1131 10.4923 17.7005 10.5383C18.1888 10.05 18.5179 9.12285 20.4216 8.50713C20.9595 8.33728 21.3063 7.62249 21.8123 6.91831L23.755 4.44129C24.0805 4.02728 24.3035 3.9742 24.3035 3.33371C24.3035 2.36414 23.3764 2.44552 22.5837 2.62599C20.3404 3.05602 18.1609 3.76945 16.0975 4.74915C14.8528 5.34472 13.6483 6.02085 12.4916 6.77322C11.9998 7.09877 9.40246 8.9353 9.40246 9.42363L9.38477 9.40948Z" fill="#2E3191"/>
<path fill-rule="evenodd" clip-rule="evenodd" d="M238.227 34.5456H221.858C224.193 33.5666 227.186 33.0511 230.835 32.9992V28.5265C230.835 26.4245 229.988 25.3736 228.295 25.3736C227.661 25.3515 227.043 25.5789 226.575 26.007C226.347 26.2245 226.168 26.4883 226.05 26.7806C225.932 27.073 225.878 27.3871 225.892 27.702C225.897 28.4231 226.165 29.1176 226.646 29.6553C226.134 30.2069 225.51 30.6433 224.816 30.9356C224.123 31.2278 223.375 31.3692 222.622 31.3503C221.004 31.3503 219.811 30.9893 219.045 30.2674C218.661 29.9055 218.36 29.4655 218.161 28.9772C217.962 28.4888 217.87 27.9635 217.891 27.4366C217.891 25.6767 218.966 24.233 221.115 23.1053C223.449 21.9335 226.034 21.3516 228.645 21.4103C231.518 21.4103 233.834 22.085 235.591 23.4344C237.349 24.7838 238.227 26.9341 238.227 29.8853V34.5456Z" fill="#2E3191"/>
<path fill-rule="evenodd" clip-rule="evenodd" d="M213.85 29.8924V34.5456H206.462V30.9752C206.517 30.0177 206.224 29.0724 205.637 28.3141C205.346 27.9877 204.986 27.7312 204.582 27.5639C204.178 27.3966 203.742 27.3228 203.305 27.3481C202.303 27.3481 201.331 27.7951 200.389 28.6892C199.448 29.5833 198.773 30.9091 198.365 32.6666V34.5456H190.973V30.9752C191.029 30.0177 190.736 29.0724 190.149 28.3141C189.86 27.9892 189.501 27.7336 189.1 27.5663C188.699 27.3991 188.265 27.3245 187.831 27.3481C186.826 27.3481 185.853 27.8117 184.912 28.7388C183.97 29.6659 183.292 31.0389 182.877 32.8577V34.5456H175.488V26.7359C175.488 25.1058 174.954 24.0077 173.885 23.4415C175.079 22.0921 176.476 21.4174 178.075 21.4174C179.674 21.4174 180.854 21.8173 181.614 22.617C182.366 23.4167 182.79 24.6493 182.884 26.3148C183.668 24.7867 184.885 23.5238 186.384 22.6842C187.864 21.8547 189.535 21.4242 191.231 21.4351C192.818 21.3854 194.373 21.8855 195.633 22.8506C196.827 23.7942 197.627 25.1601 198.033 26.9482C198.773 25.2455 200.023 23.814 201.61 22.8506C203.235 21.8931 205.093 21.4033 206.978 21.4351C207.913 21.4074 208.842 21.5873 209.698 21.9618C210.555 22.3362 211.318 22.896 211.932 23.6007C213.218 25.0445 213.861 27.1476 213.861 29.91L213.85 29.8924Z" fill="#2E3191"/>
<path fill-rule="evenodd" clip-rule="evenodd" d="M163.768 30.9752C164.244 30.9515 164.695 30.7596 165.042 30.4338C165.321 30.1318 165.461 29.5585 165.463 28.714C165.469 27.8809 165.214 27.0668 164.734 26.3856C164.521 26.0513 164.225 25.7778 163.874 25.5918C163.524 25.4058 163.132 25.3136 162.735 25.324C161.886 25.324 161.085 25.8584 160.332 26.927C159.58 27.9957 159.079 29.5479 158.829 31.5838L163.768 30.9752ZM151.359 34.5456C151.42 31.2146 152.63 28.0069 154.784 25.4656C155.831 24.1718 157.16 23.1344 158.669 22.4328C160.179 21.7312 161.828 21.3839 163.492 21.4174C166.189 21.4174 168.417 22.2879 170.177 24.0289C171.937 25.7699 172.815 27.755 172.813 29.9844C172.813 31.7112 172.405 32.9509 171.589 33.7034C171.128 34.1046 170.582 34.3961 169.993 34.5562H170.025L151.359 34.5456Z" fill="#2E3191"/>
<path fill-rule="evenodd" clip-rule="evenodd" d="M148.107 29.8924V34.5456H140.715V30.9752C140.715 29.8428 140.442 28.9582 139.894 28.3141C139.603 27.9879 139.242 27.7316 138.838 27.5643C138.434 27.397 137.998 27.3231 137.562 27.3481C136.557 27.3481 135.584 27.8117 134.642 28.7388C133.701 29.6659 133.03 31.0389 132.629 32.8577V34.5456H125.23V26.7359C125.23 25.1058 124.696 24.0077 123.63 23.4415C124.824 22.0921 126.22 21.4174 127.82 21.4174C129.419 21.4174 130.599 21.8173 131.358 22.617C132.111 23.4167 132.534 24.6493 132.629 26.3148C133.413 24.788 134.629 23.5254 136.125 22.6842C137.715 21.8277 139.5 21.3974 141.305 21.4351C142.227 21.4143 143.142 21.5977 143.984 21.9721C144.827 22.3465 145.576 22.9027 146.178 23.6007C147.461 25.0445 148.104 27.1476 148.107 29.91V29.8924Z" fill="#2E3191"/>
<path fill-rule="evenodd" clip-rule="evenodd" d="M121.705 34.5456H114.2C114.2 34.4394 114.2 34.3297 114.175 34.22C113.739 28.07 112.013 24.9949 108.998 24.9949C108.376 24.9711 107.76 25.1249 107.223 25.4382C106.685 25.7515 106.248 26.2115 105.962 26.7642C105.287 27.9438 104.95 29.7131 104.95 32.0721C104.95 32.761 104.981 33.4817 105.042 34.2342C105.042 34.3439 105.042 34.4536 105.067 34.5598H97.5154C97.5154 30.4479 98.6265 26.9624 100.852 24.7508C103.078 22.5392 106.001 21.4316 109.61 21.4316C113.22 21.4316 116.139 22.5392 118.365 24.7508C120.591 26.9624 121.705 30.4338 121.705 34.5456Z" fill="#2E3191"/>
<path fill-rule="evenodd" clip-rule="evenodd" d="M93.446 33.3496C92.9356 32.3085 92.2123 31.3863 91.3228 30.6425C89.5824 29.2641 87.5193 28.3519 85.3285 27.9921C87.4304 27.5581 89.0699 26.7324 90.2471 25.5151C90.8255 24.9305 91.2803 24.2353 91.5843 23.4711C91.8882 22.7069 92.0352 21.8893 92.0164 21.0671C92.0164 18.2763 90.8628 15.9703 88.5556 14.1492C86.2485 12.328 82.7571 11.4174 78.0814 11.4174C73.3894 11.4269 68.7358 12.263 64.334 13.8873C65.1785 15.173 65.602 16.8986 65.6043 19.0643V34.5456H73.0354V31.3043H79.0191C81.4042 31.3043 83.2725 31.7985 84.6243 32.7869C85.2716 33.245 85.7995 33.8518 86.1636 34.5562H93.9272C93.8046 34.1399 93.6435 33.736 93.446 33.3496ZM82.7877 25.0657C81.6861 25.9928 80.2105 26.4564 78.361 26.4564H78.1734L73.0425 26.4068V17.1357C74.6915 16.6923 76.3954 16.4862 78.1026 16.5235C80.0937 16.5235 81.6471 16.9859 82.763 17.9107C83.5791 18.5601 84.1383 19.4779 84.3412 20.5009C84.4033 20.8263 84.4341 21.1569 84.4332 21.4882C84.4503 22.1706 84.3109 22.8478 84.0257 23.4679C83.7405 24.0881 83.317 24.6346 82.7877 25.0657Z" fill="#2E3191"/>
<path fill-rule="evenodd" clip-rule="evenodd" d="M184.533 46.3503C184.007 46.9886 183.345 47.5016 182.596 47.8523C181.847 48.203 181.029 48.3826 180.202 48.378C177.135 48.378 175.601 46.5096 175.601 42.7728V35.8513H182.994V43.0099C182.984 44.7061 183.497 45.8196 184.533 46.3503Z" fill="url(#paint0_linear_262_358)"/>
<path fill-rule="evenodd" clip-rule="evenodd" d="M199.972 46.3503C199.461 46.995 198.809 47.5134 198.066 47.865C197.323 48.2167 196.509 48.3922 195.687 48.378C192.62 48.378 191.086 46.5096 191.086 42.7728V35.8513H198.475V43.0099C198.468 44.7061 198.967 45.8196 199.972 46.3503Z" fill="url(#paint1_linear_262_358)"/>
<path fill-rule="evenodd" clip-rule="evenodd" d="M215.457 46.3503C214.947 46.995 214.296 47.5133 213.553 47.865C212.81 48.2167 211.997 48.3922 211.175 48.378C208.108 48.378 206.575 46.5096 206.575 42.7728V35.8513H213.967V43.0099C213.957 44.7061 214.454 45.8196 215.457 46.3503Z" fill="url(#paint2_linear_262_358)"/>
<path fill-rule="evenodd" clip-rule="evenodd" d="M172.3 42.2562C172.3 43.7636 171.406 45.1602 169.618 46.4459C167.777 47.7506 165.564 48.428 163.308 48.378C159.576 48.378 156.666 47.3577 154.579 45.3171C152.491 43.2765 151.447 40.3501 151.447 36.5378C151.447 36.3078 151.447 36.0778 151.447 35.8513H158.814V36.4847C159.034 41.0024 160.995 43.2623 164.699 43.2647C165.942 43.2844 167.173 43.0288 168.305 42.516C169.437 42.0033 170.441 41.2463 171.245 40.2994C171.946 40.599 172.298 41.2512 172.3 42.2562Z" fill="url(#paint3_linear_262_358)"/>
<path fill-rule="evenodd" clip-rule="evenodd" d="M134.274 46.453C133.748 47.0907 133.086 47.6032 132.337 47.9534C131.588 48.3035 130.77 48.4823 129.943 48.477C126.876 48.477 125.343 46.6098 125.343 42.8754V35.9504H132.731V43.1125C132.724 44.8087 133.239 45.9222 134.274 46.453Z" fill="url(#paint4_linear_262_358)"/>
<path fill-rule="evenodd" clip-rule="evenodd" d="M149.717 46.453C149.206 47.097 148.554 47.6147 147.811 47.9657C147.067 48.3168 146.253 48.4917 145.431 48.477C142.365 48.477 140.831 46.6098 140.831 42.8754V35.9504H148.199V43.1125C148.199 44.8087 148.705 45.9222 149.717 46.453Z" fill="url(#paint5_linear_262_358)"/>
<path fill-rule="evenodd" clip-rule="evenodd" d="M121.868 36.0247C121.811 39.9785 120.691 43.0453 118.506 45.2251C116.263 47.4544 113.345 48.569 109.752 48.569C106.159 48.569 103.248 47.4544 101.019 45.2251C98.8506 43.0595 97.7371 39.9986 97.6781 36.0424H105.229C105.647 41.9991 107.366 44.9774 110.385 44.9774C113.084 44.9774 114.433 42.6089 114.433 37.8719C114.433 37.3022 114.412 36.69 114.366 36.0283L121.868 36.0247Z" fill="url(#paint6_linear_262_358)"/>
<path fill-rule="evenodd" clip-rule="evenodd" d="M94.2174 38.0523C94.2174 41.0035 92.802 43.4286 89.9711 45.3277C86.6775 47.4972 82.8068 48.6243 78.8634 48.562C74.2633 48.562 70.9158 47.5004 68.7643 46.1734C66.6128 44.8464 65.5406 42.6808 65.5406 39.7013V35.6461H72.9717V40.31C72.9717 42.1642 74.9639 43.0901 78.9484 43.0878C81.3334 43.0878 83.2018 42.6018 84.5535 41.6299C85.187 41.2074 85.7041 40.6324 86.0572 39.9578C86.4103 39.2832 86.588 38.5306 86.574 37.7693C86.5844 37.0334 86.4195 36.3056 86.0928 35.6461H93.8777C94.108 36.4272 94.2225 37.238 94.2174 38.0523Z" fill="url(#paint7_linear_262_358)"/>
<path fill-rule="evenodd" clip-rule="evenodd" d="M238.327 41.8811V35.8655H221.961C221.475 36.0638 221.002 36.2931 220.545 36.552C218.052 37.9816 216.804 39.8877 216.801 42.2703C216.801 44.2166 217.445 45.7228 218.733 46.7891C220.021 47.8554 221.752 48.385 223.924 48.378C225.292 48.4097 226.65 48.149 227.909 47.6132C229.167 47.0773 230.296 46.2788 231.221 45.2711C231.785 47.3423 233.227 48.378 235.549 48.378C236.61 48.3803 237.655 48.1124 238.585 47.5995C239.486 47.1318 240.268 46.4635 240.871 45.6462C239.177 45.113 238.329 43.858 238.327 41.8811ZM230.938 41.9271C229.9 43.1208 228.738 43.7176 227.452 43.7176C225.697 43.7176 224.819 42.9486 224.816 41.4105C224.816 38.9311 226.857 37.5817 230.938 37.3623V41.9271Z" fill="url(#paint8_linear_262_358)"/>
</g>
<defs>
<linearGradient id="paint0_linear_262_358" x1="152.463" y1="-13.5916" x2="152.463" y2="25.6587" gradientUnits="userSpaceOnUse">
<stop stop-color="white"/>
<stop offset="1" stop-color="#25B0E5"/>
</linearGradient>
<linearGradient id="paint1_linear_262_358" x1="152.497" y1="-13.5902" x2="152.497" y2="25.6579" gradientUnits="userSpaceOnUse">
<stop stop-color="white"/>
<stop offset="1" stop-color="#25B0E5"/>
</linearGradient>
<linearGradient id="paint2_linear_262_358" x1="152.462" y1="-13.5902" x2="152.462" y2="25.6579" gradientUnits="userSpaceOnUse">
<stop stop-color="white"/>
<stop offset="1" stop-color="#25B0E5"/>
</linearGradient>
<linearGradient id="paint3_linear_262_358" x1="152.617" y1="-13.5867" x2="152.617" y2="25.6559" gradientUnits="userSpaceOnUse">
<stop stop-color="white"/>
<stop offset="1" stop-color="#25B0E5"/>
</linearGradient>
<linearGradient id="paint4_linear_262_358" x1="152.532" y1="-13.5916" x2="152.532" y2="25.6692" gradientUnits="userSpaceOnUse">
<stop stop-color="white"/>
<stop offset="1" stop-color="#25B0E5"/>
</linearGradient>
<linearGradient id="paint5_linear_262_358" x1="152.427" y1="-13.5901" x2="152.427" y2="25.6684" gradientUnits="userSpaceOnUse">
<stop stop-color="white"/>
<stop offset="1" stop-color="#25B0E5"/>
</linearGradient>
<linearGradient id="paint6_linear_262_358" x1="152.602" y1="-14.6779" x2="152.602" y2="24.5174" gradientUnits="userSpaceOnUse">
<stop stop-color="white"/>
<stop offset="1" stop-color="#25B0E5"/>
</linearGradient>
<linearGradient id="paint7_linear_262_358" x1="152.645" y1="-11.7344" x2="152.645" y2="24.6062" gradientUnits="userSpaceOnUse">
<stop stop-color="white"/>
<stop offset="1" stop-color="#25B0E5"/>
</linearGradient>
<linearGradient id="paint8_linear_262_358" x1="228.844" y1="27.4189" x2="228.844" y2="40.6532" gradientUnits="userSpaceOnUse">
<stop stop-color="white"/>
<stop offset="1" stop-color="#25B0E5"/>
</linearGradient>
<clipPath id="clip0_262_358">
<rect width="256" height="61" fill="white"/>
</clipPath>
</defs>
</svg>
