<svg width="288" height="252" viewBox="0 0 288 252" fill="none" xmlns="http://www.w3.org/2000/svg">
<path d="M53.295 229.731C23.912 229.731 0 215.783 0 198.633C0 181.483 23.9018 167.535 53.295 167.535C82.6881 167.535 106.59 181.483 106.59 198.633C106.59 215.783 82.6881 229.731 53.295 229.731ZM53.295 168.555C24.4755 168.555 1.02451 182.044 1.02451 198.633C1.02451 215.222 24.4755 228.712 53.295 228.712C82.1144 228.712 105.565 215.222 105.565 198.633C105.565 182.044 82.1144 168.555 53.295 168.555Z" fill="#0FBAB8"/>
<path d="M102.41 187.397L101.897 186.51L129.313 170.675L105.668 156.992C105.514 156.9 105.412 156.737 105.412 156.554C105.412 156.37 105.504 156.207 105.668 156.115L194.257 104.89L194.769 105.777L106.938 156.564L130.584 170.247C130.737 170.339 130.84 170.502 130.84 170.686C130.84 170.869 130.748 171.032 130.584 171.124L102.41 187.397Z" fill="#0FBAB8"/>
<path opacity="0.2" d="M257.11 163.946C257.11 165.73 254.149 167.168 250.502 167.168C246.854 167.168 243.894 165.72 243.894 163.946C243.894 162.172 246.854 160.724 250.502 160.724C254.149 160.724 257.11 162.172 257.11 163.946Z" fill="#92B4D1"/>
<path d="M248.913 169.911C243.699 169.911 239.601 167.443 239.601 164.303C239.601 161.162 243.688 158.695 248.913 158.695C254.138 158.695 258.226 161.162 258.226 164.303C258.226 167.443 254.138 169.911 248.913 169.911ZM248.913 159.714C244.426 159.714 240.625 161.815 240.625 164.303C240.625 166.791 244.416 168.891 248.913 168.891C253.411 168.891 257.202 166.791 257.202 164.303C257.202 161.815 253.411 159.714 248.913 159.714Z" fill="#0FBAB8"/>
<path d="M253.463 150.517H244.365V164.15C244.365 165.618 246.404 166.801 248.914 166.801C251.424 166.801 253.463 165.618 253.463 164.16V150.517Z" fill="#A8CFF0"/>
<path d="M253.463 150.63C253.463 152.088 251.424 153.27 248.914 153.27C246.404 153.27 244.365 152.088 244.365 150.63C244.365 149.172 246.404 147.989 248.914 147.989C251.424 147.989 253.463 149.172 253.463 150.63Z" fill="#D1EBFF"/>
<path d="M252.161 55.3059H245.666V150.273V150.303C245.666 151.343 247.121 152.19 248.914 152.19C250.707 152.19 252.161 151.343 252.161 150.303V150.273V55.3059Z" fill="#A8CFF0"/>
<path opacity="0.3" d="M246.731 150.63V57.8549H249.395V151.343C249.18 151.466 247.141 151.445 246.731 150.63Z" fill="#D1EBFF"/>
<path d="M252.161 55.3262C252.161 56.3663 250.707 57.2125 248.914 57.2125C247.121 57.2125 245.666 56.3663 245.666 55.3262C245.666 54.2862 247.121 53.44 248.914 53.44C250.707 53.44 252.161 54.2862 252.161 55.3262Z" fill="#D1EBFF"/>
<path opacity="0.3" d="M248.36 154.198C247.162 154.117 246.106 153.76 245.379 153.24V164.71C245.563 164.976 246.496 165.72 248.012 165.72C248.135 165.72 248.248 165.72 248.36 165.699V154.198Z" fill="#D1EBFF"/>
<path d="M260.482 51.156C260.482 52.5732 259.99 53.5725 259.191 54.0517C259.171 54.0619 257.613 55.0305 257.593 55.0509C256.763 55.5097 257.296 54.4697 256.036 53.7458C253.505 52.2878 251.446 48.7599 251.446 45.8642C251.446 44.4367 250.114 44.4163 250.934 43.9473C250.954 43.9371 252.665 42.9379 252.685 42.9277C253.515 42.4791 254.642 42.5606 255.892 43.2846C258.423 44.7426 260.482 48.2705 260.482 51.1662V51.156Z" fill="#A8CFF0"/>
<path d="M258.77 52.1858C258.77 55.0815 256.711 56.2439 254.181 54.7858C251.65 53.3278 249.591 49.7999 249.591 46.9042C249.591 44.0085 251.65 42.8461 254.181 44.3042C256.711 45.7622 258.77 49.2901 258.77 52.1858Z" fill="#D1EBFF"/>
<path d="M254.396 44.2022C253.177 43.5089 252.08 43.4069 251.261 43.8148C252.029 43.6006 252.972 43.7638 254.006 44.3552C256.537 45.8132 258.596 49.3411 258.596 52.2368C258.596 53.7458 258.043 54.7858 257.152 55.2242C258.268 54.9082 258.996 53.807 258.996 52.0838C258.996 49.1881 256.937 45.6603 254.406 44.2022H254.396Z" fill="white"/>
<path d="M258.153 52.2063C258.153 53.5216 257.702 54.4494 256.954 54.8981C256.934 54.9083 246.74 60.9852 246.719 60.9954C245.951 61.4236 246.443 60.455 245.275 59.782C242.918 58.4259 241.013 55.1632 241.013 52.4714C241.013 51.1459 239.783 51.1357 240.531 50.6871C240.552 50.6769 250.899 44.5796 250.92 44.5592C251.688 44.1412 252.733 44.2227 253.891 44.8855C256.237 46.2314 258.153 49.5043 258.153 52.1961V52.2063Z" fill="#A8CFF0"/>
<path d="M247.806 58.3444C247.806 61.026 245.901 62.1068 243.544 60.7609C241.198 59.415 239.282 56.1421 239.282 53.4503C239.282 50.7585 241.188 49.6879 243.544 51.0338C245.89 52.3797 247.806 55.6526 247.806 58.3444Z" fill="#D1EBFF"/>
<path d="M243.759 50.9318C242.632 50.2793 241.608 50.1977 240.85 50.575C241.557 50.3812 242.438 50.524 243.39 51.0746C245.737 52.4205 247.652 55.6934 247.652 58.3852C247.652 59.7821 247.14 60.7405 246.31 61.1586C247.345 60.8731 248.021 59.8433 248.021 58.2425C248.021 55.5609 246.116 52.2879 243.759 50.9318Z" fill="white"/>
<path d="M243.268 56.6926L241.547 56.8353L231.64 61.2809C230.851 61.6377 229.96 61.7907 228.997 61.7499L202.974 61.0361C201.684 60.975 200.598 58.3648 201.704 57.9773L227.204 48.9333C229.11 48.2706 231.487 48.6886 233.935 50.1059L241.639 54.5616L242.408 54.5004L243.268 56.6926Z" fill="#F0F8FF"/>
<path d="M242.295 57.3043L240.574 57.4471L230.667 61.8926C229.878 62.2495 228.987 62.4024 228.024 62.3616L202.831 61.1687C201.54 61.1075 200.454 58.4973 201.56 58.1098L226.241 49.5451C228.147 48.8823 230.523 49.3004 232.972 50.7176L240.676 55.1733L241.445 55.1122L242.305 57.3043H242.295Z" fill="#D1EBFF"/>
<path d="M201.613 58.2628L226.294 49.698C228.199 49.0353 230.576 49.4533 233.025 50.8706L240.729 55.3263L241.497 55.2651L242.235 57.1412L242.552 57.1106L241.692 54.9184L240.924 54.9796L233.219 50.5239C230.771 49.1066 228.394 48.6988 226.488 49.3513L201.808 57.9161C201.572 57.9977 201.449 58.1812 201.388 58.4055C201.449 58.3443 201.521 58.2934 201.613 58.2628Z" fill="#F0F8FF"/>
<path d="M202.831 61.1687L211.775 61.5867L209.357 55.4079L201.571 58.1098C200.465 58.4973 201.54 61.1075 202.842 61.1687H202.831Z" fill="#F76195"/>
<path d="M246.045 57.6408C246.045 58.5177 245.738 59.1397 245.246 59.4455C245.236 59.4455 238.72 61.1381 237.603 59.2008C236.466 57.2432 241.189 52.5326 241.199 52.5224C241.712 52.2471 242.419 52.298 243.187 52.7365C244.765 53.6439 246.035 55.8361 246.035 57.6306L246.045 57.6408Z" fill="#A8CFF0"/>
<path d="M242.674 52.7365V50.473L239.939 34.0368C239.724 32.7215 239.662 31.4775 239.754 30.3254L241.312 0.817748C241.445 -0.732065 243.494 0.369118 243.709 2.11266L249.897 40.0321C250.276 43.0094 249.815 45.5686 248.575 47.2816L244.395 52.8181V53.8275L243.35 54.3577L242.674 52.7569V52.7365Z" fill="#A8CFF0"/>
<path d="M245.912 56.6212L247.633 58.742L260.275 70.7327C261.279 71.6911 262.232 72.7821 263.103 73.9852L284.833 105.889C286.001 107.5 285.028 109.009 283.696 107.653L255.061 77.0135C252.776 74.6888 250.86 71.7217 249.651 68.5915L245.83 58.7624L244.959 57.2738L245.922 56.6212H245.912Z" fill="#A8CFF0"/>
<path d="M276.74 94.9179L277.201 94.6936L284.833 105.899C286.001 107.51 285.028 109.019 283.696 107.663L274.599 97.9359L276.74 94.9281V94.9179Z" fill="#D62D69"/>
<path d="M241.691 53.3482V51.0847L238.955 34.6485C238.74 33.3332 238.679 32.0893 238.771 30.9371L241.291 0.82791C241.424 -0.721904 243.473 0.379284 243.689 2.12282L248.596 40.7152C248.975 43.6925 248.514 46.2517 247.274 47.9647L243.402 53.338V54.3475L241.691 53.3584V53.3482Z" fill="#D1EBFF"/>
<path d="M245.246 14.2868L245.676 14.1747L243.709 2.10242C243.483 0.369074 241.434 -0.73211 241.312 0.807508L240.748 11.4625L245.246 14.2868Z" fill="#D62D69"/>
<path d="M241.292 0.817716L240.4 11.5033L245.246 14.2868L243.699 2.11263C243.474 0.379282 241.425 -0.721902 241.302 0.817716H241.292Z" fill="#F76195"/>
<path d="M244.939 57.2329L246.66 59.3537L259.302 71.3444C260.306 72.3028 261.259 73.3938 262.13 74.597L284.802 105.899C285.97 107.51 284.997 109.019 283.665 107.663L254.077 77.6354C251.793 75.3209 249.877 72.3436 248.668 69.2134L244.847 59.3843L244.078 58.4361L244.939 57.2329Z" fill="#D1EBFF"/>
<path d="M284.802 105.899L276.76 94.7853L274.342 98.1807L283.675 107.653C285.007 108.999 285.97 107.49 284.812 105.889L284.802 105.899Z" fill="#F76195"/>
<path d="M248.76 40.6235L243.853 2.03108C243.699 0.838127 242.695 -0.0489356 242.029 0.00204511C242.664 0.17538 243.412 0.970676 243.546 1.99029L248.453 40.5827C248.832 43.56 248.371 46.1192 247.131 47.8321L243.259 53.2055V54.0722L243.566 54.2455V53.2361L247.439 47.8627C248.668 46.1498 249.139 43.5906 248.76 40.6133V40.6235Z" fill="white"/>
<path d="M284.802 105.899L262.13 74.597C261.259 73.404 260.306 72.3028 259.302 71.3444L246.659 59.3537L244.938 57.2329L244.713 57.549L246.393 59.6188L259.036 71.6095C260.04 72.5679 260.992 73.6589 261.863 74.8621L284.536 106.164C285.099 106.949 285.16 107.704 284.925 108.122C285.427 107.867 285.54 106.898 284.812 105.899H284.802Z" fill="white"/>
<path d="M239.765 95.5909C239.663 95.5909 239.56 95.5603 239.468 95.4991C232.03 90.3195 225.094 82.9171 219.408 74.077C219.255 73.8425 219.326 73.5264 219.562 73.3735C219.798 73.2206 220.115 73.2919 220.269 73.5264C225.883 82.2543 232.727 89.565 240.052 94.6631C240.288 94.8262 240.339 95.1423 240.175 95.3768C240.073 95.5195 239.919 95.5909 239.755 95.5909H239.765Z" fill="#D1EBFF"/>
<path d="M260.163 103.105C259.846 103.105 259.538 103.105 259.221 103.085C258.934 103.075 258.719 102.84 258.729 102.555C258.739 102.269 258.944 102.065 259.262 102.065C259.569 102.076 259.866 102.086 260.163 102.086H260.593C260.932 102.086 261.106 102.3 261.116 102.585C261.116 102.871 260.901 103.095 260.614 103.105H260.163ZM263.657 102.82C263.411 102.82 263.196 102.647 263.155 102.392C263.104 102.116 263.298 101.851 263.575 101.8C264.23 101.688 264.886 101.545 265.521 101.372C265.798 101.301 266.075 101.454 266.157 101.729C266.239 102.004 266.075 102.28 265.798 102.361C265.132 102.545 264.435 102.698 263.749 102.82C263.718 102.82 263.687 102.82 263.667 102.82H263.657ZM268.523 101.301C268.329 101.301 268.144 101.189 268.062 101.005C267.939 100.75 268.052 100.444 268.308 100.322C268.902 100.036 269.486 99.7203 270.05 99.3635C270.285 99.2105 270.603 99.2819 270.757 99.5266C270.91 99.7611 270.839 100.077 270.593 100.23C269.998 100.607 269.374 100.944 268.749 101.24C268.677 101.27 268.605 101.291 268.533 101.291L268.523 101.301Z" fill="#0FBAB8"/>
<path d="M276.157 56.3256C271.598 43.1317 263.31 30.4579 253.413 21.5465L254.1 20.792C264.119 29.8054 272.51 42.6321 277.12 55.9891L276.147 56.3256H276.157Z" fill="#FFD70F"/>
<path d="M224.921 90.6662C224.778 90.6662 224.645 90.605 224.542 90.4929C224.081 89.9831 223.63 89.4733 223.19 88.9431C223.005 88.729 223.036 88.4027 223.251 88.2191C223.466 88.0356 223.794 88.0662 223.968 88.2803C224.409 88.8003 224.86 89.3101 225.311 89.8097C225.495 90.0239 225.485 90.3399 225.27 90.5337C225.167 90.6254 225.054 90.6662 224.932 90.6662H224.921ZM221.622 86.7713C221.469 86.7713 221.325 86.7101 221.223 86.5776C220.792 86.0474 220.372 85.507 219.952 84.9666C219.778 84.7422 219.819 84.4262 220.045 84.2528C220.27 84.0795 220.588 84.1203 220.762 84.3446C221.182 84.885 221.592 85.4152 222.022 85.9454C222.196 86.1697 222.165 86.4858 221.94 86.6591C221.848 86.7305 221.735 86.7713 221.622 86.7713ZM218.518 82.7132C218.364 82.7132 218.2 82.6418 218.098 82.4991C217.698 81.9485 217.299 81.3877 216.91 80.8269C216.746 80.5924 216.807 80.2763 217.043 80.1132C217.278 79.9603 217.596 80.0112 217.76 80.2458C218.149 80.8065 218.539 81.3571 218.938 81.8975C219.102 82.1218 219.051 82.4481 218.825 82.6113C218.733 82.6724 218.631 82.703 218.528 82.703L218.518 82.7132ZM215.619 78.5124C215.455 78.5124 215.291 78.4308 215.188 78.2779C214.809 77.7069 214.441 77.1257 214.082 76.5547C213.928 76.3202 214 76.0042 214.246 75.8512C214.482 75.6983 214.799 75.7696 214.953 76.0144C215.311 76.5853 215.68 77.1563 216.049 77.7273C216.203 77.9618 216.131 78.2779 215.895 78.4308C215.813 78.4818 215.711 78.5124 215.619 78.5124ZM212.924 74.179C212.75 74.179 212.576 74.0873 212.484 73.9241C212.135 73.3328 211.797 72.7414 211.459 72.15C211.326 71.9053 211.408 71.5892 211.654 71.4567C211.9 71.3241 212.207 71.4057 212.351 71.6504C212.678 72.2418 213.016 72.823 213.365 73.4143C213.508 73.659 213.426 73.9649 213.18 74.1077C213.098 74.1587 213.006 74.179 212.924 74.179ZM210.445 69.7233C210.261 69.7233 210.086 69.6214 209.994 69.448C209.677 68.8465 209.359 68.2347 209.062 67.6229C208.939 67.368 209.041 67.0621 209.287 66.9398C209.543 66.8174 209.851 66.9194 209.974 67.1743C210.281 67.7759 210.588 68.3774 210.906 68.979C211.039 69.2237 210.937 69.5398 210.691 69.6622C210.619 69.7029 210.537 69.7233 210.455 69.7233H210.445Z" fill="#0FBAB8"/>
<path d="M287.488 78.4716C287.211 78.4716 286.986 78.2575 286.976 77.9822C286.945 77.3092 286.904 76.6363 286.842 75.9633C286.822 75.6778 287.027 75.4331 287.314 75.4127C287.601 75.3924 287.847 75.5963 287.867 75.8818C287.918 76.5649 287.969 77.2481 288 77.9312C288.01 78.2167 287.795 78.4512 287.508 78.4614H287.488V78.4716ZM287.037 73.3939C286.781 73.3939 286.566 73.2002 286.525 72.9453C286.443 72.2825 286.351 71.6096 286.248 70.9366C286.207 70.6613 286.402 70.3962 286.679 70.3554C286.965 70.3147 287.222 70.4982 287.263 70.7837C287.365 71.4668 287.457 72.1398 287.549 72.8127C287.58 73.088 287.385 73.3429 287.109 73.3837C287.088 73.3837 287.068 73.3837 287.047 73.3837L287.037 73.3939ZM286.228 68.357C285.992 68.357 285.777 68.1837 285.726 67.9492C285.593 67.2864 285.459 66.6237 285.306 65.9609C285.244 65.6856 285.418 65.4103 285.695 65.3491C285.982 65.288 286.248 65.4613 286.31 65.7366C286.463 66.4096 286.597 67.0723 286.73 67.7452C286.781 68.0205 286.607 68.2856 286.33 68.3468C286.299 68.3468 286.259 68.3468 286.228 68.3468V68.357ZM285.091 63.3915C284.865 63.3915 284.65 63.2386 284.599 63.004C284.435 62.3515 284.25 61.6989 284.066 61.0464C283.984 60.7711 284.148 60.4958 284.414 60.4142C284.681 60.3428 284.968 60.4958 285.05 60.7609C285.244 61.4236 285.418 62.0864 285.593 62.7389C285.664 63.0142 285.5 63.2895 285.224 63.3609C285.183 63.3711 285.142 63.3813 285.101 63.3813L285.091 63.3915ZM283.656 58.4973C283.441 58.4973 283.236 58.3648 283.165 58.1405C282.96 57.4981 282.744 56.8558 282.519 56.2134C282.427 55.9483 282.57 55.6526 282.837 55.5609C283.103 55.4691 283.4 55.6118 283.492 55.8769C283.718 56.5295 283.933 57.1718 284.148 57.8244C284.23 58.0895 284.087 58.375 283.82 58.4668C283.769 58.4871 283.718 58.4871 283.667 58.4871L283.656 58.4973ZM281.956 53.6848C281.751 53.6848 281.556 53.5624 281.474 53.3585C281.228 52.7263 280.982 52.0942 280.726 51.462C280.624 51.1969 280.747 50.9012 281.003 50.7993C281.269 50.6871 281.566 50.8196 281.669 51.0847C281.925 51.7169 282.181 52.3593 282.427 53.0016C282.529 53.2667 282.396 53.5624 282.13 53.6644C282.068 53.6848 282.007 53.695 281.945 53.695L281.956 53.6848ZM279.999 48.9639C279.804 48.9639 279.62 48.8518 279.527 48.6581C279.251 48.0361 278.974 47.4243 278.687 46.8024C278.564 46.5475 278.687 46.2416 278.933 46.1294C279.189 46.0173 279.497 46.1294 279.609 46.3741C279.896 46.9961 280.183 47.6181 280.46 48.24C280.572 48.4949 280.46 48.8008 280.204 48.913C280.132 48.9436 280.07 48.9538 279.999 48.9538V48.9639ZM277.817 44.3451C277.632 44.3451 277.448 44.2431 277.356 44.0596C277.048 43.458 276.741 42.8565 276.423 42.2549C276.29 42.0102 276.392 41.6941 276.638 41.5616C276.884 41.429 277.202 41.531 277.325 41.7757C277.642 42.3772 277.96 42.989 278.267 43.6008C278.39 43.8557 278.288 44.1616 278.042 44.2839C277.97 44.3247 277.888 44.3349 277.817 44.3349V44.3451ZM275.409 39.8384C275.235 39.8384 275.061 39.7466 274.958 39.5835C274.62 38.9921 274.282 38.4109 273.944 37.8196C273.8 37.5749 273.882 37.269 274.128 37.1262C274.364 36.9835 274.682 37.065 274.825 37.3098C275.173 37.9011 275.511 38.4925 275.849 39.0839C275.993 39.3286 275.901 39.6447 275.655 39.7772C275.573 39.818 275.491 39.8384 275.399 39.8384H275.409ZM272.796 35.4541C272.622 35.4541 272.458 35.3725 272.366 35.2196C272.008 34.6486 271.639 34.0776 271.27 33.5066C271.116 33.2721 271.178 32.956 271.424 32.8031C271.659 32.6501 271.977 32.7113 272.131 32.956C272.51 33.527 272.878 34.098 273.237 34.6792C273.391 34.9137 273.319 35.2297 273.073 35.3827C272.991 35.4337 272.899 35.4643 272.796 35.4643V35.4541ZM269.979 31.2023C269.815 31.2023 269.661 31.1207 269.559 30.9881C269.17 30.4376 268.78 29.887 268.381 29.3364C268.217 29.1121 268.268 28.7858 268.494 28.6226C268.719 28.4595 269.047 28.5105 269.211 28.7348C269.61 29.2854 270.01 29.8462 270.399 30.407C270.563 30.6415 270.502 30.9576 270.266 31.1207C270.174 31.1819 270.071 31.2125 269.969 31.2125L269.979 31.2023ZM266.957 27.0932C266.803 27.0932 266.649 27.0218 266.547 26.8995C266.127 26.3591 265.707 25.8289 265.287 25.3089C265.113 25.0846 265.143 24.7685 265.369 24.5952C265.584 24.4218 265.912 24.4524 266.086 24.6767C266.516 25.2069 266.936 25.7473 267.356 26.2877C267.53 26.512 267.489 26.8281 267.264 27.0015C267.172 27.0728 267.059 27.1034 266.947 27.1034L266.957 27.0932ZM263.73 23.1473C263.586 23.1473 263.443 23.0861 263.34 22.9638C262.9 22.454 262.449 21.9442 261.998 21.4446C261.814 21.2304 261.824 20.9144 262.039 20.7206C262.244 20.5371 262.572 20.5473 262.767 20.7614C263.217 21.2712 263.678 21.781 264.119 22.301C264.303 22.5151 264.283 22.8414 264.068 23.025C263.975 23.1065 263.853 23.1473 263.73 23.1473Z" fill="#0FBAB8"/>
<path opacity="0.2" d="M195.18 197.073C195.18 198.837 192.332 200.275 188.818 200.275C185.304 200.275 182.456 198.847 182.456 197.073C182.456 195.299 185.304 193.872 188.818 193.872C192.332 193.872 195.18 195.299 195.18 197.073Z" fill="#92B4D1"/>
<path d="M187.618 202.396C182.782 202.396 178.981 200.101 178.981 197.175C178.981 194.249 182.772 191.955 187.618 191.955C192.464 191.955 196.255 194.249 196.255 197.175C196.255 200.101 192.464 202.396 187.618 202.396ZM187.618 192.984C183.489 192.984 180.006 194.901 180.006 197.185C180.006 199.469 183.489 201.386 187.618 201.386C191.747 201.386 195.23 199.469 195.23 197.185C195.23 194.901 191.747 192.984 187.618 192.984Z" fill="#FFD70F"/>
<path d="M192.3 185.5H182.936V197.185C182.936 198.694 185.036 199.908 187.618 199.908C190.199 199.908 192.3 198.694 192.3 197.195V185.5Z" fill="#A8CFF0"/>
<path d="M192.3 185.613C192.3 187.111 190.199 188.325 187.618 188.325C185.036 188.325 182.936 187.111 182.936 185.613C182.936 184.114 185.036 182.9 187.618 182.9C190.199 182.9 192.3 184.114 192.3 185.613Z" fill="#D1EBFF"/>
<path d="M190.958 149.6H184.268V185.256V185.286C184.268 186.357 185.763 187.224 187.607 187.224C189.452 187.224 190.947 186.357 190.947 185.286V185.256V149.6H190.958Z" fill="#A8CFF0"/>
<path opacity="0.3" d="M185.375 185.613V152.22H188.11V186.357C187.885 186.489 185.785 186.469 185.375 185.623V185.613Z" fill="#D1EBFF"/>
<path d="M190.957 149.62C190.957 150.691 189.461 151.557 187.617 151.557C185.773 151.557 184.277 150.691 184.277 149.62C184.277 148.55 185.773 147.683 187.617 147.683C189.461 147.683 190.957 148.55 190.957 149.62Z" fill="#D1EBFF"/>
<path opacity="0.3" d="M187.043 189.293C185.804 189.202 184.718 188.835 183.97 188.304V197.766C184.164 198.042 185.117 198.796 186.685 198.796C186.808 198.796 186.931 198.796 187.043 198.776V189.283V189.293Z" fill="#D1EBFF"/>
<path d="M179.032 169.401L206.93 117.462L206.92 115.055L174.801 97.9155L146.853 148.203L146.904 150.732L179.032 169.401Z" fill="#A8CFF0"/>
<path d="M179.032 166.852L206.929 114.902L174.801 96.2332L146.903 148.183L179.032 166.852Z" fill="#D1EBFF"/>
<path d="M160.796 116.625C160.714 116.625 160.632 116.605 160.55 116.564C160.304 116.432 160.202 116.126 160.335 115.871L161.298 114.076C161.431 113.822 161.739 113.74 161.995 113.862C162.241 113.995 162.343 114.301 162.21 114.556L161.247 116.35C161.155 116.524 160.981 116.615 160.796 116.615V116.625ZM163.214 112.129C163.132 112.129 163.05 112.109 162.968 112.068C162.722 111.935 162.62 111.629 162.753 111.374L163.716 109.58C163.849 109.325 164.157 109.243 164.413 109.366C164.659 109.498 164.761 109.804 164.628 110.059L163.665 111.854C163.573 112.027 163.398 112.119 163.214 112.119V112.129ZM165.632 107.633C165.55 107.633 165.468 107.612 165.386 107.571C165.14 107.439 165.038 107.133 165.171 106.878L166.134 105.083C166.267 104.829 166.574 104.737 166.83 104.869C167.076 105.002 167.179 105.308 167.046 105.563L166.083 107.357C165.99 107.531 165.816 107.622 165.632 107.622V107.633ZM168.05 103.136C167.968 103.136 167.886 103.116 167.804 103.075C167.558 102.942 167.455 102.636 167.589 102.381L168.552 100.587C168.685 100.332 169.002 100.24 169.248 100.383C169.494 100.516 169.597 100.821 169.463 101.076L168.5 102.871C168.408 103.044 168.234 103.136 168.05 103.136ZM186.808 98.9556C186.716 98.9556 186.634 98.9352 186.552 98.8842L184.78 97.8544C184.534 97.7117 184.452 97.3956 184.595 97.1611C184.739 96.9164 185.057 96.8348 185.292 96.9775L187.065 98.0073C187.31 98.1501 187.392 98.4662 187.249 98.7007C187.157 98.8638 186.983 98.9556 186.808 98.9556ZM170.467 98.6395C170.386 98.6395 170.304 98.6191 170.222 98.5783C169.976 98.4458 169.873 98.1399 170.006 97.885L170.97 96.0905C171.103 95.8356 171.41 95.7438 171.666 95.8763C171.912 96.0089 172.015 96.3148 171.881 96.5697L170.918 98.3642C170.826 98.5375 170.652 98.6293 170.467 98.6293V98.6395ZM182.383 96.3861C182.29 96.3861 182.208 96.3658 182.126 96.3148L180.354 95.285C180.108 95.1422 180.026 94.8261 180.17 94.5916C180.313 94.3469 180.631 94.2654 180.866 94.4081L182.639 95.4379C182.885 95.5807 182.967 95.8967 182.823 96.1312C182.731 96.2944 182.557 96.3861 182.383 96.3861ZM172.885 94.143C172.803 94.143 172.721 94.1226 172.639 94.0818C172.394 93.9493 172.291 93.6434 172.424 93.3885L173.387 91.594C173.521 91.3391 173.828 91.2473 174.084 91.3799C174.33 91.5124 174.432 91.8183 174.299 92.0732L173.336 93.8677C173.244 94.0411 173.07 94.1328 172.885 94.1328V94.143ZM177.967 93.8167C177.875 93.8167 177.793 93.7963 177.711 93.7454L175.938 92.7155C175.692 92.5728 175.611 92.2567 175.754 92.0222C175.897 91.7775 176.215 91.6959 176.451 91.8387L178.223 92.8685C178.469 93.0112 178.551 93.3273 178.407 93.5618C178.315 93.725 178.141 93.8167 177.967 93.8167Z" fill="#FFD70F"/>
<path d="M203.477 116.085L175.672 100.21L150.571 147.499L178.387 163.375L203.477 116.085Z" fill="#2672AB"/>
<path d="M175.672 100.791L203.241 116.534L203.477 116.085L175.672 100.199L150.571 147.499L150.817 147.632L175.672 100.791Z" fill="#03336E"/>
<g opacity="0.2">
<path d="M154.649 149.712L179.739 102.432L179.145 102.096L154.055 149.386L154.649 149.712Z" fill="#D1EBFF"/>
<path d="M158.142 151.721L183.232 104.441L182.638 104.105L157.548 151.394L158.142 151.721Z" fill="#D1EBFF"/>
<path d="M161.626 153.729L186.716 106.44L186.132 106.113L161.042 153.403L161.626 153.729Z" fill="#D1EBFF"/>
<path d="M165.119 155.728L190.209 108.448L189.625 108.112L164.535 155.401L165.119 155.728Z" fill="#D1EBFF"/>
<path d="M168.613 157.736L193.703 110.457L193.119 110.12L168.019 157.41L168.613 157.736Z" fill="#D1EBFF"/>
<path d="M172.107 159.735L197.197 112.455L196.613 112.119L171.513 159.409L172.107 159.735Z" fill="#D1EBFF"/>
<path d="M175.6 161.743L200.69 114.464L200.096 114.127L175.006 161.417L175.6 161.743Z" fill="#D1EBFF"/>
</g>
<g opacity="0.2">
<path d="M201.529 119.725L201.939 119.215L174.175 103.238L173.755 103.748L201.529 119.725Z" fill="#D1EBFF"/>
<path d="M199.563 123.436L199.983 122.916L172.219 106.949L171.799 107.459L199.563 123.436Z" fill="#D1EBFF"/>
<path d="M197.606 127.138L198.027 126.628L170.252 110.651L169.832 111.16L197.606 127.138Z" fill="#D1EBFF"/>
<path d="M195.649 130.839L196.069 130.329L168.295 114.352L167.875 114.872L195.649 130.839Z" fill="#D1EBFF"/>
<path d="M193.693 134.55L194.103 134.03L166.339 118.063L165.919 118.573L193.693 134.55Z" fill="#D1EBFF"/>
<path d="M191.726 138.252L192.146 137.742L164.382 121.764L163.962 122.274L191.726 138.252Z" fill="#D1EBFF"/>
<path d="M189.769 141.953L190.189 141.443L162.414 125.466L161.994 125.986L189.769 141.953Z" fill="#D1EBFF"/>
<path d="M187.813 145.664L188.233 145.154L160.458 129.177L160.038 129.687L187.813 145.664Z" fill="#D1EBFF"/>
<path d="M185.845 149.365L186.265 148.855L158.501 132.878L158.081 133.388L185.845 149.365Z" fill="#D1EBFF"/>
<path d="M183.888 153.067L184.308 152.557L156.534 136.579L156.124 137.099L183.888 153.067Z" fill="#D1EBFF"/>
<path d="M181.932 156.778L182.352 156.268L154.577 140.291L154.157 140.801L181.932 156.778Z" fill="#D1EBFF"/>
<path d="M179.975 160.479L180.384 159.969L152.62 143.992L152.2 144.502L179.975 160.479Z" fill="#D1EBFF"/>
</g>
<path d="M179.033 166.852V169.401L206.931 117.462L206.92 115.055L179.033 166.852Z" fill="#72B5E8"/>
<path d="M211.869 188.355L239.767 136.416L239.756 134.01L207.638 116.87L179.689 167.158L179.741 169.686L211.869 188.355Z" fill="#A8CFF0"/>
<path d="M212.074 193.77L211.398 193.372C211.152 193.229 211.07 192.913 211.213 192.679C211.306 192.526 211.47 192.434 211.634 192.424L212.269 191.251C212.402 191.007 212.719 190.905 212.965 191.037C213.211 191.17 213.314 191.476 213.17 191.73L212.074 193.77ZM209.001 191.904C208.908 191.904 208.826 191.883 208.744 191.832L206.972 190.803C206.726 190.66 206.644 190.344 206.788 190.109C206.931 189.865 207.249 189.783 207.484 189.926L209.257 190.956C209.503 191.098 209.584 191.414 209.441 191.649C209.349 191.812 209.175 191.904 209.001 191.904ZM204.575 189.334C204.482 189.334 204.4 189.314 204.318 189.263L202.546 188.233C202.3 188.09 202.218 187.774 202.362 187.54C202.505 187.295 202.823 187.214 203.058 187.356L204.831 188.386C205.077 188.529 205.159 188.845 205.015 189.079C204.923 189.243 204.749 189.334 204.575 189.334ZM214.164 189.304C214.082 189.304 214 189.283 213.918 189.243C213.672 189.11 213.57 188.804 213.703 188.549L214.666 186.755C214.799 186.5 215.107 186.418 215.363 186.541C215.609 186.673 215.711 186.979 215.578 187.234L214.615 189.028C214.523 189.202 214.348 189.294 214.164 189.294V189.304ZM200.149 186.765C200.057 186.765 199.975 186.745 199.893 186.694L198.12 185.664C197.874 185.521 197.792 185.205 197.936 184.97C198.079 184.726 198.397 184.644 198.632 184.787L200.405 185.817C200.651 185.959 200.733 186.276 200.589 186.51C200.497 186.673 200.323 186.765 200.149 186.765ZM216.582 184.807C216.5 184.807 216.418 184.787 216.336 184.746C216.09 184.614 215.988 184.308 216.121 184.053L217.084 182.258C217.217 182.003 217.524 181.922 217.781 182.044C218.026 182.177 218.129 182.483 217.996 182.737L217.033 184.532C216.94 184.705 216.766 184.797 216.582 184.797V184.807ZM219 180.311C218.918 180.311 218.836 180.29 218.754 180.25C218.508 180.117 218.406 179.811 218.539 179.556L219.502 177.762C219.635 177.507 219.953 177.425 220.198 177.548C220.444 177.68 220.547 177.986 220.414 178.241L219.451 180.035C219.358 180.209 219.184 180.301 219 180.301V180.311ZM221.418 175.814C221.336 175.814 221.254 175.794 221.172 175.753C220.926 175.621 220.823 175.315 220.957 175.06L221.715 173.653C221.848 173.398 222.155 173.306 222.411 173.439C222.657 173.571 222.76 173.877 222.626 174.132L221.868 175.539C221.776 175.712 221.602 175.804 221.418 175.804V175.814Z" fill="#FFD70F"/>
<path d="M211.869 185.806L239.766 133.857L207.638 115.188L179.74 167.137L211.869 185.806Z" fill="#D1EBFF"/>
<path d="M236.313 135.04L208.508 119.154L183.407 166.444L211.223 182.33L236.313 135.04Z" fill="#2672AB"/>
<path d="M208.508 119.746L236.077 135.488L236.313 135.04L208.508 119.154L183.407 166.454L183.653 166.587L208.508 119.746Z" fill="#03336E"/>
<g opacity="0.2">
<path d="M187.485 168.667L212.575 121.387L211.991 121.051L186.891 168.34L187.485 168.667Z" fill="#D1EBFF"/>
<path d="M190.978 170.675L216.068 123.396L215.474 123.059L190.384 170.349L190.978 170.675Z" fill="#D1EBFF"/>
<path d="M194.471 172.684L219.551 125.394L218.967 125.068L193.877 172.358L194.471 172.684Z" fill="#D1EBFF"/>
<path d="M197.954 174.682L223.044 127.403L222.46 127.066L197.37 174.356L197.954 174.682Z" fill="#D1EBFF"/>
<path d="M201.449 176.691L226.539 129.412L225.955 129.075L200.854 176.365L201.449 176.691Z" fill="#D1EBFF"/>
<path d="M204.942 178.689L230.032 131.41L229.448 131.074L204.348 178.363L204.942 178.689Z" fill="#D1EBFF"/>
<path d="M208.436 180.698L233.526 133.419L232.932 133.082L207.842 180.372L208.436 180.698Z" fill="#D1EBFF"/>
</g>
<g opacity="0.2">
<path d="M234.366 138.68L234.786 138.17L207.012 122.193L206.592 122.702L234.366 138.68Z" fill="#D1EBFF"/>
<path d="M232.4 142.391L232.82 141.871L205.056 125.904L204.636 126.414L232.4 142.391Z" fill="#D1EBFF"/>
<path d="M230.445 146.093L230.865 145.583L203.09 129.605L202.681 130.115L230.445 146.093Z" fill="#D1EBFF"/>
<path d="M228.486 149.794L228.906 149.284L201.132 133.307L200.712 133.816L228.486 149.794Z" fill="#D1EBFF"/>
<path d="M226.529 153.505L226.939 152.985L199.175 137.018L198.755 137.528L226.529 153.505Z" fill="#D1EBFF"/>
<path d="M224.563 157.206L224.983 156.696L197.219 140.719L196.799 141.229L224.563 157.206Z" fill="#D1EBFF"/>
<path d="M222.605 160.908L223.025 160.398L195.251 144.42L194.841 144.94L222.605 160.908Z" fill="#D1EBFF"/>
<path d="M220.648 164.619L221.069 164.109L193.294 148.132L192.874 148.641L220.648 164.619Z" fill="#D1EBFF"/>
<path d="M218.692 168.32L219.102 167.81L191.338 151.833L190.918 152.343L218.692 168.32Z" fill="#D1EBFF"/>
<path d="M216.725 172.021L217.145 171.511L189.381 155.534L188.961 156.054L216.725 172.021Z" fill="#D1EBFF"/>
<path d="M214.769 175.733L215.189 175.223L187.414 159.245L186.994 159.755L214.769 175.733Z" fill="#D1EBFF"/>
<path d="M212.812 179.434L213.232 178.924L185.457 162.947L185.037 163.456L212.812 179.434Z" fill="#D1EBFF"/>
</g>
<path d="M211.87 185.806V188.355L239.767 136.416L239.757 134.01L211.87 185.806Z" fill="#72B5E8"/>
<g style="mix-blend-mode:multiply" opacity="0.3">
<path opacity="0.09" d="M164.598 130.166C160.89 128.004 156.833 128.3 155.531 130.829L147.479 146.47C146.178 148.988 148.134 152.781 151.843 154.943L187.394 175.865C191.102 178.027 196.84 177.915 198.141 175.396L206.193 159.755C207.495 157.237 203.858 153.25 200.149 151.089L164.598 130.166Z" fill="#03336E"/>
<path opacity="0.18" d="M164.495 130.533C160.837 128.402 156.852 128.677 155.582 131.135L147.744 146.368C146.474 148.825 148.42 152.547 152.078 154.678L187.29 175.386C190.948 177.517 196.449 177.415 197.72 174.958L205.557 159.725C206.828 157.267 203.375 153.372 199.718 151.241L164.505 130.533H164.495Z" fill="#03336E"/>
<path opacity="0.27" d="M164.383 130.9C160.777 128.8 156.853 129.044 155.624 131.451L148.012 146.286C146.782 148.682 148.708 152.332 152.315 154.433L187.199 174.927C190.805 177.027 196.071 176.936 197.301 174.529L204.913 159.694C206.142 157.298 202.874 153.495 199.268 151.394L164.383 130.9Z" fill="#03336E"/>
<path opacity="0.36" d="M164.27 131.277C160.715 129.208 156.863 129.432 155.664 131.767L148.267 146.194C147.069 148.529 148.974 152.108 152.54 154.178L187.096 174.458C190.651 176.528 195.682 176.446 196.88 174.101L204.277 159.674C205.476 157.339 202.392 153.627 198.837 151.558L164.281 131.277H164.27Z" fill="#03336E"/>
<path opacity="0.45" d="M164.157 131.644C160.653 129.605 156.862 129.799 155.694 132.073L148.513 146.092C147.345 148.366 149.24 151.874 152.754 153.913L186.973 173.969C190.477 176.008 195.271 175.926 196.439 173.653L203.621 159.633C204.789 157.359 201.879 153.739 198.376 151.7L164.157 131.644Z" fill="#03336E"/>
<path opacity="0.55" d="M164.054 132.012C160.602 130.003 156.883 130.166 155.746 132.389L148.789 146.011C147.652 148.223 149.537 151.649 153 153.668L186.891 173.51C190.343 175.518 194.902 175.447 196.04 173.235L202.996 159.613C204.133 157.4 201.408 153.872 197.945 151.863L164.054 132.022V132.012Z" fill="#03336E"/>
<path opacity="0.64" d="M163.943 132.389C160.541 130.411 156.884 130.553 155.788 132.705L149.046 145.919C147.95 148.07 149.815 151.425 153.226 153.403L186.789 173.031C190.191 175.009 194.524 174.947 195.621 172.786L202.362 159.572C203.458 157.42 200.917 153.984 197.516 152.006L163.953 132.379L163.943 132.389Z" fill="#03336E"/>
<path opacity="0.73" d="M163.829 132.756C160.469 130.808 156.893 130.921 155.828 133.021L149.302 145.838C148.236 147.928 150.091 151.211 153.451 153.158L186.676 172.572C190.036 174.519 194.124 174.458 195.19 172.368L201.716 159.551C202.781 157.461 200.425 154.117 197.064 152.169L163.84 132.756H163.829Z" fill="#03336E"/>
<path opacity="0.82" d="M163.716 133.123C160.407 131.206 156.893 131.298 155.858 133.327L149.557 145.736C148.523 147.765 150.367 150.976 153.676 152.893L186.573 172.093C189.882 174.009 193.734 173.958 194.769 171.929L201.07 159.521C202.104 157.492 199.922 154.239 196.623 152.322L163.726 133.123H163.716Z" fill="#03336E"/>
<path opacity="0.91" d="M163.614 133.5C160.357 131.614 156.914 131.675 155.91 133.643L149.825 145.654C148.821 147.622 150.654 150.762 153.912 152.649L186.471 171.634C189.729 173.53 193.346 173.479 194.34 171.501L200.425 159.49C201.429 157.522 199.431 154.361 196.173 152.475L163.614 133.49V133.5Z" fill="#03336E"/>
<path d="M163.502 133.867C160.295 132.001 156.914 132.042 155.951 133.959L150.081 145.562C149.117 147.469 150.931 150.528 154.138 152.394L186.369 171.154C189.575 173.02 192.956 172.98 193.919 171.063L199.79 159.46C200.753 157.553 198.939 154.494 195.733 152.628L163.502 133.867Z" fill="#03336E"/>
</g>
<path d="M180.765 200.156L154.295 215.439L154.809 216.321L181.279 201.038L180.765 200.156Z" fill="#FFD70F"/>
<path d="M115.554 238.837C115.462 238.837 115.38 238.816 115.298 238.765L93.1895 226.02L93.7017 225.133L115.554 237.725L142.581 222.156L143.093 223.043L115.811 238.765C115.729 238.806 115.647 238.837 115.554 238.837Z" fill="#FFD70F"/>
<path d="M117.092 252C116.999 252 116.917 251.979 116.835 251.928L74.2363 227.539L74.7486 226.652L117.092 250.888L180.14 214.631C180.304 214.539 180.509 214.539 180.662 214.631L190.528 220.636L268.463 176.11L255.062 168.391L255.574 167.504L269.743 175.661C269.907 175.753 270 175.916 270 176.1C270 176.283 269.897 176.446 269.743 176.538L190.774 221.656C190.61 221.748 190.416 221.748 190.252 221.656L180.386 215.65L117.348 251.908C117.266 251.949 117.184 251.979 117.092 251.979V252Z" fill="#0FBAB8"/>
<path d="M93.7832 228.294C93.5885 228.294 93.4041 228.181 93.3119 227.998L92.0313 225.194C91.9493 225.021 91.98 224.827 92.0825 224.674C92.1952 224.521 92.3694 224.45 92.564 224.47L96.2318 224.98C96.5084 225.021 96.703 225.276 96.6723 225.551C96.6313 225.826 96.3752 226.02 96.0986 225.989L93.3529 225.612L94.2442 227.57C94.3569 227.825 94.2442 228.13 93.9881 228.243C93.9164 228.273 93.8447 228.283 93.7729 228.283L93.7832 228.294Z" fill="#FFD70F"/>
<path d="M116.292 229.997C116.118 229.997 115.944 229.905 115.852 229.742C115.708 229.497 115.79 229.191 116.036 229.048L117.798 228.018C118.034 227.876 118.352 227.957 118.495 228.202C118.638 228.447 118.557 228.753 118.311 228.895L116.548 229.925C116.467 229.976 116.374 229.997 116.292 229.997ZM120.708 227.417C120.534 227.417 120.36 227.325 120.267 227.162C120.124 226.917 120.206 226.611 120.452 226.469L122.214 225.439C122.46 225.296 122.767 225.378 122.911 225.622C123.054 225.867 122.972 226.183 122.726 226.316L120.964 227.345C120.882 227.396 120.79 227.417 120.708 227.417ZM125.124 224.837C124.949 224.837 124.775 224.745 124.683 224.582C124.54 224.338 124.622 224.032 124.868 223.889L126.63 222.859C126.865 222.716 127.183 222.798 127.326 223.043C127.47 223.287 127.388 223.593 127.142 223.736L125.38 224.766C125.298 224.817 125.206 224.837 125.124 224.837ZM129.539 222.258C129.365 222.258 129.191 222.166 129.099 222.003C128.955 221.758 129.037 221.452 129.283 221.309L129.847 220.983C130.082 220.84 130.4 220.922 130.543 221.167C130.687 221.411 130.605 221.717 130.359 221.86L129.795 222.186C129.713 222.237 129.621 222.258 129.539 222.258Z" fill="#A8CFF0"/>
<path d="M118.117 230.496H118.106L114.162 230.394L115.873 227.529C116.016 227.284 116.334 227.203 116.57 227.356C116.816 227.498 116.898 227.815 116.744 228.049L115.924 229.415L118.127 229.466C118.414 229.466 118.629 229.711 118.629 229.986C118.629 230.262 118.393 230.486 118.117 230.486V230.496Z" fill="#A8CFF0"/>
<path d="M236.877 187.509C236.703 187.509 236.529 187.417 236.437 187.254C236.293 187.009 236.375 186.704 236.621 186.561L238.383 185.531C238.619 185.388 238.937 185.47 239.08 185.715C239.223 185.959 239.141 186.265 238.896 186.408L237.133 187.438C237.051 187.489 236.959 187.509 236.877 187.509ZM241.293 184.929C241.119 184.929 240.945 184.838 240.852 184.675C240.709 184.43 240.791 184.124 241.037 183.981L242.799 182.951C243.045 182.809 243.352 182.89 243.496 183.135C243.639 183.38 243.557 183.686 243.311 183.828L241.549 184.858C241.467 184.909 241.375 184.929 241.293 184.929ZM245.709 182.35C245.534 182.35 245.36 182.258 245.268 182.095C245.125 181.85 245.207 181.544 245.452 181.402L247.215 180.372C247.45 180.229 247.768 180.311 247.911 180.555C248.055 180.8 247.973 181.106 247.727 181.249L245.965 182.278C245.883 182.329 245.791 182.35 245.709 182.35Z" fill="#A8CFF0"/>
<path d="M237.819 188.519H237.809L233.864 188.417L235.565 185.551C235.708 185.307 236.026 185.235 236.272 185.368C236.518 185.511 236.6 185.827 236.456 186.071L235.637 187.438L237.839 187.489C238.126 187.489 238.341 187.733 238.341 188.009C238.341 188.284 238.106 188.508 237.829 188.508L237.819 188.519Z" fill="#A8CFF0"/>
<path opacity="0.2" d="M59.4623 225.102C88.9812 225.102 112.911 212.791 112.911 197.603C112.911 182.416 88.9812 170.104 59.4623 170.104C29.9435 170.104 6.01367 182.416 6.01367 197.603C6.01367 212.791 29.9435 225.102 59.4623 225.102Z" fill="#92B4D1"/>
<path d="M53.2943 209.604C78.8015 209.604 99.4791 197.621 99.4791 182.839C99.4791 168.057 78.8015 156.074 53.2943 156.074C27.7871 156.074 7.10938 168.057 7.10938 182.839C7.10938 197.621 27.7871 209.604 53.2943 209.604Z" fill="#3F92D1"/>
<path d="M98.1581 160.51H8.43164V182.146C8.43164 196.502 28.5223 208.146 53.2949 208.146C78.0675 208.146 98.1581 196.502 98.1581 182.146C98.1581 182.024 98.1479 181.911 98.1376 181.789H98.1581V160.51Z" fill="#0BA19F"/>
<path d="M53.2949 186.693C78.0722 186.693 98.1581 175.053 98.1581 160.693C98.1581 146.334 78.0722 134.693 53.2949 134.693C28.5176 134.693 8.43164 146.334 8.43164 160.693C8.43164 175.053 28.5176 186.693 53.2949 186.693Z" fill="#3ECFCD"/>
<path opacity="0.5" d="M53.2949 186.591C28.7886 186.591 8.88243 175.202 8.45213 161.05C8.45213 161.203 8.43164 161.356 8.43164 161.519C8.43164 175.875 28.5223 187.519 53.2949 187.519C78.0675 187.519 98.1581 175.875 98.1581 161.519C98.1581 161.366 98.1479 161.213 98.1376 161.05C97.7074 175.192 77.8011 186.591 53.2949 186.591Z" fill="white"/>
<path d="M98.1581 138.935H8.43164V160.571C8.43164 174.927 28.5223 186.571 53.2949 186.571C78.0675 186.571 98.1581 174.927 98.1581 160.571C98.1581 160.449 98.1479 160.336 98.1376 160.214H98.1581V138.935Z" fill="#0FBAB8"/>
<path d="M53.2949 165.108C78.0722 165.108 98.1581 153.467 98.1581 139.108C98.1581 124.749 78.0722 113.108 53.2949 113.108C28.5176 113.108 8.43164 124.749 8.43164 139.108C8.43164 153.467 28.5176 165.108 53.2949 165.108Z" fill="#59DEDC"/>
<path opacity="0.5" d="M53.2949 165.006C28.7886 165.006 8.88243 153.617 8.45213 139.465C8.45213 139.618 8.43164 139.771 8.43164 139.934C8.43164 154.29 28.5223 165.934 53.2949 165.934C78.0675 165.934 98.1581 154.29 98.1581 139.934C98.1581 139.781 98.1479 139.628 98.1376 139.465C97.7074 153.607 77.8011 165.006 53.2949 165.006Z" fill="white"/>
<path d="M98.1581 117.319H8.43164V138.955C8.43164 153.311 28.5223 164.955 53.2949 164.955C78.0675 164.955 98.1581 153.311 98.1581 138.955C98.1581 138.833 98.1479 138.721 98.1376 138.598H98.1581V117.319Z" fill="#3ECFCD"/>
<path d="M53.2949 143.492C78.0722 143.492 98.1581 131.852 98.1581 117.492C98.1581 103.133 78.0722 91.492 53.2949 91.492C28.5176 91.492 8.43164 103.133 8.43164 117.492C8.43164 131.852 28.5176 143.492 53.2949 143.492Z" fill="#59DEDC"/>
<path opacity="0.5" d="M53.2949 143.39C28.7886 143.39 8.88243 132.001 8.45213 117.849C8.45213 118.002 8.43164 118.155 8.43164 118.318C8.43164 132.674 28.5223 144.318 53.2949 144.318C78.0675 144.318 98.1581 132.674 98.1581 118.318C98.1581 118.165 98.1479 118.012 98.1376 117.849C97.7074 131.991 77.8011 143.39 53.2949 143.39Z" fill="white"/>
<path d="M99.4791 83.5901H7.10938V196.675C7.10938 211.46 27.784 223.44 53.2943 223.44C78.8045 223.44 99.4791 211.46 99.4791 196.675C99.4791 196.553 99.4689 196.431 99.4586 196.308H99.4791V83.5901ZM72.2784 207.239C66.4899 208.758 60.0663 209.604 53.2943 209.604C36.8406 209.604 22.3951 204.608 14.2195 197.104V112.037C22.3951 119.552 36.8406 124.538 53.2943 124.538C60.0663 124.538 66.4797 123.692 72.2784 122.172V207.239Z" fill="#72B5E8"/>
<path d="M87.6358 82.7438H8.29785V195.829C8.29785 210.614 28.9725 222.594 54.4827 222.594C79.993 222.594 87.6358 210.614 87.6358 195.829C87.6358 195.707 87.6256 195.584 87.6153 195.462H87.6358V82.7438ZM73.4669 206.392C67.6784 207.912 61.2547 208.758 54.4827 208.758C38.0291 208.758 23.5835 203.762 15.4079 196.257V111.191C23.5835 118.706 38.0291 123.691 54.4827 123.691C61.2547 123.691 67.6682 122.845 73.4669 121.326V206.392Z" fill="#03336E"/>
<path d="M99.4791 83.5901H7.10938V196.675C7.10938 211.46 27.784 223.44 53.2943 223.44C78.8045 223.44 99.4791 211.46 99.4791 196.675C99.4791 196.553 99.4689 196.431 99.4586 196.308H99.4791V83.5901ZM72.2784 207.239C66.4899 208.758 60.0663 209.604 53.2943 209.604C36.8406 209.604 22.3951 204.608 14.2195 197.104V112.037C22.3951 119.552 36.8406 124.538 53.2943 124.538C60.0663 124.538 66.4797 123.692 72.2784 122.172V207.239Z" fill="#084C94"/>
<path d="M53.2952 110.538C78.8024 110.538 99.4801 98.5554 99.4801 83.7735C99.4801 68.9917 78.8024 57.0087 53.2952 57.0087C27.788 57.0087 7.11035 68.9917 7.11035 83.7735C7.11035 98.5554 27.788 110.538 53.2952 110.538Z" fill="#2672AB"/>
<path d="M53.2959 104.166C72.7262 104.166 88.4776 95.0359 88.4776 83.7736C88.4776 72.5112 72.7262 63.3813 53.2959 63.3813C33.8656 63.3813 18.1143 72.5112 18.1143 83.7736C18.1143 95.0359 33.8656 104.166 53.2959 104.166Z" fill="#D1EBFF"/>
<path d="M53.2959 64.9107C72.2903 64.9107 87.7502 73.6284 88.4468 84.5383C88.4673 84.2834 88.4776 84.0285 88.4776 83.7736C88.4776 72.5068 72.7206 63.3813 53.2959 63.3813C33.8712 63.3813 18.1143 72.5068 18.1143 83.7736C18.1143 84.0285 18.1347 84.2834 18.145 84.5383C18.8417 73.6284 34.3118 64.9107 53.2959 64.9107Z" fill="#084C94"/>
<path d="M53.2952 110.436C28.0616 110.436 7.57138 98.7109 7.13084 84.1508C7.13084 84.3139 7.11035 84.4669 7.11035 84.63C7.11035 99.4144 27.785 111.395 53.2952 111.395C78.8055 111.395 99.4801 99.4144 99.4801 84.63C99.4801 84.4669 99.4596 84.3139 99.4596 84.1508C99.0191 98.7109 78.5289 110.436 53.2952 110.436Z" fill="#3F92D1"/>
<path d="M71.7768 71.844H34.8125V82.2033C34.8125 88.1171 43.0905 92.9093 53.2946 92.9093C63.4988 92.9093 71.7768 88.1171 71.7768 82.2033C71.7768 82.1523 71.7768 82.1013 71.7768 82.0606V71.8542V71.844Z" fill="#A8CFF0"/>
<path d="M53.2956 82.6316C63.503 82.6316 71.7778 77.8338 71.7778 71.9154C71.7778 65.997 63.503 61.1993 53.2956 61.1993C43.0882 61.1993 34.8135 65.997 34.8135 71.9154C34.8135 77.8338 43.0882 82.6316 53.2956 82.6316Z" fill="#F0F8FF"/>
<path opacity="0.6" d="M53.2956 82.6316C63.503 82.6316 71.7778 77.8338 71.7778 71.9154C71.7778 65.997 63.503 61.1993 53.2956 61.1993C43.0882 61.1993 34.8135 65.997 34.8135 71.9154C34.8135 77.8338 43.0882 82.6316 53.2956 82.6316Z" fill="#D1EBFF"/>
<path d="M53.2942 82.0809C43.2028 82.0809 34.9964 77.9005 34.8223 72.0683C34.8223 72.1295 34.8223 72.1907 34.8223 72.262C34.8223 78.1758 43.1003 83.1821 53.3044 83.1821C63.5085 83.1821 71.7866 78.186 71.7866 72.262C71.7866 72.2009 71.7866 72.1295 71.7866 72.0683C71.6124 77.8903 63.4061 82.0809 53.3147 82.0809H53.2942Z" fill="white"/>
<path d="M88.3848 111.334V125.833C89.4605 125.119 90.4543 124.364 91.3456 123.559V109.06C90.4543 109.855 89.4707 110.62 88.3848 111.334Z" fill="#03336E"/>
<path d="M94.428 111.64C91.9487 114.525 88.5986 117.105 84.5723 119.277V123.182C88.5986 121.01 91.959 118.43 94.428 115.545V111.64Z" fill="#03336E"/>
<path d="M94.428 192.577C91.9487 195.462 88.5986 198.042 84.5723 200.214V204.119C88.5986 201.947 91.959 199.367 94.428 196.482V192.577Z" fill="#03336E"/>
<path opacity="0.2" d="M156.771 219.454C156.771 221.218 153.923 222.655 150.409 222.655C146.895 222.655 144.047 221.218 144.047 219.454C144.047 217.69 146.895 216.252 150.409 216.252C153.923 216.252 156.771 217.68 156.771 219.454Z" fill="#92B4D1"/>
<path d="M149.21 224.776C144.374 224.776 140.573 222.482 140.573 219.556C140.573 216.629 144.364 214.335 149.21 214.335C154.056 214.335 157.846 216.629 157.846 219.556C157.846 222.482 154.056 224.776 149.21 224.776ZM149.21 215.365C145.081 215.365 141.598 217.282 141.598 219.566C141.598 221.85 145.081 223.767 149.21 223.767C153.339 223.767 156.822 221.85 156.822 219.566C156.822 217.282 153.339 215.365 149.21 215.365Z" fill="#FFD70F"/>
<path d="M153.903 207.881H144.539V219.566C144.539 221.075 146.639 222.288 149.221 222.288C151.803 222.288 153.903 221.075 153.903 219.576V207.881Z" fill="#A8CFF0"/>
<path d="M153.903 207.993C153.903 209.492 151.803 210.705 149.221 210.705C146.639 210.705 144.539 209.492 144.539 207.993C144.539 206.494 146.639 205.281 149.221 205.281C151.803 205.281 153.903 206.494 153.903 207.993Z" fill="#D1EBFF"/>
<path d="M152.56 171.98H145.87V207.636V207.667C145.87 208.737 147.366 209.604 149.21 209.604C151.054 209.604 152.55 208.737 152.55 207.667V207.636V171.98H152.56Z" fill="#A8CFF0"/>
<path opacity="0.3" d="M146.967 207.993V174.601H149.702V208.737C149.477 208.87 147.377 208.85 146.967 208.003V207.993Z" fill="#D1EBFF"/>
<path d="M152.561 172.001C152.561 173.071 151.065 173.938 149.221 173.938C147.377 173.938 145.881 173.071 145.881 172.001C145.881 170.93 147.377 170.064 149.221 170.064C151.065 170.064 152.561 170.93 152.561 172.001Z" fill="#D1EBFF"/>
<path opacity="0.3" d="M148.647 211.674C147.407 211.582 146.321 211.215 145.573 210.685V220.147C145.768 220.422 146.721 221.177 148.288 221.177C148.411 221.177 148.534 221.177 148.647 221.156V211.664V211.674Z" fill="#D1EBFF"/>
<path d="M140.624 191.781L168.521 139.842L168.511 137.436L136.392 120.296L108.454 170.583L108.495 173.112L140.624 191.781Z" fill="#A8CFF0"/>
<path d="M140.623 189.232L168.52 137.283L136.392 118.614L108.494 170.553L140.623 189.232Z" fill="#D1EBFF"/>
<path d="M122.388 139.006C122.306 139.006 122.224 138.986 122.142 138.945C121.896 138.812 121.794 138.506 121.927 138.252L122.89 136.457C123.023 136.202 123.341 136.11 123.587 136.243C123.832 136.375 123.935 136.681 123.802 136.936L122.839 138.731C122.747 138.904 122.572 138.996 122.388 138.996V139.006ZM124.806 134.51C124.724 134.51 124.642 134.489 124.56 134.448C124.314 134.316 124.212 134.01 124.345 133.755L125.308 131.961C125.441 131.706 125.748 131.614 126.004 131.746C126.25 131.879 126.353 132.185 126.22 132.44L125.257 134.234C125.164 134.408 124.99 134.499 124.806 134.499V134.51ZM127.224 130.013C127.142 130.013 127.06 129.993 126.978 129.952C126.732 129.819 126.629 129.513 126.763 129.259L127.726 127.464C127.859 127.209 128.166 127.128 128.422 127.25C128.668 127.382 128.771 127.688 128.637 127.943L127.674 129.738C127.582 129.911 127.408 130.003 127.224 130.003V130.013ZM129.641 125.517C129.559 125.517 129.478 125.496 129.396 125.455C129.15 125.323 129.047 125.017 129.18 124.762L130.143 122.967C130.277 122.713 130.584 122.621 130.84 122.753C131.086 122.886 131.188 123.192 131.055 123.447L130.092 125.241C130 125.415 129.826 125.506 129.641 125.506V125.517ZM148.39 121.336C148.298 121.336 148.216 121.316 148.134 121.265L146.361 120.235C146.116 120.092 146.034 119.776 146.177 119.542C146.32 119.297 146.638 119.215 146.874 119.358L148.646 120.388C148.892 120.531 148.974 120.847 148.831 121.081C148.738 121.244 148.564 121.336 148.39 121.336ZM132.049 121.02C131.967 121.02 131.885 121 131.803 120.959C131.557 120.826 131.455 120.52 131.588 120.266L132.551 118.471C132.684 118.216 133.002 118.135 133.248 118.257C133.494 118.389 133.596 118.695 133.463 118.95L132.5 120.745C132.408 120.918 132.233 121.01 132.049 121.01V121.02ZM143.964 118.767C143.872 118.767 143.79 118.746 143.708 118.695L141.936 117.666C141.69 117.523 141.608 117.207 141.751 116.972C141.895 116.727 142.212 116.646 142.448 116.789L144.22 117.818C144.466 117.961 144.548 118.277 144.405 118.512C144.312 118.675 144.138 118.767 143.964 118.767ZM134.467 116.524C134.385 116.524 134.303 116.503 134.221 116.462C133.975 116.33 133.873 116.024 134.006 115.769L134.969 113.974C135.102 113.72 135.409 113.638 135.666 113.76C135.911 113.893 136.014 114.199 135.881 114.454L134.918 116.248C134.825 116.422 134.651 116.513 134.467 116.513V116.524ZM139.548 116.197C139.456 116.197 139.374 116.177 139.292 116.126L137.52 115.096C137.274 114.953 137.192 114.637 137.336 114.403C137.479 114.158 137.797 114.076 138.032 114.219L139.805 115.249C140.05 115.392 140.132 115.708 139.989 115.942C139.897 116.105 139.723 116.197 139.548 116.197Z" fill="#FFD70F"/>
<path d="M165.068 138.466L137.263 122.58L112.173 169.87L139.978 185.755L165.068 138.466Z" fill="#2672AB"/>
<path d="M137.263 123.171L164.833 138.914L165.068 138.466L137.263 122.58L112.173 169.87L112.408 170.013L137.263 123.171Z" fill="#03336E"/>
<g opacity="0.2">
<path d="M116.241 172.093L141.331 124.813L140.747 124.477L115.646 171.766L116.241 172.093Z" fill="#D1EBFF"/>
<path d="M119.734 174.101L144.824 126.822L144.24 126.485L119.14 173.775L119.734 174.101Z" fill="#D1EBFF"/>
<path d="M123.227 176.1L148.317 128.82L147.723 128.484L122.633 175.773L123.227 176.1Z" fill="#D1EBFF"/>
<path d="M126.711 178.108L151.801 130.829L151.217 130.492L126.127 177.782L126.711 178.108Z" fill="#D1EBFF"/>
<path d="M130.204 180.117L155.294 132.827L154.71 132.501L129.62 179.791L130.204 180.117Z" fill="#D1EBFF"/>
<path d="M133.699 182.115L158.789 134.836L158.205 134.499L133.104 181.789L133.699 182.115Z" fill="#D1EBFF"/>
<path d="M137.192 184.124L162.282 136.844L161.698 136.508L136.598 183.798L137.192 184.124Z" fill="#D1EBFF"/>
</g>
<g opacity="0.2">
<path d="M163.121 142.106L163.541 141.596L135.767 125.619L135.347 126.128L163.121 142.106Z" fill="#D1EBFF"/>
<path d="M161.166 145.807L161.576 145.297L133.812 129.32L133.392 129.84L161.166 145.807Z" fill="#D1EBFF"/>
<path d="M159.199 149.518L159.619 149.009L131.855 133.031L131.435 133.541L159.199 149.518Z" fill="#D1EBFF"/>
<path d="M157.241 153.22L157.661 152.71L129.887 136.732L129.467 137.242L157.241 153.22Z" fill="#D1EBFF"/>
<path d="M155.285 156.931L155.705 156.411L127.931 140.444L127.511 140.954L155.285 156.931Z" fill="#D1EBFF"/>
<path d="M153.328 160.632L153.738 160.122L125.974 144.145L125.554 144.655L153.328 160.632Z" fill="#D1EBFF"/>
<path d="M151.36 164.333L151.78 163.824L124.016 147.846L123.596 148.356L151.36 164.333Z" fill="#D1EBFF"/>
<path d="M149.404 168.045L149.824 167.525L122.05 151.558L121.63 152.067L149.404 168.045Z" fill="#D1EBFF"/>
<path d="M147.448 171.746L147.868 171.236L120.094 155.259L119.674 155.769L147.448 171.746Z" fill="#D1EBFF"/>
<path d="M145.48 175.447L145.9 174.937L118.136 158.96L117.716 159.48L145.48 175.447Z" fill="#D1EBFF"/>
<path d="M143.523 179.158L143.943 178.638L116.169 162.671L115.759 163.181L143.523 179.158Z" fill="#D1EBFF"/>
<path d="M141.566 182.86L141.986 182.35L114.212 166.373L113.792 166.882L141.566 182.86Z" fill="#D1EBFF"/>
</g>
<path d="M140.624 189.232V191.781L168.521 139.842L168.511 137.436L140.624 189.232Z" fill="#72B5E8"/>
<path d="M173.47 210.736L201.357 158.797L201.347 156.39L169.228 139.251L141.29 189.538L141.331 192.067L173.47 210.736Z" fill="#A8CFF0"/>
<path d="M173.47 208.187L201.357 156.238L169.228 137.568L141.331 189.508L173.47 208.187Z" fill="#D1EBFF"/>
<path d="M197.914 157.42L170.099 141.535L145.009 188.824L172.814 204.71L197.914 157.42Z" fill="#2672AB"/>
<path d="M170.099 142.126L197.669 157.869L197.914 157.42L170.099 141.535L145.009 188.824L145.244 188.967L170.099 142.126Z" fill="#03336E"/>
<g opacity="0.2">
<path d="M149.077 191.047L174.167 143.768L173.583 143.431L148.482 190.721L149.077 191.047Z" fill="#D1EBFF"/>
<path d="M152.57 193.056L177.66 145.776L177.076 145.44L151.976 192.73L152.57 193.056Z" fill="#D1EBFF"/>
<path d="M156.064 195.054L181.154 147.775L180.56 147.438L155.47 194.728L156.064 195.054Z" fill="#D1EBFF"/>
<path d="M159.557 197.063L184.647 149.783L184.053 149.447L158.963 196.737L159.557 197.063Z" fill="#D1EBFF"/>
<path d="M163.041 199.072L188.131 151.782L187.547 151.456L162.457 198.745L163.041 199.072Z" fill="#D1EBFF"/>
<path d="M166.534 201.07L191.624 153.79L191.04 153.454L165.95 200.744L166.534 201.07Z" fill="#D1EBFF"/>
<path d="M170.028 203.079L195.118 155.799L194.534 155.463L169.434 202.752L170.028 203.079Z" fill="#D1EBFF"/>
</g>
<g opacity="0.2">
<path d="M195.957 161.06L196.377 160.551L168.603 144.573L168.183 145.083L195.957 161.06Z" fill="#D1EBFF"/>
<path d="M194.002 164.761L194.422 164.252L166.648 148.274L166.228 148.794L194.002 164.761Z" fill="#D1EBFF"/>
<path d="M192.036 168.473L192.456 167.963L164.692 151.986L164.271 152.496L192.036 168.473Z" fill="#D1EBFF"/>
<path d="M190.077 172.174L190.497 171.664L162.722 155.687L162.312 156.197L190.077 172.174Z" fill="#D1EBFF"/>
<path d="M188.121 175.875L188.541 175.365L160.767 159.398L160.347 159.908L188.121 175.875Z" fill="#D1EBFF"/>
<path d="M186.164 179.587L186.574 179.077L158.81 163.1L158.39 163.609L186.164 179.587Z" fill="#D1EBFF"/>
<path d="M184.196 183.288L184.616 182.778L156.852 166.801L156.432 167.311L184.196 183.288Z" fill="#D1EBFF"/>
<path d="M182.241 186.999L182.661 186.479L154.886 170.512L154.477 171.022L182.241 186.999Z" fill="#D1EBFF"/>
<path d="M180.284 190.7L180.704 190.191L152.93 174.213L152.51 174.723L180.284 190.7Z" fill="#D1EBFF"/>
<path d="M178.326 194.402L178.736 193.892L150.972 177.915L150.552 178.435L178.326 194.402Z" fill="#D1EBFF"/>
<path d="M176.36 198.113L176.78 197.593L149.016 181.626L148.596 182.136L176.36 198.113Z" fill="#D1EBFF"/>
<path d="M174.402 201.814L174.822 201.304L147.048 185.327L146.628 185.837L174.402 201.814Z" fill="#D1EBFF"/>
</g>
<path d="M173.471 208.187V210.736L201.358 158.797L201.348 156.39L173.471 208.187Z" fill="#72B5E8"/>
</svg>
