<svg width="320" height="288" viewBox="0 0 320 288" fill="none" xmlns="http://www.w3.org/2000/svg">
<path d="M101.959 60.4642C110.937 51.4861 110.937 36.9299 101.959 27.9519C92.9809 18.9738 78.4246 18.9738 69.4466 27.9519C60.4686 36.9299 60.4686 51.4861 69.4466 60.4642C78.4246 69.4422 92.9809 69.4422 101.959 60.4642Z" fill="#F5F5F5"/>
<path d="M71.0636 133.489C79.9361 124.617 79.9361 110.231 71.0636 101.359C62.191 92.4864 47.8058 92.4864 38.9333 101.359C30.0608 110.231 30.0608 124.617 38.9333 133.489C47.8058 142.362 62.191 142.362 71.0636 133.489Z" fill="#F5F5F5"/>
<path d="M192.249 262.284C202.994 262.284 211.704 253.573 211.704 242.828C211.704 232.083 202.994 223.373 192.249 223.373C181.504 223.373 172.793 232.083 172.793 242.828C172.793 253.573 181.504 262.284 192.249 262.284Z" fill="#F5F5F5"/>
<path d="M290.38 211.91C294.101 188.427 278.081 166.373 254.597 162.652C231.113 158.931 209.06 174.952 205.339 198.436C201.618 221.919 217.639 243.973 241.122 247.694C264.606 251.415 286.659 235.394 290.38 211.91Z" fill="#F5F5F5"/>
<path d="M289.345 132.564C293.084 141.697 288.711 152.13 279.579 155.869C270.446 159.608 260.013 155.235 256.274 146.102C252.535 136.97 256.908 126.536 266.041 122.797C275.173 119.059 285.607 123.431 289.345 132.564Z" fill="#F5F5F5"/>
<g opacity="0.1">
<path d="M266.041 122.797C256.908 126.536 252.535 136.969 256.274 146.102C256.274 146.102 268.106 141.866 268.986 136.042C269.866 130.218 266.041 122.797 266.041 122.797Z" fill="white"/>
</g>
<path d="M285.011 134.032C287.854 140.975 284.53 148.906 277.587 151.749C270.644 154.591 262.713 151.267 259.871 144.324C257.029 137.381 260.352 129.45 267.295 126.608C274.238 123.766 282.169 127.09 285.011 134.032Z" fill="#E0E0E0"/>
<path d="M285.581 134.411C288.385 141.261 285.105 149.085 278.256 151.889C271.406 154.693 263.581 151.414 260.777 144.564C257.973 137.715 261.252 129.89 268.102 127.086C274.952 124.282 282.777 127.562 285.581 134.411Z" fill="#EBEBEB"/>
<path d="M273.233 138.21L271.934 135.037C271.939 135.035 271.944 135.033 271.95 135.031C272.527 134.869 273.158 134.783 273.816 134.78C274.387 134.831 274.809 134.955 274.809 134.955L274.811 134.84L274.833 133.497L274.838 133.188L274.03 132.826L273.807 133.06C272.971 132.997 272.07 133.048 271.237 133.338L270.523 131.592L269.801 131.377L269.98 131.815L269.234 132.12L269.961 133.896C267.605 135.136 267.015 137.011 267.671 138.615C268.566 140.8 270.668 140.6 272.587 140.31L273.873 143.454C272.633 143.833 271.268 143.86 270.24 143.547L270.182 145.424C271.29 145.797 272.989 145.688 274.568 145.152L275.107 146.469L274.498 146.731L275.282 146.897L276.571 146.369L275.85 144.608C278.215 143.347 278.828 141.481 278.172 139.877C277.279 137.692 275.152 137.92 273.233 138.21ZM271.809 138.408C270.788 138.514 269.97 138.444 269.661 137.69C269.378 136.998 269.618 136.24 270.663 135.609L271.809 138.408ZM275.151 142.895L274.012 140.112C275.064 139.993 275.904 140.072 276.22 140.842C276.496 141.518 276.228 142.252 275.151 142.895Z" fill="#E0E0E0"/>
<path d="M275.142 144.396L275.864 146.157L274.574 146.685L273.86 144.939C272.28 145.476 270.58 145.584 269.473 145.211L269.531 143.334C270.559 143.647 271.925 143.621 273.165 143.241L271.878 140.097C269.958 140.387 267.856 140.587 266.961 138.401C266.305 136.797 266.895 134.922 269.252 133.682L268.524 131.906L269.813 131.378L270.527 133.123C271.717 132.71 273.037 132.573 274.112 132.776L274.117 134.628C273.084 134.482 272.094 134.575 271.223 134.821L272.523 137.997C274.442 137.708 276.57 137.479 277.464 139.664C278.121 141.267 277.508 143.134 275.142 144.396ZM271.099 138.194L269.953 135.396C268.908 136.025 268.668 136.784 268.951 137.476C269.26 138.231 270.078 138.3 271.099 138.194ZM275.51 140.629C275.195 139.859 274.355 139.781 273.302 139.899L274.441 142.683C275.519 142.039 275.787 141.305 275.51 140.629Z" fill="#F5F5F5"/>
<path d="M268.574 139.276C268.571 139.289 268.355 139.25 268.06 139.063C267.768 138.881 267.407 138.525 267.219 138.018C267.033 137.511 267.078 137.006 267.182 136.677C267.285 136.344 267.424 136.174 267.434 136.182C267.454 136.193 267.348 136.377 267.273 136.702C267.196 137.022 267.17 137.498 267.344 137.972C267.519 138.446 267.847 138.791 268.114 138.985C268.382 139.184 268.582 139.255 268.574 139.276Z" fill="white"/>
<path d="M269.411 133.313C269.377 133.327 269.254 133.107 269.138 132.821C269.021 132.535 268.954 132.293 268.988 132.279C269.022 132.265 269.145 132.485 269.262 132.771C269.378 133.057 269.445 133.299 269.411 133.313Z" fill="white"/>
<path d="M268.299 125.819C268.301 125.828 268.155 125.881 267.888 125.969C267.755 126.011 267.592 126.065 267.407 126.139C267.221 126.211 267.007 126.283 266.779 126.387C266.548 126.485 266.296 126.593 266.034 126.727C265.767 126.851 265.495 127.009 265.205 127.168C264.636 127.503 264.029 127.906 263.432 128.381C262.839 128.862 262.315 129.368 261.865 129.852C261.647 130.1 261.434 130.332 261.256 130.567C261.068 130.793 260.908 131.016 260.763 131.22C260.611 131.42 260.495 131.614 260.385 131.78C260.273 131.944 260.186 132.092 260.116 132.213C259.973 132.454 259.89 132.586 259.882 132.582C259.873 132.578 259.941 132.438 260.071 132.188C260.134 132.062 260.216 131.91 260.322 131.74C260.427 131.57 260.539 131.371 260.686 131.166C260.827 130.957 260.984 130.73 261.17 130.498C261.346 130.259 261.557 130.022 261.775 129.769C262.224 129.276 262.751 128.763 263.349 128.277C263.952 127.798 264.567 127.394 265.145 127.062C265.439 126.903 265.715 126.748 265.987 126.628C266.253 126.497 266.508 126.392 266.743 126.3C266.974 126.2 267.193 126.134 267.382 126.068C267.571 126.001 267.736 125.954 267.874 125.919C268.145 125.846 268.297 125.81 268.299 125.819Z" fill="white"/>
<path d="M206.824 33.2726C206.627 44.6837 197.217 53.7753 185.805 53.5783C174.393 53.3813 165.302 43.9706 165.499 32.5595C165.696 21.1478 175.106 12.0567 186.518 12.2537C197.93 12.4502 207.021 21.8603 206.824 33.2726Z" fill="#F5F5F5"/>
<g opacity="0.1">
<path d="M186.519 12.2532C175.107 12.0563 165.697 21.1467 165.5 32.559C165.5 32.559 180.008 33.4593 183.601 27.6722C187.195 21.8857 186.519 12.2532 186.519 12.2532Z" fill="white"/>
</g>
<path d="M201.548 32.8539C201.398 41.5296 194.245 48.4399 185.569 48.2907C176.894 48.1409 169.983 40.987 170.133 32.3119C170.283 23.6362 177.436 16.7253 186.112 16.8757C194.787 17.0248 201.697 24.1788 201.548 32.8539Z" fill="#E0E0E0"/>
<path d="M201.981 33.5163C201.833 42.0751 194.775 48.8932 186.217 48.7457C177.657 48.5977 170.84 41.54 170.988 32.9812C171.136 24.4224 178.193 17.6043 186.752 17.7517C195.31 17.8998 202.128 24.9575 201.981 33.5163Z" fill="#EBEBEB"/>
<path d="M187.124 31.9156L187.192 27.951C187.199 27.951 187.205 27.9516 187.212 27.951C187.899 28.0426 188.609 28.2384 189.31 28.5368C189.894 28.8524 190.286 29.1761 190.286 29.1761L190.341 29.0546L190.977 27.6376L191.124 27.3116L190.43 26.5571L190.087 26.7045C189.229 26.2558 188.246 25.8981 187.23 25.8261L187.267 23.6454L186.598 23.0867L186.589 23.6339L185.657 23.6177L185.618 25.8376C182.549 26.0795 181.065 27.8024 181.03 29.8063C180.983 32.5365 183.308 33.2842 185.48 33.8521L185.412 37.7804C183.921 37.6168 182.458 37.0224 181.509 36.22L180.591 38.1888C181.597 39.0908 183.452 39.7515 185.375 39.9024L185.347 41.5486H184.58L185.337 42.0826L186.948 42.1102L186.986 39.9099C190.075 39.649 191.579 37.9457 191.613 35.9418C191.66 33.2122 189.295 32.4835 187.124 31.9156ZM185.52 31.4755C184.387 31.1219 183.549 30.6755 183.566 29.732C183.581 28.868 184.182 28.171 185.581 27.9792L185.52 31.4755ZM187.022 37.7695L187.082 34.2927C188.255 34.647 189.112 35.1135 189.095 36.076C189.08 36.921 188.46 37.5782 187.022 37.7695Z" fill="#E0E0E0"/>
<path d="M186.329 39.3604L186.291 41.5613L184.68 41.5336L184.717 39.3529C182.794 39.2014 180.938 38.5407 179.932 37.6387L180.85 35.67C181.799 36.4723 183.263 37.0673 184.753 37.2309L184.821 33.3014C182.65 32.7335 180.324 31.9859 180.371 29.255C180.406 27.2511 181.889 25.5272 184.96 25.2858L184.998 23.0659L186.609 23.0936L186.572 25.2743C188.024 25.378 189.49 25.8359 190.54 26.5415L189.7 28.512C188.67 27.8847 187.575 27.5322 186.535 27.3963L186.467 31.3649C188.638 31.9329 191.004 32.6615 190.957 35.3923C190.922 37.3962 189.418 39.0995 186.329 39.3604ZM184.863 30.9243L184.923 27.4274C183.525 27.6192 182.923 28.3167 182.908 29.1807C182.892 30.1236 183.729 30.5706 184.863 30.9243ZM188.439 35.526C188.455 34.5629 187.599 34.0969 186.425 33.7421L186.366 37.2194C187.804 37.0282 188.424 36.3704 188.439 35.526Z" fill="#F5F5F5"/>
<path d="M181.687 30.9214C181.677 30.9341 181.466 30.7935 181.238 30.4606C181.011 30.1334 180.789 29.5903 180.821 28.9665C180.855 28.3427 181.134 27.8254 181.393 27.5247C181.656 27.2177 181.88 27.1002 181.888 27.1135C181.905 27.1342 181.707 27.2811 181.479 27.5916C181.251 27.8968 181.007 28.391 180.975 28.9745C180.945 29.558 181.136 30.0747 181.33 30.4024C181.525 30.7354 181.705 30.9024 181.687 30.9214Z" fill="white"/>
<path d="M185.299 24.9667C185.256 24.9661 185.227 24.6758 185.233 24.3193C185.24 23.9627 185.279 23.6736 185.321 23.6747C185.364 23.6753 185.393 23.9651 185.388 24.3222C185.381 24.6787 185.341 24.9673 185.299 24.9667Z" fill="white"/>
<path d="M187.538 16.4955C187.537 16.5059 187.357 16.4955 187.034 16.4667C186.872 16.4506 186.675 16.4333 186.444 16.4269C186.215 16.4189 185.953 16.397 185.663 16.4039C185.374 16.4028 185.057 16.4028 184.717 16.4264C184.377 16.4356 184.015 16.4788 183.635 16.5162C182.877 16.6124 182.048 16.7633 181.197 16.9955C180.347 17.2357 179.56 17.534 178.86 17.8428C178.515 18.0069 178.183 18.1567 177.887 18.3243C177.584 18.4792 177.312 18.6428 177.065 18.7932C176.814 18.9366 176.601 19.0898 176.408 19.2154C176.214 19.3398 176.054 19.4561 175.924 19.5535C175.662 19.7441 175.513 19.8461 175.506 19.838C175.499 19.83 175.635 19.7119 175.887 19.5057C176.012 19.4008 176.167 19.2764 176.358 19.1451C176.547 19.012 176.757 18.8513 177.007 18.701C177.253 18.5432 177.523 18.3733 177.826 18.212C178.122 18.038 178.455 17.8831 178.801 17.7137C179.504 17.3946 180.298 17.0899 181.156 16.8469C182.015 16.6124 182.853 16.4638 183.619 16.3751C184.003 16.3411 184.368 16.3031 184.712 16.2991C185.054 16.2806 185.374 16.287 185.666 16.2956C185.957 16.2956 186.22 16.325 186.451 16.3417C186.682 16.3561 186.88 16.382 187.041 16.4079C187.362 16.454 187.539 16.4851 187.538 16.4955Z" fill="white"/>
<path d="M86.1537 168.895C90.1154 181.075 83.4534 194.161 71.2733 198.123C59.0926 202.084 46.0076 195.422 42.0459 183.242C38.0842 171.061 44.7462 157.976 56.9269 154.014C69.1064 150.053 82.192 156.715 86.1537 168.895Z" fill="#F5F5F5"/>
<g opacity="0.1">
<path d="M56.9259 154.014C44.7452 157.976 38.0832 171.061 42.0449 183.242C42.0449 183.242 57.7674 178.895 59.4655 171.441C61.1641 163.988 56.9259 154.014 56.9259 154.014Z" fill="white"/>
</g>
<path d="M80.4017 170.38C83.4136 179.639 78.3494 189.587 69.0896 192.599C59.8293 195.611 49.8823 190.546 46.8704 181.286C43.8585 172.026 48.9227 162.079 58.1831 159.067C67.4429 156.055 77.3898 161.12 80.4017 170.38Z" fill="#E0E0E0"/>
<path d="M81.1033 170.925C84.0749 180.06 79.0781 189.874 69.9427 192.845C60.8068 195.817 50.9935 190.82 48.0219 181.685C45.0503 172.549 50.0465 162.736 59.1825 159.764C68.3178 156.792 78.1317 161.789 81.1033 170.925Z" fill="#EBEBEB"/>
<path d="M64.7549 174.656L63.3782 170.424C63.3851 170.422 63.3921 170.42 63.399 170.417C64.1616 170.263 64.987 170.211 65.8389 170.272C66.5739 170.393 67.1084 170.594 67.1084 170.594L67.1217 170.445L67.2789 168.709L67.3152 168.31L66.3032 167.763L65.9933 168.045C64.9179 167.882 63.7451 167.862 62.6398 168.157L61.8829 165.829L60.9682 165.481L61.1583 166.065L60.1636 166.389L60.9343 168.758C57.7657 170.137 56.821 172.507 57.5169 174.646C58.465 177.56 61.2056 177.503 63.7169 177.312L65.0809 181.506C63.4393 181.877 61.6692 181.781 60.3692 181.276L60.1146 183.701C61.512 184.29 63.7221 184.313 65.8176 183.77L66.389 185.528L65.5751 185.808L66.5745 186.098L68.2938 185.539L67.53 183.19C70.7124 181.784 71.6853 179.428 70.9895 177.289C70.0414 174.374 67.2657 174.465 64.7549 174.656ZM62.8921 174.775C61.5598 174.814 60.508 174.646 60.1809 173.64C59.8808 172.718 60.2644 171.758 61.6785 171.043L62.8921 174.775ZM63.3771 170.421C63.3771 170.421 63.3771 170.421 63.3771 170.421V170.421ZM66.787 180.904L65.5797 177.193C66.9535 177.141 68.0329 177.323 68.367 178.35C68.6602 179.251 68.242 180.176 66.787 180.904Z" fill="#E0E0E0"/>
<path d="M66.6318 182.846L67.3956 185.195L65.6762 185.754L64.9188 183.427C62.8227 183.969 60.612 183.946 59.2146 183.357L59.4698 180.933C60.7704 181.437 62.5405 181.533 64.1821 181.162L62.8181 176.968C60.3061 177.159 57.5655 177.216 56.6174 174.301C55.9216 172.162 56.8663 169.791 60.0349 168.413L59.2642 166.043L60.9835 165.484L61.741 167.811C63.3204 167.39 65.0426 167.34 66.4141 167.706L66.243 170.103C64.9205 169.815 63.6297 169.84 62.4777 170.075L63.8555 174.311C66.3674 174.121 69.1437 174.029 70.0912 176.944C70.7882 179.083 69.8148 181.44 66.6318 182.846ZM61.9933 174.431L60.779 170.698C59.3655 171.413 58.9819 172.373 59.282 173.295C59.6092 174.302 60.661 174.469 61.9933 174.431ZM67.4693 178.006C67.1352 176.978 66.0558 176.796 64.6814 176.849L65.8887 180.56C67.3449 179.832 67.7625 178.907 67.4693 178.006Z" fill="#F5F5F5"/>
<path d="M58.6221 175.588C58.6169 175.605 58.341 175.534 57.9775 175.264C57.6175 175 57.1832 174.504 56.9897 173.83C56.7973 173.156 56.9039 172.506 57.0697 172.092C57.2351 171.67 57.4309 171.463 57.4441 171.475C57.4695 171.49 57.314 171.718 57.1849 172.132C57.0548 172.54 56.9759 173.153 57.1556 173.783C57.3364 174.413 57.7275 174.891 58.0541 175.169C58.3825 175.45 58.6353 175.561 58.6221 175.588Z" fill="white"/>
<path d="M60.2776 167.95C60.2321 167.964 60.095 167.667 59.9712 167.287C59.8473 166.906 59.784 166.586 59.8289 166.571C59.8744 166.556 60.0115 166.853 60.1353 167.234C60.2597 167.614 60.3231 167.935 60.2776 167.95Z" fill="white"/>
<path d="M59.5581 158.143C59.5604 158.155 59.3657 158.209 59.0126 158.297C58.8352 158.338 58.6198 158.393 58.3727 158.47C58.1256 158.545 57.8405 158.618 57.5358 158.731C57.2282 158.835 56.8918 158.951 56.5399 159.1C56.1822 159.235 55.8147 159.412 55.4247 159.591C54.6552 159.97 53.8315 160.433 53.0125 160.991C52.1986 161.556 51.4717 162.161 50.8427 162.744C50.5368 163.045 50.2396 163.325 49.9861 163.61C49.7212 163.886 49.4925 164.158 49.2852 164.409C49.0703 164.653 48.901 164.894 48.742 165.097C48.5813 165.3 48.454 165.482 48.352 165.633C48.1435 165.931 48.0231 166.094 48.0133 166.087C48.0036 166.081 48.1044 165.906 48.2962 165.595C48.3901 165.439 48.5104 165.25 48.6642 165.041C48.8163 164.83 48.9799 164.583 49.1907 164.332C49.3934 164.075 49.6181 163.796 49.8807 163.514C50.1313 163.222 50.4274 162.935 50.7332 162.629C51.3616 162.034 52.0926 161.42 52.9145 160.849C53.7411 160.286 54.5757 159.822 55.3562 159.448C55.7519 159.272 56.1246 159.098 56.4875 158.968C56.8446 158.823 57.1856 158.713 57.4983 158.615C57.8076 158.509 58.0974 158.444 58.3479 158.377C58.5985 158.308 58.818 158.263 58.9977 158.231C59.3565 158.163 59.5558 158.131 59.5581 158.143Z" fill="white"/>
<path d="M285.466 94.532C287.159 99.7355 284.312 105.326 279.109 107.018C273.905 108.711 268.315 105.865 266.622 100.661C264.93 95.457 267.776 89.8669 272.98 88.1746C278.183 86.4818 283.773 89.3278 285.466 94.532Z" fill="#F5F5F5"/>
<g opacity="0.1">
<path d="M272.979 88.1741C267.775 89.8669 264.929 95.457 266.622 100.661C266.622 100.661 273.339 98.803 274.064 95.6189C274.79 92.4348 272.979 88.1741 272.979 88.1741Z" fill="white"/>
</g>
<path d="M283.009 95.1661C284.296 99.1221 282.132 103.372 278.176 104.659C274.22 105.945 269.971 103.781 268.684 99.8254C267.397 95.8694 269.561 91.6197 273.517 90.3329C277.473 89.0461 281.722 91.2102 283.009 95.1661Z" fill="#E0E0E0"/>
<path d="M283.308 95.3989C284.578 99.3018 282.443 103.495 278.54 104.764C274.637 106.034 270.445 103.899 269.175 99.9959C267.906 96.0929 270.04 91.9002 273.943 90.6307C277.846 89.3612 282.039 91.4959 283.308 95.3989Z" fill="#EBEBEB"/>
<path d="M276.324 96.9932L275.736 95.1851C275.738 95.184 275.741 95.1834 275.744 95.1823C276.07 95.1166 276.423 95.0947 276.787 95.1201C277.101 95.1719 277.329 95.2577 277.329 95.2577L277.335 95.1944L277.403 94.4525L277.418 94.282L276.986 94.0481L276.854 94.1685C276.394 94.0994 275.893 94.0908 275.421 94.2163L275.098 93.2221L274.707 93.0735L274.789 93.3229L274.364 93.4612L274.693 94.4732C273.339 95.0619 272.936 96.0751 273.233 96.9886C273.638 98.2339 274.809 98.2091 275.881 98.1279L276.464 99.9193C275.763 100.078 275.007 100.037 274.451 99.8214L274.342 100.857C274.939 101.109 275.883 101.119 276.779 100.887L277.023 101.637L276.675 101.757L277.102 101.881L277.836 101.642L277.51 100.639C278.87 100.038 279.285 99.0311 278.988 98.1176C278.582 96.8723 277.397 96.9114 276.324 96.9932ZM275.528 97.0439C274.959 97.0606 274.51 96.9886 274.37 96.5589C274.242 96.1649 274.406 95.7548 275.01 95.4495L275.528 97.0439ZM277.192 99.6624L276.676 98.0767C277.263 98.0542 277.724 98.132 277.867 98.5709C277.992 98.9562 277.814 99.3508 277.192 99.6624Z" fill="#E0E0E0"/>
<path d="M277.126 100.492L277.452 101.495L276.718 101.734L276.394 100.74C275.499 100.971 274.554 100.961 273.957 100.71L274.066 99.6739C274.622 99.8893 275.378 99.9308 276.079 99.7718L275.496 97.9799C274.423 98.0617 273.252 98.0859 272.847 96.8406C272.55 95.9265 272.953 94.9138 274.307 94.3246L273.978 93.312L274.712 93.073L275.036 94.0671C275.71 93.8874 276.447 93.8661 277.032 94.0222L276.959 95.0463C276.394 94.9231 275.843 94.934 275.35 95.0348L275.939 96.8446C277.012 96.7628 278.198 96.7242 278.603 97.969C278.901 98.8842 278.486 99.8911 277.126 100.492ZM275.144 96.8964L274.625 95.3015C274.021 95.6068 273.857 96.0169 273.985 96.4109C274.125 96.8412 274.575 96.9132 275.144 96.8964ZM277.483 98.424C277.341 97.9851 276.88 97.9073 276.292 97.9298L276.808 99.5155C277.43 99.2039 277.608 98.8093 277.483 98.424Z" fill="#F5F5F5"/>
<path d="M273.704 97.3912C273.701 97.3981 273.584 97.3676 273.428 97.2524C273.274 97.1395 273.089 96.9281 273.006 96.6401C272.924 96.3521 272.969 96.0745 273.04 95.8971C273.111 95.7168 273.194 95.6287 273.2 95.6339C273.211 95.6408 273.144 95.7381 273.09 95.9144C273.034 96.0883 273 96.3504 273.077 96.62C273.154 96.889 273.321 97.0934 273.461 97.2121C273.601 97.3325 273.709 97.3797 273.704 97.3912Z" fill="white"/>
<path d="M274.41 94.1276C274.391 94.1339 274.333 94.0072 274.28 93.8448C274.227 93.6818 274.2 93.5453 274.219 93.5389C274.239 93.5326 274.297 93.6593 274.35 93.8223C274.403 93.9848 274.43 94.1219 274.41 94.1276Z" fill="white"/>
<path d="M274.103 89.9384C274.105 89.9435 274.021 89.9666 273.87 90.004C273.794 90.0219 273.702 90.0449 273.597 90.0783C273.491 90.1106 273.369 90.1417 273.239 90.1901C273.108 90.2344 272.964 90.284 272.813 90.3479C272.661 90.4055 272.503 90.481 272.337 90.5576C272.008 90.7194 271.656 90.917 271.306 91.1554C270.958 91.3968 270.648 91.6554 270.38 91.9042C270.249 92.0327 270.122 92.1519 270.014 92.2746C269.9 92.3921 269.803 92.5085 269.714 92.6156C269.623 92.7199 269.55 92.823 269.482 92.9099C269.414 92.9963 269.359 93.0747 269.316 93.1386C269.226 93.2659 269.175 93.3356 269.171 93.3327C269.167 93.3298 269.21 93.2555 269.292 93.1225C269.332 93.0557 269.384 92.975 269.449 92.8852C269.514 92.7953 269.584 92.6899 269.674 92.5828C269.76 92.4728 269.857 92.3535 269.969 92.2331C270.076 92.1082 270.202 91.986 270.333 91.8547C270.601 91.6007 270.914 91.338 271.265 91.0944C271.618 90.8536 271.975 90.6555 272.308 90.4959C272.477 90.4205 272.636 90.3462 272.791 90.2909C272.944 90.2292 273.09 90.182 273.223 90.1405C273.355 90.095 273.479 90.0674 273.586 90.0386C273.693 90.0092 273.787 89.9902 273.864 89.9764C274.017 89.947 274.102 89.9332 274.103 89.9384Z" fill="white"/>
<path d="M287.983 264.873C287.983 264.956 229.905 265.023 158.278 265.023C86.6265 265.023 28.5605 264.955 28.5605 264.873C28.5605 264.791 86.6265 264.723 158.278 264.723C229.904 264.723 287.983 264.79 287.983 264.873Z" fill="#263238"/>
<path d="M246.773 218.405H240.66H122.886L118.507 42.6793L122.886 38.2994H246.773V218.405Z" fill="#E0E0E0"/>
<path d="M240.659 38.2994H116.772V218.405H240.659V38.2994Z" fill="white"/>
<path d="M240.659 218.405C240.658 217.185 240.603 144.534 240.522 38.2994L240.659 38.4365C203.033 38.4405 161.012 38.4451 116.787 38.4497H116.773L116.923 38.3C116.912 105.994 116.901 168.513 116.893 218.405L116.773 218.285C192.153 218.358 239.671 218.404 240.659 218.405C239.672 218.406 192.153 218.452 116.773 218.525H116.652V218.404C116.644 168.512 116.634 105.993 116.623 38.2988V38.149H116.773H116.787C161.012 38.1537 203.032 38.1583 240.659 38.1623H240.797V38.2994C240.716 144.534 240.661 217.185 240.659 218.405Z" fill="#263238"/>
<path d="M139.507 66.3345C144.906 66.3345 149.284 61.9571 149.284 56.5574C149.284 51.1577 144.906 46.7804 139.507 46.7804C134.107 46.7804 129.729 51.1577 129.729 56.5574C129.729 61.9571 134.107 66.3345 139.507 66.3345Z" fill="#084C94"/>
<path d="M228.904 103.252C228.904 103.335 207.195 103.402 180.422 103.402C153.639 103.402 131.935 103.334 131.935 103.252C131.935 103.169 153.639 103.102 180.422 103.102C207.195 103.102 228.904 103.169 228.904 103.252Z" fill="#E0E0E0"/>
<path d="M228.904 113.858C228.904 113.941 207.195 114.008 180.422 114.008C153.639 114.008 131.935 113.941 131.935 113.858C131.935 113.776 153.639 113.709 180.422 113.709C207.195 113.708 228.904 113.776 228.904 113.858Z" fill="#E0E0E0"/>
<path d="M145.774 110.061H138.687V126.627H145.774V110.061Z" fill="#084C94"/>
<path d="M156.762 107.422H149.675V126.627H156.762V107.422Z" fill="#084C94"/>
<path d="M167.751 97.5963H160.663V126.627H167.751V97.5963Z" fill="#084C94"/>
<path d="M178.739 105.277H171.651V126.627H178.739V105.277Z" fill="#084C94"/>
<path d="M189.727 111.258H182.64V126.627H189.727V111.258Z" fill="#084C94"/>
<path d="M222.693 111.171H215.605V126.539H222.693V111.171Z" fill="#084C94"/>
<path d="M211.705 99.7626H204.617V126.627H211.705V99.7626Z" fill="#455A64"/>
<path d="M200.716 118.855H193.628V126.627H200.716V118.855Z" fill="#084C94"/>
<path d="M228.623 126.627C228.623 126.627 228.616 126.427 228.613 126.045C228.611 125.658 228.607 125.093 228.603 124.351C228.597 122.858 228.589 120.662 228.578 117.817C228.566 112.13 228.547 103.86 228.524 93.4952L228.624 93.5948C205.129 93.6069 170.259 93.6253 131.424 93.6455H131.418L131.568 93.4957C131.566 105.019 131.564 116.192 131.563 126.627L131.418 126.482C159.417 126.509 183.698 126.533 200.987 126.549C209.638 126.567 216.539 126.581 221.283 126.59C223.653 126.598 225.483 126.605 226.728 126.609C227.345 126.613 227.815 126.616 228.138 126.618C228.456 126.621 228.623 126.627 228.623 126.627C228.623 126.627 228.469 126.634 228.156 126.636C227.837 126.639 227.372 126.642 226.763 126.646C225.525 126.65 223.705 126.656 221.349 126.664C216.613 126.674 209.724 126.688 201.086 126.705C183.772 126.722 159.457 126.745 131.417 126.772H131.272V126.627C131.27 116.191 131.268 105.019 131.267 93.4957V93.346H131.416H131.423C170.257 93.3661 205.128 93.3846 228.622 93.3967H228.722V93.4963C228.699 103.886 228.68 112.177 228.668 117.878C228.657 120.713 228.649 122.902 228.643 124.389C228.639 125.123 228.635 125.683 228.633 126.066C228.63 126.441 228.623 126.627 228.623 126.627Z" fill="#E0E0E0"/>
<path d="M228.623 134.971H131.417V141.819H228.623V134.971Z" fill="#E0E0E0"/>
<path d="M228.623 180.292C228.623 180.292 228.616 180.056 228.612 179.607C228.61 179.153 228.606 178.487 228.601 177.616C228.595 175.864 228.586 173.29 228.575 169.971C228.561 163.337 228.542 153.732 228.518 141.818L228.623 141.922C204.094 141.934 169.598 141.95 131.423 141.968H131.417L131.567 141.818C131.564 155.279 131.562 168.28 131.56 180.291L131.417 180.147C159.558 180.175 183.84 180.198 201.094 180.215C209.727 180.233 216.601 180.246 221.323 180.255C223.682 180.263 225.502 180.269 226.738 180.274C227.352 180.278 227.82 180.281 228.14 180.283C228.458 180.286 228.623 180.292 228.623 180.292C228.623 180.292 228.469 180.298 228.159 180.301C227.842 180.304 227.38 180.306 226.774 180.31C225.544 180.314 223.734 180.32 221.389 180.328C216.674 180.338 209.812 180.351 201.193 180.368C183.915 180.385 159.599 180.408 131.418 180.435H131.274V180.291C131.272 168.28 131.27 155.278 131.268 141.818V141.668H131.417H131.424C169.599 141.686 204.094 141.702 228.623 141.713H228.728V141.818C228.704 153.758 228.685 163.385 228.671 170.034C228.66 173.343 228.651 175.909 228.646 177.655C228.64 178.519 228.637 179.177 228.634 179.627C228.631 180.071 228.623 180.292 228.623 180.292Z" fill="#E0E0E0"/>
<path d="M213.556 180.707C213.473 180.707 213.406 170.48 213.406 157.867C213.406 145.249 213.474 135.024 213.556 135.024C213.639 135.024 213.706 145.249 213.706 157.867C213.706 170.48 213.638 180.707 213.556 180.707Z" fill="#E0E0E0"/>
<path d="M177.073 149.329H136.627V152.211H177.073V149.329Z" fill="#E0E0E0"/>
<path d="M225.108 149.329H216.872V152.211H225.108V149.329Z" fill="#E0E0E0"/>
<path d="M225.108 155.155H216.872V158.037H225.108V155.155Z" fill="#E0E0E0"/>
<path d="M225.108 160.98H216.872V163.862H225.108V160.98Z" fill="#E0E0E0"/>
<path d="M225.108 167.193H216.872V170.076H225.108V167.193Z" fill="#E0E0E0"/>
<path d="M156.85 155.419H136.627V158.3H156.85V155.419Z" fill="#E0E0E0"/>
<path d="M165.669 161.509H136.627V164.391H165.669V161.509Z" fill="#E0E0E0"/>
<path d="M176.109 167.599H136.627V170.482H176.109V167.599Z" fill="#E0E0E0"/>
<path d="M141.323 49.9933L135.441 58.2958H139.42L136.998 64.3496L143.572 56.3933L139.507 56.0471L141.323 49.9933Z" fill="white"/>
<path d="M229.553 186.384H128.737V189.073H229.553V186.384Z" fill="#E0E0E0"/>
<path d="M229.553 192.814H128.737V195.502H229.553V192.814Z" fill="#E0E0E0"/>
<path d="M186.162 198.942H128.737V201.631H186.162V198.942Z" fill="#E0E0E0"/>
<path d="M226.945 57.2354H182.62V61.4431H226.945V57.2354Z" fill="#E0E0E0"/>
<path d="M142.253 73.2609H131.417V77.4685H142.253V73.2609Z" fill="#E0E0E0"/>
<path d="M160.027 80.3048H131.104V84.5124H160.027V80.3048Z" fill="#E0E0E0"/>
<path d="M217.359 77.4682H228.194V73.2605H217.359V77.4682Z" fill="#E0E0E0"/>
<path d="M199.585 84.5123H228.508V80.3046H199.585V84.5123Z" fill="#E0E0E0"/>
<path d="M160.531 60.1528C160.531 61.3544 159.538 62.0594 157.67 62.0594H153.916V55.1071H157.472C159.299 55.1071 160.193 55.8518 160.193 56.9243C160.193 57.5896 159.855 58.1259 159.259 58.434C160.044 58.7128 160.531 59.3084 160.531 60.1528ZM155.863 56.5275V57.8684H157.214C157.869 57.8684 158.207 57.6403 158.207 57.1933C158.207 56.7562 157.869 56.5281 157.214 56.5281L155.863 56.5275ZM158.544 59.9339C158.544 59.457 158.186 59.2289 157.511 59.2289H155.863V60.639H157.511C158.187 60.639 158.544 60.4109 158.544 59.9339Z" fill="#263238"/>
<path d="M161.552 55.1071H163.518V62.0594H161.552V55.1071Z" fill="#263238"/>
<path d="M164.918 55.1071H166.884V60.5002H170.202V62.0594H164.918V55.1071Z" fill="#263238"/>
<path d="M170.975 55.1071H172.941V60.5002H176.258V62.0594H170.975V55.1071Z" fill="#263238"/>
<path d="M244.792 218.405C244.709 218.405 244.643 178.164 244.643 128.537C244.643 78.8918 244.71 38.66 244.792 38.66C244.875 38.66 244.942 78.8918 244.942 128.537C244.943 178.164 244.875 218.405 244.792 218.405Z" fill="#263238"/>
<path d="M215.511 26.6093V47.3407H230.225V26.6093H215.511Z" fill="#084C94"/>
<path d="M259.256 49.4375H242.412V63.7039H259.256V49.4375Z" fill="#455A64"/>
<path d="M259.255 116.888H242.69V130.989H259.255V116.888Z" fill="#455A64"/>
<path d="M259.255 83.0281H242.69V97.1291H259.255V83.0281Z" fill="#084C94"/>
<path d="M250.624 53.0139C250.624 53.0139 246.791 57.3696 248.359 60.0699C248.359 60.0699 249.056 61.8123 251.059 61.5508L250.624 53.0139Z" fill="white"/>
<path d="M250.624 53.0139C250.624 53.0139 254.847 57.2337 253.374 59.9869C253.374 59.9869 252.739 61.7524 250.728 61.5611L250.624 53.0139Z" fill="white"/>
<path d="M246.382 122.835C249.152 120.558 253.289 120.565 256.052 122.85C256.296 123.052 256.644 123.089 256.883 122.85C257.092 122.641 257.129 122.221 256.883 122.018C255.293 120.703 253.291 119.937 251.22 119.934C249.147 119.931 247.144 120.693 245.551 122.004C245.305 122.205 245.341 122.626 245.551 122.835C245.794 123.078 246.136 123.038 246.382 122.835Z" fill="white"/>
<path d="M248.324 124.898C249.981 123.545 252.456 123.55 254.109 124.907C254.354 125.108 254.7 125.147 254.941 124.907C255.149 124.699 255.187 124.278 254.941 124.075C253.889 123.212 252.588 122.7 251.219 122.698C249.849 122.697 248.546 123.205 247.493 124.066C247.247 124.267 247.284 124.689 247.493 124.898C247.736 125.141 248.078 125.099 248.324 124.898Z" fill="white"/>
<path d="M252.671 126.63C252.671 127.434 252.02 128.085 251.217 128.085C250.414 128.085 249.763 127.433 249.763 126.63C249.763 125.827 250.414 125.176 251.217 125.176C252.02 125.176 252.671 125.827 252.671 126.63Z" fill="white"/>
<path d="M256.426 95.2813H245.193V89.7356L248.062 86.2197H254.124L256.426 89.5801V95.2813ZM245.769 94.7053H255.85V89.7581L253.82 86.7957H248.336L245.769 89.9412V94.7053Z" fill="white"/>
<path d="M256.137 89.9568H250.415L247.968 86.6799L248.429 86.3349L250.704 89.3808H256.137V89.9568Z" fill="white"/>
<path d="M250.778 89.7915H250.202V95.2992H250.778V89.7915Z" fill="white"/>
<path d="M242.668 218.405C242.585 218.405 242.519 178.164 242.519 128.537C242.519 78.8918 242.586 38.66 242.668 38.66C242.751 38.66 242.818 78.8918 242.818 128.537C242.818 178.164 242.751 218.405 242.668 218.405Z" fill="#263238"/>
<path d="M124.957 49.6172C123.517 49.6172 122.346 48.4462 122.346 47.0062V36.7511C122.346 34.6366 124.066 32.9161 126.181 32.9161C128.296 32.9161 130.017 34.6366 130.017 36.7511V38.3H129.441V36.7511C129.441 34.954 127.979 33.4921 126.181 33.4921C124.384 33.4921 122.922 34.954 122.922 36.7511V47.0068C122.922 48.1288 123.835 49.0418 124.957 49.0418C126.079 49.0418 126.992 48.1288 126.992 47.0068V41.2669H127.568V47.0068C127.568 48.4462 126.397 49.6172 124.957 49.6172Z" fill="#263238"/>
<path d="M223.194 29.7153L220.176 35.2673C220.13 35.3514 220.198 35.4516 220.293 35.4401L222.715 35.1521C222.797 35.1423 222.864 35.2189 222.842 35.2996L221.875 38.9013C221.841 39.0309 222.015 39.1081 222.088 38.9952L225.549 33.6217C225.6 33.5416 225.54 33.4374 225.446 33.4408L222.904 33.5261C222.829 33.5284 222.772 33.4616 222.784 33.3884L223.413 29.7924C223.436 29.66 223.257 29.5983 223.194 29.7153Z" fill="white"/>
<path d="M70.9825 41.1206C79.4145 34.185 92.0134 34.2069 100.425 41.1644C101.17 41.7802 102.229 41.8936 102.958 41.1644C103.593 40.5297 103.707 39.2509 102.958 38.6317C98.1161 34.6268 92.0214 32.2952 85.7119 32.2865C79.4013 32.2779 73.3032 34.5963 68.4498 38.588C67.7021 39.2026 67.8127 40.4836 68.4498 41.1206C69.1894 41.8602 70.2331 41.737 70.9825 41.1206Z" fill="#455A64"/>
<path d="M76.897 47.4002C81.941 43.2812 89.4791 43.2962 94.511 47.4278C95.2581 48.0413 96.3128 48.1588 97.0437 47.4278C97.6762 46.7954 97.7948 45.5121 97.0437 44.8952C93.8417 42.2657 89.8789 40.7088 85.7092 40.703C81.5384 40.6973 77.5738 42.2467 74.3649 44.8675C73.6155 45.4798 73.7295 46.7649 74.3649 47.4002C75.1056 48.1415 76.1453 48.0142 76.897 47.4002Z" fill="#455A64"/>
<path d="M90.0178 53.675C90.5711 51.2923 89.0881 48.9123 86.7055 48.359C84.3228 47.8057 81.9428 49.2887 81.3895 51.6714C80.8362 54.054 82.3192 56.434 84.7019 56.9873C87.0845 57.5406 89.4645 56.0576 90.0178 53.675Z" fill="#455A64"/>
<path d="M203.505 236.551H200.129V245.462H203.505V236.551Z" fill="#455A64"/>
<path d="M183.133 247.256C183.096 246.882 182.83 243.539 184.718 241.203C185.473 240.269 186.874 239.156 189.267 239.156H202.617V242.857H189.267C188.326 242.857 187.652 243.121 187.207 243.664C186.437 244.605 186.398 246.295 186.448 246.867L183.133 247.256Z" fill="#455A64"/>
<path d="M188.101 244.711H181.723V248.088H188.101V244.711Z" fill="#455A64"/>
<path d="M197.247 233.724H190.533V237.765H197.247V233.724Z" fill="#455A64"/>
<path d="M196.399 236.527H191.25V240.568H196.399V236.527Z" fill="#455A64"/>
<path d="M192.965 230.999C192.965 232.303 192.965 233.607 192.965 234.91C192.965 235.394 193.391 235.858 193.89 235.835C194.391 235.813 194.815 235.428 194.815 234.91C194.815 233.607 194.815 232.303 194.815 230.999C194.815 230.515 194.389 230.052 193.89 230.074C193.389 230.096 192.965 230.481 192.965 230.999Z" fill="#455A64"/>
<path d="M187.997 231.809C191.973 231.809 195.95 231.809 199.926 231.809C201.117 231.809 201.119 229.959 199.926 229.959C195.95 229.959 191.973 229.959 187.997 229.959C186.807 229.959 186.804 231.809 187.997 231.809Z" fill="#455A64"/>
<path d="M184.683 250.114C184.683 250.114 180.512 254.852 182.219 257.791C182.219 257.791 182.977 259.686 185.157 259.402L184.683 250.114Z" fill="#455A64"/>
<path d="M184.683 250.114C184.683 250.114 189.277 254.705 187.675 257.701C187.675 257.701 186.984 259.622 184.795 259.414L184.683 250.114Z" fill="#455A64"/>
<path d="M197.347 237.737C197.347 237.819 195.831 237.886 193.961 237.886C192.091 237.886 190.575 237.819 190.575 237.737C190.575 237.654 192.091 237.587 193.961 237.587C195.831 237.587 197.347 237.654 197.347 237.737Z" fill="#263238"/>
<path d="M197.347 233.724C197.347 233.807 195.831 233.874 193.961 233.874C192.091 233.874 190.575 233.806 190.575 233.724C190.575 233.641 192.091 233.574 193.961 233.574C195.831 233.574 197.347 233.641 197.347 233.724Z" fill="#263238"/>
<path d="M199.345 231.884C199.345 231.967 196.984 232.034 194.073 232.034C191.16 232.034 188.8 231.966 188.8 231.884C188.8 231.801 191.16 231.734 194.073 231.734C196.984 231.734 199.345 231.801 199.345 231.884Z" fill="#263238"/>
<path d="M200.113 245.324C200.03 245.324 199.963 243.382 199.963 240.989C199.963 238.594 200.03 236.654 200.113 236.654C200.195 236.654 200.262 238.594 200.262 240.989C200.262 243.382 200.196 245.324 200.113 245.324Z" fill="#263238"/>
<g opacity="0.3">
<path d="M196.399 237.737H191.25V239.156H196.399V237.737Z" fill="black"/>
</g>
<path d="M187.824 244.79C187.824 244.873 186.444 244.94 184.743 244.94C183.042 244.94 181.662 244.873 181.662 244.79C181.662 244.707 183.041 244.64 184.743 244.64C186.445 244.64 187.824 244.708 187.824 244.79Z" fill="#263238"/>
<path d="M52.0746 129.019C44.6344 127.092 38.6567 118.542 39.5627 111.81C40.2061 107.027 43.517 103 46.3365 98.9482C48.6278 95.6552 50.6991 91.9089 50.7354 88.0698C50.7463 86.8821 51.9571 86.0688 53.0083 86.6218C63.6044 92.1946 70.3707 103.408 69.2768 114.123C68.8471 118.332 67.2338 122.531 63.9534 125.512C60.6731 128.492 55.5513 130.044 50.9428 128.764" fill="#084C94"/>
<path d="M45.9013 93.6392C44.2787 92.7533 43.0057 91.2465 42.4032 89.4989C41.8007 87.7513 41.8745 85.7802 42.6065 84.0828C42.7154 83.8293 42.8594 83.562 43.1146 83.4566C43.5541 83.2752 44.0051 83.6663 44.3207 84.0223C45.3737 85.2094 46.4565 86.4495 46.9047 87.9713C47.3528 89.4937 47.2624 92.823 45.9013 93.6392Z" fill="#084C94"/>
<g opacity="0.3">
<path d="M52.5416 126.869C46.4262 123.257 46.0075 117.156 45.7408 112.056C45.6913 111.106 46.8427 110.561 47.5466 111.2C48.9468 112.473 50.1628 115.076 51.1195 114.596C51.9921 114.159 52.3383 113.115 52.6027 112.175C53.5473 108.814 54.4914 105.452 55.436 102.09C55.8329 100.677 56.417 99.0599 57.8138 98.6077C58.9272 98.2466 60.1794 98.8335 60.9126 99.7453C61.6459 100.657 61.961 101.831 62.1879 102.98C63.0778 107.489 62.8699 112.257 61.2565 116.561C59.6437 120.865 56.5794 126.437 52.5416 126.869Z" fill="white"/>
</g>
<path d="M276.096 199.016C278.683 184.124 268.823 170.287 254.072 168.113C239.321 165.938 225.265 176.248 222.678 191.14C220.805 201.923 225.459 212.147 233.767 217.798C233.212 220.993 232.585 224.6 232.585 224.6L255.995 228.052C255.995 228.052 256.8 224.255 257.444 220.854C266.823 217.643 274.282 209.46 276.096 199.016Z" fill="#084C94"/>
<path d="M241.67 225.724C243.054 216.956 245.018 208.271 246.241 199.481C246.488 197.705 246.709 195.922 246.808 194.136C246.932 191.894 246.849 189.369 245.026 187.841C244.231 187.175 243.166 186.808 242.116 187.044C241.091 187.273 240.258 188.002 239.642 188.837C238.318 190.631 237.705 192.992 237.651 195.169C237.539 199.62 239.724 203.835 243.605 205.946C247.481 208.054 252.502 207.936 256.265 205.351C259.957 202.814 262.562 197.852 261.746 193.389C261.394 191.462 260.172 189.183 257.972 189.103C255.836 189.025 254.465 190.975 253.695 192.75C252.805 194.804 252.315 197.069 251.78 199.227C251.155 201.747 250.602 204.282 250.075 206.821C248.99 212.05 248.028 217.301 246.941 222.53C246.701 223.685 246.454 224.839 246.195 225.99C246.107 226.378 246.715 226.443 246.802 226.056C248.874 216.827 250.284 207.467 252.64 198.293C253.159 196.271 253.628 194.114 254.606 192.244C255.081 191.335 255.754 190.393 256.714 189.96C257.732 189.5 258.838 189.73 259.631 190.457C261.29 191.978 261.455 194.592 261.101 196.719C260.734 198.916 259.729 201.006 258.279 202.715C255.334 206.186 250.7 207.554 246.43 206.404C242.237 205.276 239.175 201.901 238.436 197.591C238.083 195.53 238.248 193.356 238.997 191.366C239.742 189.385 241.513 186.701 243.934 187.866C246.254 188.984 246.327 191.897 246.197 194.166C246.106 195.74 245.92 197.31 245.709 198.875C244.614 207.023 242.869 215.087 241.473 223.194C241.332 224.014 241.195 224.835 241.065 225.657C241.002 226.051 241.609 226.117 241.67 225.724Z" fill="white"/>
<path d="M236.844 237.311C236.844 237.311 237.693 238.08 238.135 238.904C238.364 239.332 238.792 239.614 239.275 239.685L243.986 240.375C244.514 240.452 245.056 240.265 245.428 239.866C245.863 239.398 246.587 238.876 247.257 238.837L236.844 237.311Z" fill="#455A64"/>
<path d="M234.034 223.318C234.017 223.414 233.825 231.004 233.752 233.906C233.722 235.097 234.256 236.239 235.234 236.883C235.591 237.118 236.019 237.303 236.523 237.377C238.543 237.673 246.829 238.889 246.829 238.889C246.829 238.889 249.521 239.283 250.505 237.216C251.54 235.04 254.301 226.29 254.301 226.29L234.034 223.318Z" fill="#263238"/>
<path d="M252.007 235.99L233.282 233.312C233 233.272 232.811 233.008 232.859 232.724L232.868 232.667C232.917 232.383 233.185 232.184 233.467 232.224L252.191 234.902C252.474 234.942 252.663 235.206 252.615 235.491L252.605 235.547C252.557 235.832 252.29 236.03 252.007 235.99Z" fill="#455A64"/>
<path d="M252.654 233.685L233.445 230.938C233.162 230.898 232.973 230.634 233.021 230.349L233.031 230.293C233.079 230.008 233.347 229.81 233.629 229.85L252.838 232.597C253.121 232.637 253.31 232.9 253.262 233.186L253.253 233.242C253.204 233.527 252.936 233.725 252.654 233.685Z" fill="#455A64"/>
<path d="M253.45 231.401L233.461 228.543C233.178 228.503 232.989 228.239 233.037 227.954L233.046 227.898C233.095 227.613 233.363 227.415 233.645 227.455L253.634 230.313C253.916 230.353 254.106 230.617 254.058 230.902L254.048 230.958C254 231.243 253.732 231.441 253.45 231.401Z" fill="#E0E0E0"/>
<path d="M253.449 231.401C253.441 231.383 253.625 231.452 253.855 231.263C253.968 231.171 254.044 230.994 254.037 230.787C254.029 230.585 253.86 230.357 253.587 230.341C252.479 230.19 250.895 229.973 248.943 229.706C245.014 229.151 239.605 228.387 233.631 227.543C233.475 227.519 233.309 227.591 233.214 227.72C233.124 227.844 233.093 228.038 233.141 228.178C233.191 228.326 233.325 228.435 233.479 228.455C233.662 228.482 233.845 228.508 234.027 228.534C234.755 228.639 235.472 228.742 236.177 228.842C237.586 229.046 238.945 229.242 240.24 229.429C242.827 229.806 245.157 230.146 247.118 230.432C249.067 230.723 250.648 230.958 251.753 231.123C252.291 231.207 252.713 231.273 253.012 231.32C253.148 231.343 253.256 231.361 253.339 231.376C253.412 231.39 253.45 231.398 253.449 231.401C253.449 231.404 253.41 231.402 253.336 231.394C253.252 231.384 253.143 231.372 253.006 231.356C252.706 231.317 252.282 231.262 251.742 231.192C250.634 231.041 249.05 230.824 247.098 230.557C245.135 230.281 242.802 229.955 240.213 229.591C238.917 229.408 237.557 229.215 236.148 229.015C235.443 228.915 234.726 228.813 233.998 228.709C233.816 228.684 233.633 228.658 233.449 228.631C233.235 228.603 233.043 228.449 232.974 228.241C232.938 228.139 232.933 228.02 232.953 227.919C232.966 227.821 233.006 227.704 233.074 227.617C233.206 227.435 233.441 227.333 233.661 227.367C239.632 228.231 245.037 229.014 248.964 229.582C250.913 229.872 252.493 230.108 253.599 230.273C253.898 230.296 254.09 230.56 254.09 230.783C254.093 231.006 254.003 231.197 253.878 231.29C253.758 231.389 253.638 231.411 253.563 231.414C253.486 231.415 253.449 231.401 253.449 231.401Z" fill="#263238"/>
<path d="M232.434 218.481C232.401 218.674 232.038 223.287 231.853 225.655C231.785 226.525 232.117 227.364 232.752 227.938L233.684 228.778L253.609 231.7L254.762 231.175C255.569 230.808 256.172 230.091 256.395 229.233L258.207 222.261L232.434 218.481Z" fill="#455A64"/>
<g opacity="0.3">
<path d="M233.63 233.305C235.623 234.047 237.679 234.386 239.951 234.71C241.787 234.971 243.576 235.282 245.574 235.535C247.037 235.721 248.391 235.848 249.855 236.003C250.597 236.082 251.433 236.025 251.605 235.908L233.63 233.305Z" fill="black"/>
</g>
<g opacity="0.3">
<path d="M234.031 230.982C236.024 231.724 238.081 232.063 240.353 232.387C242.187 232.648 243.978 232.959 245.975 233.212C247.438 233.397 248.792 233.526 250.257 233.68C250.998 233.759 251.834 233.702 252.006 233.585L234.031 230.982Z" fill="black"/>
</g>
<path d="M255.741 230.13C255.733 230.179 250.396 229.437 243.824 228.473C237.249 227.509 231.927 226.688 231.936 226.64C231.944 226.591 237.279 227.333 243.854 228.298C250.427 229.261 255.749 230.082 255.741 230.13Z" fill="#263238"/>
<path d="M258.09 222.107C258.082 222.161 252.284 221.379 245.14 220.36C237.993 219.341 232.207 218.472 232.215 218.418C232.222 218.364 238.02 219.146 245.166 220.165C252.31 221.184 258.097 222.053 258.09 222.107Z" fill="#263238"/>
<g opacity="0.2">
<path d="M247.338 175.235C247.501 174.086 248.449 173.014 249.699 172.225C251.486 171.097 253.642 170.787 255.668 171.221C261.628 172.495 265.463 174.983 268.814 180.382C269.948 182.211 271.103 185.437 270.619 187.684C270.375 188.813 269.732 189.846 268.747 190.457C266.183 192.046 263.299 189.988 261.787 187.669C260.378 185.508 259.401 182.893 257.224 181.517C255.431 180.384 253.165 180.324 251.13 179.697C249.094 179.07 247.034 177.379 247.338 175.235Z" fill="white"/>
</g>
<g opacity="0.2">
<path d="M266.161 195.868C267.044 194.189 269.367 193.38 270.75 193.918C271.884 194.399 272.784 195.414 273.064 196.623C273.402 198.079 272.765 199.753 271.508 200.609C270.252 201.465 268.456 201.413 267.33 200.453C266.205 199.491 265.452 197.214 266.161 195.868Z" fill="white"/>
</g>
<path d="M160.359 215.078H99.9932V270.381H160.359V215.078Z" fill="#E0E0E0"/>
<g opacity="0.3">
<path d="M160.359 215.078H99.9932V270.381H160.359V215.078Z" fill="black"/>
</g>
<path d="M40.3883 215.078H35.8701L66.7961 177.737L71.6178 179.439L40.3883 215.078Z" fill="#084C94"/>
<path d="M40.3887 215.078L69.6178 179.439L99.9932 215.078V270.381H40.3887V215.078Z" fill="#E0E0E0"/>
<g opacity="0.3">
<path d="M64.9023 180.046L99.1905 219.299H160.359V215.078L66.7968 177.737L64.9023 180.046Z" fill="black"/>
</g>
<path d="M73.8867 239.774H61.5332V270.381H73.8867V239.774Z" fill="#455A64"/>
<g opacity="0.3">
<path d="M63.2842 270.617V241.341H73.8867V239.774H61.5332V270.617H63.2842Z" fill="black"/>
</g>
<path d="M99.9935 215.078H166.441L133.57 177.737H66.7969L99.9935 215.078Z" fill="#084C94"/>
<path d="M75.1271 209.168H60.2939V226.771H75.1271V209.168Z" fill="#455A64"/>
<g opacity="0.3">
<path d="M75.1271 209.168V210.708H61.5341V226.771H60.2939V209.168H75.1271Z" fill="black"/>
</g>
<path d="M126.098 226.771H111.636V242.835H126.098V226.771Z" fill="#455A64"/>
<g opacity="0.3">
<path d="M126.098 226.771V228.177H112.845V242.834H111.636V226.771H126.098Z" fill="black"/>
</g>
<path d="M150.951 226.771H136.489V242.835H150.951V226.771Z" fill="#455A64"/>
<g opacity="0.3">
<path d="M150.951 226.771V228.177H137.698V242.834H136.489V226.771H150.951Z" fill="black"/>
</g>
<path d="M126.098 248.238H111.636V264.3H126.098V248.238Z" fill="#455A64"/>
<g opacity="0.3">
<path d="M126.098 248.238V249.643H112.845V264.3H111.636V248.238H126.098Z" fill="black"/>
</g>
<path d="M150.951 248.238H136.489V264.3H150.951V248.238Z" fill="#455A64"/>
<g opacity="0.3">
<path d="M150.951 248.238V249.643H137.698V264.3H136.489V248.238H150.951Z" fill="black"/>
</g>
<path d="M108.627 208.255C108.564 208.255 108.5 208.255 108.436 208.255C108.238 208.248 108.053 208.289 107.882 208.379C107.703 208.437 107.549 208.536 107.419 208.677C107.278 208.807 107.179 208.962 107.121 209.14C107.03 209.312 106.989 209.497 106.997 209.695C107.014 209.822 107.032 209.95 107.048 210.078C107.117 210.322 107.24 210.534 107.419 210.713C107.516 210.788 107.613 210.864 107.71 210.939C107.935 211.069 108.177 211.135 108.437 211.135C108.5 211.135 108.564 211.135 108.628 211.135C108.826 211.143 109.011 211.101 109.182 211.011C109.361 210.953 109.515 210.854 109.646 210.713C109.787 210.583 109.886 210.428 109.944 210.25C110.034 210.079 110.075 209.894 110.068 209.696C110.05 209.568 110.034 209.441 110.016 209.313C109.948 209.069 109.825 208.857 109.646 208.677C109.549 208.602 109.452 208.527 109.355 208.452C109.129 208.321 108.887 208.256 108.627 208.255Z" fill="#084C94"/>
<path d="M138.486 145.136C138.486 145.136 134.308 150.597 142.334 153.665L130.182 166.903C130.182 166.903 124.542 161.855 125.488 154.015C126.434 146.174 138.486 145.136 138.486 145.136Z" fill="white"/>
<path d="M138.487 145.136C138.48 145.139 138.439 145.152 138.333 145.167C138.215 145.186 138.066 145.209 137.882 145.238C137.487 145.303 136.903 145.403 136.16 145.567C134.688 145.913 132.512 146.45 130.157 147.803C129 148.492 127.786 149.403 126.887 150.709C126.438 151.357 126.076 152.099 125.851 152.907C125.732 153.309 125.663 153.73 125.614 154.16C125.584 154.594 125.554 155.034 125.524 155.48C125.429 159.055 126.861 162.991 129.598 166.082C129.818 166.333 130.053 166.574 130.283 166.791L130.072 166.802C134.707 161.772 138.944 157.174 142.249 153.586L142.293 153.774C140.695 153.137 139.305 152.311 138.406 151.237C137.471 150.178 137.255 148.878 137.366 147.917C137.472 146.938 137.809 146.235 138.051 145.786C138.173 145.559 138.284 145.397 138.36 145.29C138.436 145.18 138.48 145.143 138.487 145.136C138.494 145.128 138.455 145.2 138.388 145.309C138.322 145.422 138.221 145.589 138.11 145.818C137.89 146.272 137.579 146.975 137.495 147.929C137.408 148.867 137.632 150.105 138.548 151.118C139.428 152.144 140.794 152.941 142.375 153.556L142.534 153.618L142.42 153.744C139.128 157.343 134.909 161.957 130.292 167.004L130.19 167.117L130.082 167.015C129.835 166.781 129.6 166.54 129.374 166.283C126.586 163.136 125.135 159.121 125.247 155.474C125.28 155.02 125.312 154.572 125.344 154.13C125.397 153.689 125.47 153.251 125.596 152.835C125.834 151.999 126.214 151.233 126.682 150.567C127.62 149.225 128.869 148.307 130.05 147.62C132.454 146.27 134.65 145.766 136.137 145.452C136.887 145.305 137.475 145.223 137.875 145.178C138.075 145.155 138.228 145.143 138.331 145.136C138.429 145.129 138.493 145.133 138.487 145.136Z" fill="#263238"/>
<path d="M134.47 149.001C134.455 149.213 134.609 149.408 134.798 149.505C134.987 149.602 135.206 149.619 135.418 149.628C136.39 149.667 137.368 149.561 138.309 149.314C138.48 149.269 138.654 149.217 138.793 149.108C138.931 148.999 139.027 148.818 138.988 148.646C138.952 148.488 138.81 148.371 138.655 148.32C138.502 148.269 138.336 148.271 138.173 148.274C136.936 148.298 135.664 148.329 134.524 148.811" fill="#AE7461"/>
<path d="M127.779 147.832C127.779 147.832 134.062 149.588 136.026 148.674C137.989 147.76 138.83 144.856 138.923 144.16C139.016 143.464 137.663 141.877 137.663 141.877C137.663 141.877 128.559 144.691 128.335 144.865C128.11 145.039 127.779 147.832 127.779 147.832Z" fill="#AE7461"/>
<path d="M153.096 137.737C153.096 137.737 144.547 145.197 143.426 148.23C143.426 148.23 134.365 147.906 129.724 150.584L127.225 149.513C127.225 149.513 135.553 139.997 153.096 137.737Z" fill="white"/>
<path d="M153.096 137.737C152.752 137.799 152.13 137.913 150.855 138.147C150.504 138.216 150.117 138.261 149.684 138.363C149.251 138.462 148.782 138.569 148.28 138.684C147.777 138.806 147.232 138.902 146.669 139.067C146.104 139.228 145.508 139.399 144.882 139.578C142.393 140.34 139.463 141.413 136.405 143.029C134.865 143.814 133.322 144.779 131.775 145.852C130.242 146.939 128.699 148.167 127.337 149.612L127.283 149.376C127.598 149.511 127.938 149.656 128.278 149.802C128.784 150.019 129.286 150.234 129.782 150.447L129.648 150.455C130.79 149.808 132.014 149.406 133.217 149.091C134.424 148.778 135.625 148.569 136.798 148.427C139.145 148.136 141.375 148.053 143.429 148.103L143.305 148.186C143.744 147.156 144.409 146.347 145.033 145.586C145.66 144.824 146.3 144.145 146.901 143.507C148.115 142.244 149.22 141.193 150.138 140.339C151.058 139.486 151.794 138.832 152.301 138.392C152.544 138.186 152.737 138.022 152.885 137.897C153.02 137.782 153.086 137.746 153.096 137.737C153.106 137.727 153.038 137.809 152.912 137.925C152.771 138.057 152.587 138.23 152.354 138.449C151.85 138.925 151.139 139.597 150.242 140.445C149.339 141.314 148.251 142.379 147.053 143.649C146.462 144.29 145.83 144.972 145.215 145.732C144.604 146.487 143.949 147.309 143.546 148.273L143.51 148.358L143.422 148.356C141.387 148.32 139.162 148.413 136.836 148.709C135.672 148.854 134.482 149.064 133.292 149.375C132.106 149.687 130.903 150.085 129.799 150.713L129.733 150.751L129.664 150.721C129.168 150.509 128.666 150.294 128.16 150.077C127.82 149.93 127.48 149.785 127.166 149.65L126.969 149.565L127.112 149.413C128.511 147.931 130.057 146.708 131.608 145.612C133.169 144.535 134.726 143.569 136.279 142.786C139.363 141.174 142.316 140.115 144.823 139.377C145.453 139.204 146.053 139.04 146.622 138.884C147.19 138.727 147.739 138.637 148.244 138.522C149.256 138.303 150.129 138.117 150.876 138.033C152.139 137.865 152.755 137.782 153.096 137.737Z" fill="#263238"/>
<path d="M128.2 143.501C128.2 143.501 132.347 140.749 134.492 140.534C136.637 140.32 139.139 140.82 139.425 141.535C139.711 142.25 138.211 142.813 136.279 142.822C134.246 142.831 133.349 145.818 130.181 146.102C127.964 146.301 128.065 145.784 128.065 145.784L128.2 143.501Z" fill="#AE7461"/>
<path d="M116.362 148.937C116.362 148.937 121.19 147.068 123.224 147.12C125.259 147.173 129.528 148.473 129.997 149.099C130.467 149.725 129.997 150.038 129.997 150.038C129.997 150.038 131.667 149.933 131.667 150.82C131.667 151.706 130.936 151.863 129.893 152.02C129.893 152.02 130.415 152.489 130.258 153.376C130.102 154.262 128.954 154.314 128.954 154.314C128.954 154.314 129.371 154.941 128.746 155.879C128.12 156.818 127.598 156.818 127.598 156.818C127.598 156.818 127.703 159.061 125.721 158.383C123.739 157.705 119.565 155.097 119.565 155.097L117.625 155.646L116.362 148.937Z" fill="#AE7461"/>
<path d="M143.805 142.356C143.871 142.426 142.986 143.262 141.997 144.363C141.029 145.494 140.178 146.373 140.114 146.313C140.057 146.258 140.796 145.306 141.772 144.164C142.784 143.039 143.759 142.305 143.805 142.356Z" fill="#263238"/>
<path d="M144.157 141.72C143.964 141.387 144.227 140.875 144.743 140.577C145.258 140.28 145.832 140.308 146.025 140.641C146.217 140.974 145.955 141.486 145.439 141.784C144.924 142.082 144.349 142.053 144.157 141.72Z" fill="#084C94"/>
<path d="M142.549 141.18C142.391 141.285 136.732 147.119 136.732 147.119L130.44 149.015C130.44 149.015 134.747 145.108 135.929 144.014C137.111 142.921 142.549 141.18 142.549 141.18Z" fill="#E0E0E0"/>
</svg>
