<svg width="17" height="33" viewBox="0 0 17 33" fill="none" xmlns="http://www.w3.org/2000/svg">
<path fill-rule="evenodd" clip-rule="evenodd" d="M12.5557 1.67121C12.5255 2.14363 12.4077 2.23811 12.4893 2.72577C13.6799 2.68919 14.3175 3.20733 15.2965 3.3841C15.7105 3.79252 16.049 3.92967 16.1457 4.63372C16.1638 4.76783 16.052 4.95375 16.0792 5.09395C16.1336 5.34997 16.3693 5.56941 16.4055 5.75228C16.5204 6.34052 16.3814 7.05981 16.4055 7.66329C16.6624 13.8291 16.4055 21.342 16.3391 28.407C16.2847 28.8154 16.1426 29.0927 16.2726 29.5255C16.0218 30.0863 15.5202 30.3911 15.357 31.0403C13.9156 32.2991 11.2473 32.5642 8.56695 32.488C6.90797 32.4423 5.83523 32.3966 4.19136 32.1589C3.09746 32.0004 2.49914 31.5828 1.64396 30.9733C0.676983 30.2814 0.426172 30.2021 0.272059 28.8001C0.0695972 26.9379 0.284146 24.524 0.142121 22.3478C0.00311726 20.0955 0.00311726 17.2518 0.0182264 14.4478C0.0303136 12.3326 -0.0633627 10.2082 0.0847063 7.9955C0.208601 6.1607 -0.0542973 4.72211 1.19371 3.97843C2.22113 3.74375 2.78017 3.0336 3.9345 2.92388C3.8378 1.77179 4.4875 1.17746 5.4998 0.881818C7.56371 0.281391 11.2171 0.281391 12.5497 1.67121H12.5557ZM11.0539 1.60416C9.53998 1.56454 7.07115 1.16222 5.89566 1.86932C5.4998 1.82056 5.2913 1.96076 5.11301 2.13144C5.9984 3.53954 9.91468 3.22257 11.5102 2.4606C11.4014 2.13144 11.2896 1.80532 11.0539 1.60416ZM4.72017 3.71022C4.69902 3.44811 4.80479 3.05494 4.52376 3.05189C4.5993 3.44811 4.45728 4.31065 5.10999 4.30455C5.10999 3.71327 5.16438 3.53954 5.23993 2.98788C5.15834 2.85073 5.04955 2.74101 4.91357 2.65872C4.86824 3.03055 5.04955 3.62793 4.71715 3.71327L4.72017 3.71022ZM5.69924 4.63067C5.65996 4.04853 5.87753 3.69498 5.76572 3.18295C5.68111 3.1799 5.67507 3.09761 5.56931 3.11589C5.52398 3.52126 5.19158 4.46914 5.69924 4.63067ZM5.95912 4.69773C6.11021 4.78611 6.3308 4.80745 6.48189 4.89584C6.48189 4.58191 6.1918 4.22226 6.35196 3.97234C6.67529 4.70382 7.60601 5.161 8.70293 4.89584C8.63343 4.43866 8.85402 3.69194 8.57299 3.44811C8.29499 3.73156 8.83891 4.43866 8.37657 4.50266C8.11972 4.24969 8.30103 3.86871 8.31009 3.51516C7.38542 3.52126 6.66623 3.29876 5.89264 3.31705C6.16158 3.54869 5.80501 4.35332 5.95912 4.70077V4.69773ZM10.0084 3.44506C10.099 4.78916 10.0325 3.57917 10.1383 3.314C10.0537 3.31095 10.0476 3.22866 9.94188 3.24695C9.91468 3.33839 10.0023 3.3902 10.0084 3.44506ZM9.682 4.23445C9.64876 3.91443 9.77568 3.43896 9.55206 3.314C9.50976 3.65231 9.29521 4.17654 9.682 4.23445ZM9.15923 4.89279C9.13203 4.56057 9.2529 3.91748 9.22571 3.37801H9.02929C8.96281 3.8108 8.83589 4.80135 9.15923 4.89279ZM12.6857 3.70718C12.6706 4.04244 12.4681 4.18874 12.3593 4.43256C9.99627 5.63342 6.20087 5.80105 4.13394 4.23445C3.94961 4.09425 3.89522 3.92053 3.67765 3.83823C2.90406 3.55478 1.71044 4.30151 1.32667 4.82574C1.46266 5.19453 1.54424 5.61513 2.10932 5.55113C1.92197 5.97173 2.51123 5.85286 2.6321 6.14241C2.91313 6.15765 2.89802 5.92296 3.15487 6.0784C6.54535 7.21525 12.1508 7.17868 14.7103 5.42007C14.8493 5.02994 15.1454 4.80745 15.1031 4.23445C14.5532 3.87481 13.6496 3.80471 12.6857 3.70718ZM10.2048 4.62763H10.3347C10.374 4.62458 10.4103 4.61848 10.3982 4.56057C10.3045 4.54533 10.2894 4.45085 10.2018 4.42952V4.62763H10.2048ZM9.55206 4.82574H9.682C9.75452 4.73125 9.7515 4.6642 9.61552 4.62763C9.61552 4.71906 9.5853 4.77088 9.55206 4.82574ZM15.2965 4.95679C15.3902 5.17624 15.4597 4.70078 15.2965 4.95679V4.95679ZM0.670939 6.0845C0.707201 7.55661 0.78879 9.24817 0.867357 10.6288C1.18465 16.1881 1.01543 21.2445 1.52007 26.5661C1.57748 27.1604 1.39315 28.0229 1.97636 28.4771C1.69534 27.0903 1.91291 25.9016 1.90988 24.5911C1.90384 21.9577 1.61677 19.3945 1.58353 17.0842C1.53518 13.8108 1.48985 10.9458 1.32365 7.73339C1.30854 7.84921 1.39013 8.06255 1.19371 7.9955C1.32063 6.91352 1.3992 6.06621 0.997295 5.42616C0.964055 5.72181 0.812964 5.89858 0.670939 6.0845ZM11.1838 8.12656C11.1627 8.01989 11.2715 7.94978 11.3138 8.05951C11.4316 8.33077 11.1204 9.09578 11.1174 9.11406C11.066 9.44018 11.1536 10.0894 11.2473 9.37618C11.3319 12.6983 10.8091 16.4045 10.9844 20.2418C11.0297 21.2293 11.1113 22.043 11.0509 22.7441C11.0328 22.9544 11.2201 23.4268 10.8545 23.4694C10.9481 22.4819 10.9723 20.9123 10.788 19.7145C10.4647 20.7142 10.8001 21.9943 10.5281 22.9422C10.4375 17.7456 11.3712 11.2902 10.7245 7.072C7.94748 7.24268 4.94077 7.51089 2.69253 6.54472C2.33596 6.39233 2.1063 5.97782 1.64699 6.0845C1.29343 6.79465 1.59259 7.49566 1.64699 8.25762C1.79203 10.2631 1.55029 12.5002 1.64699 14.5149C1.67418 15.0757 1.88571 15.6243 1.90686 16.2277C2.05191 20.0924 1.87664 24.332 2.23322 28.6081C2.66232 28.8093 3.09141 29.0135 3.80154 28.9373C4.24877 29.4371 4.78363 29.1537 5.36987 29.3335C5.57837 29.3975 5.77781 29.5438 5.9561 29.5956C6.56651 29.7754 6.9956 29.2908 7.5214 29.5286C5.7204 30.2661 3.85291 29.1354 2.16674 28.9342C2.03982 29.6474 2.87989 29.8669 3.47216 30.0528C5.14021 30.577 7.4247 30.6837 8.89028 30.1839C9.44025 29.9979 10.0809 29.8273 10.652 29.5895C11.1869 29.367 12.0753 29.2299 11.9574 28.602C10.8031 28.9586 9.37982 29.8181 8.30103 29.4585C8.69386 29.3731 9.15016 29.3487 9.543 29.2604C9.41608 28.9617 8.79661 29.3914 8.69387 29.1293C9.93583 28.8459 11.4226 28.8093 12.1538 28.0107C12.181 27.8248 11.9121 28.1753 11.894 27.9437C11.9363 27.8096 12.2233 27.9254 12.1538 27.6816C12.1538 21.3238 12.0934 14.5118 12.0904 8.05646C12.0904 7.7151 12.3442 7.2122 11.9605 6.9379C11.6311 7.19392 11.4165 8.01379 11.1778 7.79434C11.1778 7.75777 11.1264 7.71815 11.1113 7.79434C11.3289 7.81568 10.9391 8.08084 11.1778 8.12351L11.1838 8.12656ZM12.4893 7.072C12.4621 7.04457 12.5316 7.11467 12.4893 7.072V7.072ZM10.9874 7.072C10.9361 7.08724 10.8575 7.072 10.8575 7.13906C10.9089 7.12382 10.9844 7.13906 10.9874 7.072ZM12.6857 8.12656C12.6404 7.86444 12.8005 7.39812 12.5557 7.33717C12.6011 7.59928 12.4409 8.0656 12.6857 8.12656ZM11.1174 7.59928C11.0902 7.57185 11.1597 7.64195 11.1174 7.59928V7.59928ZM14.5139 11.4182C14.535 10.2722 14.7466 8.4923 14.3839 7.53223C14.3356 8.81233 14.2026 10.0924 14.5139 11.4182ZM12.9456 7.79739C13.0211 7.53832 13.0211 8.05646 12.9456 7.79739V7.79739ZM13.4019 8.05951C13.3747 8.03208 13.4442 8.10218 13.4019 8.05951V8.05951ZM12.9456 9.50724C12.8972 9.11711 13.1873 8.75747 13.012 8.32162C12.9274 8.74832 12.8398 9.11102 12.9456 9.50724ZM0.281125 9.11406C0.253928 9.08663 0.32343 9.15673 0.281125 9.11406V9.11406ZM0.347605 13.4603C0.308321 12.232 0.417106 10.5252 0.281125 9.31217C0.247885 10.3728 0.0635536 12.3235 0.347605 13.4603ZM15.2996 9.57429C15.3751 9.31522 15.3751 9.83336 15.2996 9.57429V9.57429ZM11.0539 10.1656C11.0267 10.1381 11.0962 10.2082 11.0539 10.1656V10.1656ZM13.2749 10.3637C13.2477 10.3363 13.3172 10.4064 13.2749 10.3637V10.3637ZM13.3414 10.4947C13.287 10.8849 13.3777 10.2296 13.3414 10.4947V10.4947ZM13.3414 10.7569C13.1843 10.9793 13.559 10.5984 13.3414 10.7569V10.7569ZM13.3414 11.022C13.287 11.4121 13.3777 10.7569 13.3414 11.022V11.022ZM13.3414 11.2841C13.3142 11.2567 13.3837 11.3268 13.3414 11.2841V11.2841ZM14.387 12.3387C14.3598 12.3113 14.4293 12.3814 14.387 12.3387V12.3387ZM14.387 12.866C14.396 12.7806 14.396 12.3905 14.3205 12.6039C14.3114 12.6892 14.3114 13.0793 14.387 12.866ZM15.1062 12.7989C15.0518 13.189 15.1424 12.5338 15.1062 12.7989V12.7989ZM14.257 13.2591C14.4383 13.3658 14.4383 12.9757 14.3235 12.994C14.3386 13.1189 14.248 13.1403 14.257 13.2591ZM14.6499 13.1921C14.5622 13.1921 14.5894 13.0763 14.5199 13.061C14.4444 13.1951 14.6227 13.375 14.6499 13.1921ZM14.257 14.905C14.5139 15.5085 14.0062 16.1241 14.387 16.4868C14.5139 15.5146 14.7012 14.2924 14.5169 13.3902C14.4172 13.9449 14.4927 14.4173 14.254 14.905H14.257ZM14.3235 13.9175C14.3991 13.8474 14.3477 13.6127 14.257 13.5213C14.2933 13.6371 14.1785 13.9083 14.3235 13.9175ZM0.220688 13.7194C0.296234 13.4603 0.296234 13.9784 0.220688 13.7194V13.7194ZM13.148 13.7864H13.278V13.6554H13.148V13.7864ZM14.257 14.0516C14.2026 14.4417 14.2933 13.7864 14.257 14.0516V14.0516ZM13.2115 14.4448C13.2115 14.3472 13.2357 13.9053 13.145 14.1156C13.145 14.2131 13.1208 14.6551 13.2115 14.4448ZM0.870379 14.7069C0.752528 14.5392 0.806921 15.2159 0.803899 15.5633C0.803899 16.0113 0.75555 16.5295 0.870379 16.7489C0.964055 16.2156 0.843183 15.5664 0.870379 14.7069ZM13.145 14.905C13.012 15.481 13.1873 14.716 13.145 14.905V14.905ZM12.8186 18.7239C13.0604 17.8096 12.9244 16.2643 12.8186 15.3652C12.7763 16.6758 12.8307 17.5322 12.8186 18.7239ZM0.477543 16.4899C0.477543 17.1086 0.797855 16.7855 0.477543 16.4899V16.4899ZM13.8612 16.5539C13.834 16.5264 13.9035 16.5965 13.8612 16.5539V16.5539ZM14.3175 16.6849C14.2903 16.6575 14.3598 16.7276 14.3175 16.6849V16.6849ZM14.3839 18.3308C14.2177 18.6203 14.6196 18.7057 14.3839 18.3308V18.3308ZM0.477543 18.4618C0.450346 18.4344 0.519848 18.5045 0.477543 18.4618V18.4618ZM0.477543 18.6599C0.450346 18.6325 0.519848 18.7026 0.477543 18.6599V18.6599ZM0.544023 19.1202C0.516826 19.0927 0.586328 19.1628 0.544023 19.1202V19.1202ZM14.7133 19.3183C14.5773 20.2082 14.4323 21.7047 14.7133 22.4149C14.7315 21.4 14.7587 19.6718 14.7133 19.3183ZM0.214645 19.8486C0.187448 19.8212 0.25695 19.8913 0.214645 19.8486V19.8486ZM13.3384 20.0467C13.4139 19.7876 13.4139 20.3058 13.3384 20.0467V20.0467ZM0.344583 21.1653C0.266015 20.958 0.350626 20.193 0.214645 20.1107C0.29019 20.4307 0.05751 21.0586 0.344583 21.1653ZM12.8156 20.3088C12.7884 20.2814 12.8579 20.3515 12.8156 20.3088V20.3088ZM13.3384 20.3759C13.2417 20.8666 13.3837 20.1412 13.3384 20.3759V20.3759ZM14.251 20.574C14.118 21.15 14.2933 20.385 14.251 20.574V20.574ZM13.3384 20.705C13.3112 20.6776 13.3807 20.7477 13.3384 20.705V20.705ZM0.281125 21.3634C0.35667 21.1043 0.35667 21.6224 0.281125 21.3634V21.3634ZM13.0785 22.0217C13.1541 21.7626 13.1541 22.2808 13.0785 22.0217V22.0217ZM13.0785 22.3509C13.0241 22.741 13.1148 22.0857 13.0785 22.3509V22.3509ZM14.6468 22.549C14.5925 22.9391 14.6831 22.2838 14.6468 22.549V22.549ZM13.0785 22.9452C13.0513 22.9178 13.1208 22.9879 13.0785 22.9452V22.9452ZM14.6468 23.7346C14.6197 23.7072 14.6892 23.7773 14.6468 23.7346V23.7346ZM14.6468 25.5786C14.6348 25.1031 14.8221 24.2588 14.6468 23.9327C14.6892 24.4448 14.4535 25.35 14.6468 25.5786ZM13.0151 24.524C13.0906 24.4417 13.145 24.0059 13.0151 23.9327C12.9879 24.0638 12.8519 24.4204 13.0151 24.524ZM14.0606 24.1948C14.0334 24.1674 14.1029 24.2375 14.0606 24.1948V24.1948ZM1.00334 24.588C0.948946 24.9781 1.0396 24.3228 1.00334 24.588V24.588ZM12.8851 25.1823C13.1027 25.2616 13.0453 24.7373 12.9486 24.7221C12.9818 24.9294 12.8307 24.9537 12.8851 25.1823ZM13.4079 24.9202C13.3807 24.8928 13.4502 24.9629 13.4079 24.9202V24.9202ZM1.13328 26.6971C1.06075 26.1973 1.28739 25.0513 1.00334 24.9842C1.18163 25.35 0.773681 26.3619 1.13328 26.6971ZM13.4079 25.0513C13.3112 25.542 13.4532 24.8166 13.4079 25.0513V25.0513ZM13.9307 25.1823C13.9035 25.1549 13.973 25.225 13.9307 25.1823V25.1823ZM13.9307 26.0388C13.8823 25.8102 14.1271 25.542 13.9307 25.3804C13.8521 25.481 13.8038 25.9473 13.9307 26.0388ZM14.1906 26.435C14.5199 26.4106 14.3416 25.7462 14.254 25.6456C14.2782 25.9565 14.2329 26.1942 14.1906 26.435ZM13.4079 25.8437C13.3807 25.8163 13.4502 25.8864 13.4079 25.8437V25.8437ZM13.4079 25.9748C13.3807 25.9473 13.4502 26.0174 13.4079 25.9748V25.9748ZM1.26322 28.279C1.49287 27.9681 1.33272 27.2305 1.19674 26.7642C1.16954 27.2092 1.00636 27.9498 1.26322 28.279ZM12.8186 27.6877C13.0181 27.7364 12.9456 27.5078 13.145 27.5566C13.1148 27.2823 12.9486 27.1391 12.8851 26.8983C12.7612 27.0568 12.8428 27.4286 12.8186 27.6877ZM14.0576 28.346C14.1815 28.3612 14.2026 28.2729 14.3205 28.282C14.3114 28.1205 14.3114 27.965 14.387 27.8858C14.1422 27.901 14.1331 28.157 14.0606 28.346H14.0576ZM12.7522 28.6112C12.9425 28.5807 13.0513 28.471 13.0785 28.282C12.9909 28.2607 12.9546 28.1875 12.8186 28.2149C12.7612 28.4466 12.8096 28.3765 12.7522 28.6112ZM1.52309 28.7422C1.49287 28.5533 1.44755 28.3795 1.26322 28.346C1.2753 28.5533 1.30854 28.7392 1.52309 28.7422ZM1.84945 28.8733C2.00658 29.2116 2.01867 28.6477 1.84945 28.8733V28.8733ZM1.84945 29.2024C1.82225 29.175 1.89175 29.2451 1.84945 29.2024V29.2024ZM13.145 29.2695C13.1178 29.2421 13.1873 29.3122 13.145 29.2695V29.2695ZM1.58957 29.5987C1.42942 29.6231 1.39618 29.1872 1.26322 29.4006C1.42337 29.3762 1.45661 29.812 1.58957 29.5987ZM2.76506 30.3881C2.77715 30.1107 2.45381 30.1747 2.30876 30.0589C2.39035 30.2387 2.51425 30.3789 2.76506 30.3881ZM9.4886 30.5191C7.48212 30.8696 4.80479 30.8818 3.09141 30.257C4.45425 31.4609 7.83265 31.3512 9.4886 30.5191ZM9.81496 30.4521C9.78776 30.4246 9.85727 30.4947 9.81496 30.4521V30.4521ZM9.74848 30.4521C9.69711 30.4673 9.61854 30.4521 9.61854 30.5191C9.66991 30.5039 9.74848 30.5191 9.74848 30.4521ZM10.2713 30.6502C10.2441 30.6227 10.3136 30.6928 10.2713 30.6502V30.6502ZM9.9449 30.6502C9.60948 30.8087 10.1685 30.8209 9.9449 30.6502V30.6502ZM2.95846 30.8483C2.90708 30.8635 2.82852 30.8483 2.82852 30.9153C2.87989 30.9001 2.95846 30.9153 2.95846 30.8483ZM10.4677 31.2445C10.649 31.0555 11.1113 31.147 11.1838 30.8483C10.8273 30.9672 8.99907 31.3359 10.4677 31.2445ZM8.70293 31.3756C8.67573 31.3481 8.74524 31.4182 8.70293 31.3756V31.3756ZM5.56931 31.7718C5.54211 31.7444 5.61161 31.8145 5.56931 31.7718V31.7718ZM11.8366 32.0339C11.4165 31.9577 11.6915 32.2351 11.8366 32.0339V32.0339Z" fill="#236003"/>
<path fill-rule="evenodd" clip-rule="evenodd" d="M7.78711 4.04246C7.78711 3.97845 7.86568 3.99064 7.91705 3.9754C7.91705 4.03941 7.83546 4.02722 7.78711 4.04246Z" fill="#236003"/>
<path fill-rule="evenodd" clip-rule="evenodd" d="M1.19336 8.12654C1.26956 7.86748 1.26956 8.38561 1.19336 8.12654V8.12654Z" fill="#236003"/>
<path fill-rule="evenodd" clip-rule="evenodd" d="M1.13086 8.51973C1.20706 8.26067 1.20706 8.7788 1.13086 8.51973V8.51973Z" fill="#236003"/>
<path fill-rule="evenodd" clip-rule="evenodd" d="M8.89935 8.45569C8.93259 8.90677 8.78452 9.17193 8.83589 9.6413C9.33449 9.92475 9.85726 9.5011 10.4012 9.44319C10.6006 9.71445 10.519 10.321 10.5311 10.6288C10.2682 11.1073 9.59135 11.1744 9.02929 11.3542C8.83891 11.8205 9.28614 12.5032 8.83287 12.869C8.28894 12.8476 7.78732 12.869 7.39751 13C7.39146 12.3204 7.41564 11.7413 7.20109 11.1561C6.61788 10.9976 5.83825 11.0372 5.43937 10.6959C5.46052 10.1655 5.39102 9.8577 5.43937 9.44319C6.07697 9.4371 6.44866 9.69921 7.13763 9.6413C7.32498 9.33042 7.19202 9.08659 7.20109 8.6538C7.64227 8.37949 8.159 8.48921 8.89935 8.45569ZM7.72386 9.18108C7.7148 9.09269 7.98978 8.98297 7.79034 8.91896C7.75408 8.95858 7.52442 9.11707 7.72386 9.18108ZM7.65738 10.2356C7.63019 10.2082 7.69969 10.2783 7.65738 10.2356V10.2356ZM6.35196 10.6959C6.45168 10.4977 6.01351 10.5221 6.0256 10.6288C6.18274 10.6014 6.16763 10.7477 6.35196 10.6959ZM7.26757 10.8269C7.24037 10.7995 7.30987 10.8696 7.26757 10.8269V10.8269Z" fill="#236003"/>
<path fill-rule="evenodd" clip-rule="evenodd" d="M10.8575 26.1028C10.9391 26.5021 10.7245 27.008 10.8575 27.4865C10.0718 28.1052 8.1862 28.1631 6.67831 28.0138C6.86869 27.4012 6.29454 26.9836 6.54838 26.3679C6.88682 26.4106 6.89588 26.6727 7.20109 26.435C8.32823 27.008 9.96303 26.5569 10.8575 26.1058V26.1028Z" fill="#236003"/>
</svg>
