<svg width="32" height="33" viewBox="0 0 32 33" fill="none" xmlns="http://www.w3.org/2000/svg">
<path d="M16.5 0H3.18072C1.47108 0 0.0795181 1.35711 0.00795181 3.04819C0.00795181 3.09325 0 3.13566 0 3.18072V29.8193C0 29.8643 0.0053012 29.9067 0.00795181 29.9518C0.0795181 31.6429 1.47373 32.9973 3.18072 33H16.5C18.2096 33 19.6012 31.6429 19.6728 29.9518C19.6728 29.9067 19.6807 29.8643 19.6807 29.8193V3.18072C19.6807 3.13566 19.6754 3.09325 19.6728 3.04819C19.6012 1.35711 18.2096 0 16.5 0ZM3.18072 1.06024H16.5C17.6186 1.06024 18.541 1.94554 18.6125 3.04819H1.06819C1.13976 1.94554 2.06482 1.06289 3.18072 1.06024ZM16.5 31.9398H3.18072C2.06217 31.9398 1.13976 31.0545 1.06819 29.9518H18.6152C18.5436 31.0545 17.6186 31.9371 16.5027 31.9398H16.5ZM18.6205 28.8916H1.06024V4.10843H18.6205V28.8916ZM11.5964 30.4475H8.08434V31.5077H11.5964V30.4475ZM31.6906 18.048V13.2504H28.5443C28.441 12.9508 28.3217 12.6593 28.1839 12.381L30.4077 10.1571L27.0149 6.76434L24.7911 8.98819C24.6506 8.91928 24.5075 8.85566 24.3617 8.7947C24.3564 8.7947 24.3484 8.7894 24.3431 8.78675C24.2053 8.73108 24.0648 8.67542 23.9217 8.62771V5.48145H21.2711V6.54169H22.8588V9.43349C22.8588 9.43349 22.8508 9.43349 22.8482 9.43349C22.8641 9.43614 22.88 9.44145 22.8959 9.4441C22.994 9.4653 23.0894 9.48916 23.1875 9.51566C23.2325 9.52627 23.2749 9.54217 23.3174 9.55542C23.434 9.58988 23.5506 9.62699 23.6646 9.66675C23.6831 9.67205 23.699 9.68 23.7149 9.6853C23.821 9.72506 23.9243 9.76482 24.0277 9.80723C24.1125 9.84434 24.192 9.88145 24.2742 9.92121C24.3087 9.93711 24.3458 9.95301 24.3829 9.97157C24.5048 10.0325 24.6214 10.0961 24.7381 10.1651C24.7911 10.1969 24.8441 10.2287 24.8971 10.2605C24.921 10.2764 24.9475 10.2923 24.9713 10.3082L27.0176 8.26193L28.9101 10.1545L27.6299 11.4347L26.8639 12.2007C26.8771 12.2246 26.893 12.2458 26.9089 12.2696C26.9434 12.3253 26.9778 12.381 27.0096 12.4366C27.0759 12.548 27.1369 12.6619 27.1952 12.7786C27.2137 12.813 27.227 12.8475 27.2455 12.8819C27.2827 12.9588 27.3171 13.033 27.3516 13.1099C27.3834 13.1814 27.4125 13.2557 27.439 13.3272C27.4549 13.367 27.4682 13.4041 27.4841 13.4439C27.5159 13.5313 27.5477 13.6188 27.5742 13.7089C27.5769 13.7195 27.5822 13.7301 27.5848 13.7407C27.6113 13.8202 27.6378 13.8998 27.659 13.9819C27.6829 14.0747 27.7067 14.1675 27.728 14.2629C27.7306 14.2788 27.7359 14.292 27.7386 14.308H30.6304V16.9851H27.7386C27.7359 17.001 27.7306 17.0169 27.728 17.0328C27.7067 17.1255 27.6855 17.2157 27.659 17.3084C27.6246 17.4383 27.5822 17.5682 27.5398 17.6954C27.5292 17.7246 27.5186 17.7537 27.508 17.7802C27.4761 17.8704 27.4417 17.9578 27.4046 18.048C27.386 18.0904 27.3701 18.1328 27.3516 18.1725C27.3198 18.2467 27.2853 18.321 27.2482 18.3952C27.227 18.4376 27.2084 18.4827 27.1846 18.5251C27.1846 18.5251 27.1846 18.5277 27.1819 18.5304C27.1263 18.639 27.068 18.7477 27.007 18.8537C26.9725 18.912 26.9381 18.973 26.901 19.0287C26.8877 19.0499 26.8718 19.0737 26.8586 19.0949L27.6246 19.861L28.9048 21.1412L27.0123 23.0337L25.732 21.7535C25.732 21.7535 25.3848 21.4063 24.966 20.9875C24.9395 21.0034 24.9157 21.0193 24.8892 21.0378C24.8388 21.0696 24.7884 21.1014 24.7354 21.1306C24.7301 21.1333 24.7222 21.1386 24.7169 21.1412C24.5472 21.2393 24.3723 21.3294 24.1947 21.4142C24.1788 21.4222 24.1602 21.4301 24.1443 21.4381C23.9588 21.5229 23.7706 21.5971 23.5771 21.6634L23.548 21.674C23.4419 21.7084 23.3359 21.7429 23.2272 21.772C23.2113 21.7773 23.1981 21.7827 23.1822 21.7853C23.0867 21.8118 22.9887 21.8357 22.8906 21.8569C22.8747 21.8622 22.8561 21.8648 22.8402 21.8675C22.8455 21.8675 22.8508 21.8675 22.8535 21.8675V24.7593H21.2658V25.8195H23.9137V22.6759C24.2133 22.5725 24.5022 22.4533 24.7831 22.3154L27.007 24.5393L30.3998 21.1465L30.1002 20.8496L30.026 20.7728L28.1759 18.9227C28.3137 18.6417 28.433 18.3501 28.5364 18.0533H31.6827L31.6906 18.048ZM26.0925 15.6492C26.0925 13.1231 24.0463 11.0769 21.5202 11.0769C21.4354 11.0769 21.3533 11.0848 21.2711 11.0901V12.1504C21.3533 12.1451 21.4354 12.1371 21.5202 12.1371C23.4605 12.1398 25.0296 13.7089 25.0323 15.6492C25.0296 17.5894 23.4605 19.1586 21.5202 19.1612C21.4354 19.1612 21.3533 19.1533 21.2711 19.148V20.2082C21.3533 20.2135 21.4354 20.2214 21.5202 20.2214C24.0463 20.2214 26.0925 18.1752 26.0925 15.6492ZM4.24096 20.8708C4.24096 19.3839 3.13566 18.1619 1.70169 17.9658V18.6549C2.75663 18.8431 3.55711 19.7602 3.55976 20.8708C3.55976 21.9814 2.75663 22.8986 1.70169 23.0867V23.7759C3.13566 23.5824 4.24096 22.3578 4.24096 20.8708ZM2.84675 27.394V25.3769C3.03759 25.3106 3.22578 25.2337 3.40337 25.1463L4.8294 26.5723L7.00554 24.3961L6.76434 24.1549L5.57952 22.9675C5.66699 22.7872 5.74386 22.6017 5.81012 22.4082H7.82723V19.3282H5.81012C5.74386 19.1374 5.66699 18.9492 5.57952 18.7689L7.00554 17.3429L4.8294 15.1667L3.40337 16.5928C3.31325 16.5477 3.22313 16.508 3.12771 16.4682C3.12241 16.4682 3.11976 16.4655 3.11446 16.4629C3.02434 16.4258 2.93422 16.3913 2.8441 16.3595V14.3424H1.69904V15.0236H2.16289V16.879C2.16289 16.879 2.15759 16.879 2.15494 16.879C2.16554 16.879 2.17614 16.8843 2.1841 16.887C2.24771 16.9002 2.30867 16.9161 2.36964 16.932C2.3988 16.94 2.4253 16.9506 2.45446 16.9586C2.52867 16.9798 2.60289 17.0036 2.67711 17.0301C2.68771 17.0328 2.69831 17.0381 2.70892 17.0434C2.77518 17.0672 2.8441 17.0937 2.90771 17.1229C2.96072 17.1467 3.01373 17.1706 3.06675 17.1971C3.0906 17.2077 3.11446 17.2183 3.13566 17.2289C3.21253 17.2687 3.2894 17.3084 3.36361 17.3535C3.39807 17.3747 3.43253 17.3933 3.46434 17.4145C3.48024 17.4251 3.49614 17.4357 3.51205 17.4436L4.8241 16.1316L6.03807 17.3455L4.72602 18.6576C4.73663 18.6735 4.74458 18.6867 4.75518 18.7027C4.77639 18.7371 4.80024 18.7742 4.82145 18.8113C4.86386 18.8829 4.90361 18.9571 4.94072 19.0313C4.95133 19.0525 4.96193 19.0764 4.97253 19.0976C4.99639 19.1453 5.01759 19.1957 5.04145 19.2434C5.06265 19.2884 5.0812 19.3361 5.09976 19.3839C5.11036 19.4077 5.11831 19.4342 5.12892 19.4581C5.15012 19.5137 5.16867 19.5721 5.18723 19.6277C5.18723 19.6357 5.19253 19.641 5.19518 19.6489C5.21108 19.7019 5.22964 19.7523 5.24289 19.8053C5.2588 19.8636 5.2747 19.9246 5.28795 19.9855C5.28795 19.9961 5.29325 20.0041 5.2959 20.0147H7.15133V21.7323H5.2959C5.2959 21.7323 5.2906 21.7535 5.28795 21.7614C5.2747 21.8198 5.26145 21.8807 5.24554 21.939C5.22434 22.0239 5.19783 22.106 5.16867 22.1855C5.16337 22.2041 5.15542 22.2227 5.14747 22.2412C5.12627 22.2995 5.10506 22.3552 5.0812 22.4135C5.0706 22.44 5.06 22.4665 5.04675 22.493C5.02554 22.5407 5.00434 22.5884 4.98048 22.6361C4.96723 22.6653 4.95398 22.6918 4.94072 22.721C4.94072 22.721 4.94072 22.721 4.94072 22.7236C4.90626 22.7925 4.86916 22.8641 4.8294 22.9304C4.80819 22.9675 4.78434 23.0072 4.76048 23.0443C4.75253 23.0576 4.74193 23.0735 4.73398 23.0867L5.22699 23.5798L6.04867 24.4014L4.8347 25.6154L4.01301 24.7937C4.01301 24.7937 3.79036 24.5711 3.52265 24.3007C3.50675 24.3113 3.49084 24.3219 3.47229 24.3325C3.44048 24.3537 3.40602 24.3723 3.37422 24.3908C3.36892 24.3908 3.36627 24.3961 3.36096 24.3988C3.25229 24.4624 3.14096 24.5207 3.02699 24.5737C3.01639 24.579 3.00578 24.5843 2.99518 24.5896C2.8759 24.6427 2.75398 24.693 2.63205 24.7354L2.61349 24.7407C2.54458 24.7646 2.47566 24.7858 2.40675 24.8043C2.39614 24.8043 2.38819 24.8096 2.37759 24.8123C2.31663 24.8282 2.25301 24.8441 2.19205 24.8573C2.18145 24.8573 2.17084 24.8626 2.16024 24.8653C2.16289 24.8653 2.16554 24.8653 2.16819 24.8653V26.7207H1.70434V27.4019H2.8494L2.84675 27.394Z" fill="#236003"/>
</svg>
