<svg width="36" height="33" viewBox="0 0 36 33" fill="none" xmlns="http://www.w3.org/2000/svg">
<path d="M11.5713 30.4542H8.06684V31.5122H11.5713V30.4542ZM16.4643 0.0699872H3.17384C1.4679 0.0726321 0.079346 1.42416 0.0079346 3.11158C0.0079346 3.15655 0 3.19886 0 3.24383V29.8247C0 29.8697 0.00528973 29.912 0.0079346 29.957C0.079346 31.6444 1.47055 32.9959 3.17384 32.9986H16.4643C18.1702 32.9986 19.5588 31.6444 19.6302 29.957C19.6302 29.912 19.6381 29.8697 19.6381 29.8247V3.24383C19.6381 3.19886 19.6328 3.15655 19.6302 3.11158C19.5588 1.42416 18.1676 0.0726321 16.4643 0.0699872ZM3.17384 1.12793H16.4643C17.5804 1.12793 18.5008 2.01396 18.5723 3.11158H1.06588C1.13729 2.01132 2.06035 1.13058 3.17384 1.12793ZM16.4643 31.9406H3.17384C2.05771 31.9406 1.13729 31.0572 1.06588 29.957H18.5749C18.5035 31.0572 17.5804 31.938 16.4669 31.9406H16.4643ZM18.5802 28.899H1.05795V4.16953H18.5802V28.899ZM35.1476 29.2534L33.8966 24.5033C33.648 23.649 32.9868 22.8661 32.188 22.4747L25.1606 19.2744V17.8382C25.1606 17.8382 25.1844 17.8197 25.1976 17.8091C25.2188 17.7932 25.24 17.7774 25.2611 17.7615C25.3828 17.6716 25.5018 17.579 25.6155 17.4838C25.642 17.4626 25.6684 17.4388 25.6949 17.4177C25.7557 17.3674 25.8139 17.3172 25.8721 17.2643C25.8906 17.2484 25.9091 17.2299 25.9276 17.214C26.0599 17.0923 26.1895 16.968 26.3085 16.8437C27.0147 16.0794 27.5145 15.3441 27.6256 14.5956C27.6679 14.5744 27.7208 14.548 27.779 14.5189L27.869 14.4739C27.869 14.4739 27.8875 14.4634 27.8981 14.4607C27.9404 14.4395 27.9827 14.4157 28.0303 14.3919C28.062 14.3734 28.0938 14.3549 28.1282 14.3364C28.1387 14.3311 28.1493 14.3232 28.1599 14.3179C28.1916 14.2994 28.2234 14.2809 28.2551 14.2623C28.4588 14.1433 28.6783 13.9661 28.8714 13.7307C28.8767 13.7254 28.8793 13.7201 28.8819 13.7149C28.9295 13.6567 28.9772 13.5932 29.0221 13.5244C29.2575 13.1647 29.4241 12.6992 29.4136 12.1253C29.4136 12.0063 29.403 11.882 29.3898 11.7577H30.4715V9.08634H29.1411C29.0539 8.45951 28.9401 7.77448 28.7947 7.01012C28.3239 4.50543 26.4698 2.32341 23.7139 1.45325C23.6213 0.567222 22.8067 0.00386557 21.9445 0.0012207H21.2277V2.24407C21.2515 2.24407 21.2753 2.23878 21.3018 2.23878C21.7329 2.25465 22.1428 2.30225 22.5369 2.37631V6.53933H23.7271V2.70692C25.8774 3.51625 27.2448 5.26451 27.6283 7.23229C27.7579 7.91202 27.861 8.52563 27.943 9.08634H27.5727V10.2739H29.284V10.5701H21.2277V11.7577H28.1943C28.2128 11.8925 28.2234 12.0195 28.2234 12.1253C28.2128 12.4638 28.1493 12.6807 28.0488 12.842C28.0409 12.8526 28.0329 12.8632 28.0276 12.8738C28.0065 12.9055 27.9853 12.9346 27.9589 12.9637C27.8663 13.0695 27.7526 13.1515 27.623 13.2441C27.4484 13.3552 27.2527 13.4424 27.0543 13.5456C26.9538 13.6011 26.8507 13.6567 26.7317 13.7651C26.6179 13.863 26.4619 14.0772 26.4645 14.3549C26.4936 14.5427 26.1419 15.3256 25.4595 16.0106C24.5867 16.9284 23.2352 17.7906 21.799 17.9466C21.7646 17.9493 21.7302 17.9546 21.7064 17.9572C21.6747 17.9572 21.6588 17.9625 21.6588 17.9625C21.6588 17.9625 21.6482 17.9625 21.6271 17.9625C21.6165 17.9625 21.6059 17.9625 21.59 17.9625C21.5662 17.9625 21.5451 17.9625 21.5213 17.9652C21.4922 17.9652 21.4604 17.9704 21.434 17.9704C21.3943 17.9704 21.3494 17.9704 21.3018 17.9704C21.2753 17.9704 21.2515 17.9704 21.2277 17.9704V19.1739C21.2515 19.1739 21.278 19.1739 21.2991 19.1739H21.3018C21.3547 19.1739 21.4102 19.1739 21.4684 19.1739C21.5398 19.1739 21.6033 19.1686 21.6667 19.1633C21.6667 19.1633 21.6985 19.1633 21.762 19.158C21.799 19.1553 21.8016 19.1527 21.8122 19.1527C21.8572 19.1501 21.8942 19.1448 21.9286 19.1421C21.9445 19.1421 21.9603 19.1368 21.9762 19.1342C22.1137 19.1157 22.2513 19.0945 22.3861 19.0681C22.4338 19.0601 22.4814 19.0495 22.529 19.039C22.6718 19.0072 22.812 18.9728 22.9495 18.9332C22.9892 18.9226 23.0262 18.9094 23.0659 18.8961C23.1928 18.8565 23.3198 18.8142 23.4441 18.7666C23.4653 18.7586 23.4891 18.7507 23.5102 18.7427C23.653 18.6872 23.7959 18.6237 23.9334 18.5602C23.9466 18.555 23.9598 18.5497 23.9731 18.5417V20.1075C23.9731 20.6603 23.7033 21.176 23.214 21.5833C22.7379 21.9721 22.0582 22.234 21.2965 22.2472C21.2727 22.2472 21.2489 22.2445 21.2224 22.2419V23.4347H21.2277C21.2515 23.4347 21.2727 23.4347 21.2965 23.4347C21.3203 23.4347 21.3414 23.4347 21.3652 23.4347C22.4179 23.4347 23.3806 23.0883 24.1 22.4985C24.6845 22.0224 25.1077 21.3638 25.2426 20.618L31.6934 23.5564C32.0822 23.7072 32.6641 24.4001 32.7461 24.8074L33.9971 29.5602C34.0103 29.6105 34.0156 29.6528 34.0156 29.6872C33.9918 29.8697 33.9654 29.9332 33.685 29.9596H21.2938H21.2198V31.1445H33.685H33.6903C34.095 31.1445 34.4838 31.0017 34.7641 30.7319C35.0445 30.4648 35.2032 30.0786 35.2005 29.6846C35.2005 29.5391 35.1794 29.3936 35.1423 29.2534H35.1476Z" fill="#236003"/>
</svg>
