<svg width="33" height="33" viewBox="0 0 33 33" fill="none" xmlns="http://www.w3.org/2000/svg">
<path d="M32.8792 27.4387V24.0005H30.6273C30.5549 23.7858 30.469 23.5791 30.3697 23.3778L31.9613 21.7862L29.5322 19.3545L27.9406 20.9461C27.8413 20.8978 27.7366 20.8495 27.6346 20.8065C27.6293 20.8065 27.6266 20.8038 27.6212 20.8011C27.5219 20.7609 27.4199 20.7233 27.3179 20.6884V18.4338H23.8797V20.6857C23.665 20.7582 23.4583 20.8441 23.257 20.9434L21.6654 19.3518L19.2364 21.7835L19.4511 21.9982L19.5048 22.0519L20.828 23.3751C20.7287 23.5764 20.6428 23.7858 20.5703 23.9978H18.3184V27.436H20.5703C20.6428 27.6508 20.7287 27.8574 20.828 28.0587L19.2364 29.6503L21.6654 32.0821L23.257 30.4904C23.3563 30.5388 23.461 30.5871 23.563 30.6273C23.5657 30.6273 23.571 30.63 23.5764 30.6327C23.6757 30.673 23.7777 30.7105 23.8797 30.7454V33H27.3179V30.7481C27.5327 30.6756 27.7393 30.5898 27.9406 30.4904L29.5322 32.0821L31.9613 29.653L31.7466 29.4383L31.6929 29.3846L30.3697 28.0614C30.469 27.8601 30.5549 27.6508 30.6273 27.4387H32.8792ZM29.9697 28.7378L30.885 29.653L29.5296 31.0085L28.6116 30.0932C28.6116 30.0932 28.3647 29.8463 28.0641 29.543C28.0453 29.5537 28.0265 29.5671 28.0077 29.5779C27.9728 29.5993 27.9353 29.6235 27.8977 29.645C27.8923 29.6477 27.8869 29.6503 27.8843 29.653C27.7635 29.7228 27.6373 29.7872 27.5112 29.8463C27.5004 29.8516 27.487 29.857 27.4736 29.8651C27.3421 29.9241 27.2052 29.9805 27.0683 30.0261L27.0495 30.0342C26.9744 30.0583 26.8965 30.0825 26.8187 30.1039C26.808 30.1066 26.7972 30.112 26.7865 30.1147C26.7167 30.1335 26.6469 30.1496 26.5771 30.1657C26.5637 30.1684 26.553 30.171 26.5396 30.1737C26.5423 30.1737 26.5476 30.1737 26.5503 30.1737V32.2431H24.6339V30.1737C24.6339 30.1737 24.6393 30.1737 24.642 30.1737C24.6312 30.1737 24.6205 30.1684 24.6098 30.1657C24.54 30.1496 24.4702 30.1335 24.4004 30.1147C24.3682 30.1066 24.3387 30.0932 24.3065 30.0852C24.2233 30.061 24.1401 30.0342 24.0569 30.0046C24.0461 29.9993 24.0327 29.9939 24.022 29.9912C23.9468 29.9644 23.8717 29.9349 23.7965 29.9026C23.7375 29.8758 23.6811 29.849 23.622 29.8221C23.5952 29.8087 23.5684 29.798 23.5415 29.7845C23.4556 29.7416 23.3697 29.696 23.2865 29.645C23.249 29.6235 23.2114 29.5994 23.1738 29.5752C23.155 29.5645 23.1389 29.5537 23.1201 29.5403L21.6547 31.0058L20.2992 29.6503L21.2172 28.7351L21.7647 28.1849C21.754 28.1688 21.7432 28.1527 21.7325 28.1366C21.7083 28.0963 21.6842 28.056 21.66 28.0158C21.6144 27.9353 21.5688 27.8547 21.5258 27.7715C21.5151 27.7474 21.5017 27.7232 21.4909 27.6991C21.4641 27.6454 21.4399 27.589 21.4158 27.5353C21.3943 27.4843 21.3728 27.4333 21.3514 27.3797C21.3406 27.3528 21.3299 27.3233 21.3192 27.2965C21.2977 27.2347 21.2735 27.1703 21.2547 27.1059C21.2547 27.0978 21.2494 27.0898 21.2467 27.0817C21.2306 27.0227 21.2091 26.9663 21.193 26.91C21.1742 26.8429 21.1581 26.7758 21.1447 26.7087C21.1447 26.6979 21.1393 26.6872 21.1366 26.6765H19.0673V24.7601H21.1366C21.1366 24.7601 21.142 24.7386 21.1447 24.7252C21.1608 24.6581 21.1742 24.5937 21.193 24.5292C21.2172 24.4353 21.2467 24.344 21.2789 24.2528C21.2869 24.2313 21.295 24.2125 21.3004 24.1911C21.3218 24.1266 21.3487 24.0622 21.3728 24.0005C21.3836 23.971 21.397 23.9414 21.4104 23.9119C21.4346 23.8582 21.4587 23.8046 21.4856 23.7536C21.5017 23.724 21.5151 23.6918 21.5312 23.6596C21.5312 23.6596 21.5312 23.6596 21.5312 23.6569C21.5715 23.5791 21.6117 23.5013 21.6573 23.4261C21.6815 23.3832 21.7083 23.3429 21.7325 23.3C21.7432 23.2839 21.754 23.2678 21.762 23.2516L21.2145 22.7014L20.2965 21.7862L21.652 20.4307L22.5672 21.346C22.5672 21.346 22.8142 21.5929 23.1148 21.8962C23.1336 21.8855 23.1523 21.8721 23.1711 21.8613C23.206 21.8399 23.2436 21.8157 23.2812 21.7942C23.2865 21.7915 23.2919 21.7889 23.2946 21.7862C23.4154 21.7164 23.5415 21.652 23.6677 21.5929C23.6784 21.5876 23.6918 21.5822 23.7026 21.5741C23.8341 21.5151 23.971 21.4614 24.1078 21.4131C24.1132 21.4131 24.1213 21.4077 24.1293 21.405C24.2045 21.3809 24.2823 21.3567 24.3601 21.3353C24.3709 21.3326 24.3816 21.3272 24.3924 21.3245C24.4621 21.3057 24.5319 21.2896 24.6017 21.2735C24.6151 21.2708 24.6259 21.2682 24.6393 21.2655C24.6366 21.2655 24.6339 21.2655 24.6285 21.2655V19.1961H26.5449V21.2655C26.5449 21.2655 26.5396 21.2655 26.5369 21.2655C26.5476 21.2655 26.5584 21.2708 26.5691 21.2735C26.6389 21.2896 26.7087 21.3057 26.7784 21.3245C26.8107 21.3326 26.8402 21.3433 26.8724 21.354C26.9556 21.3782 27.0388 21.405 27.122 21.4346C27.1354 21.4399 27.1462 21.4453 27.1596 21.448C27.2347 21.4748 27.3099 21.5044 27.3824 21.5366C27.4414 21.5634 27.5004 21.5902 27.5595 21.6198C27.5863 21.6332 27.6105 21.6412 27.6373 21.6547C27.7232 21.6976 27.8091 21.7432 27.8923 21.7942C27.9299 21.8157 27.9675 21.8399 28.005 21.864C28.0238 21.8747 28.0399 21.8855 28.0587 21.8989L29.5242 20.4334L30.8796 21.7889L29.9644 22.7041L29.4142 23.2543C29.4249 23.2704 29.4356 23.2865 29.4464 23.3026C29.4705 23.3429 29.4947 23.3832 29.5188 23.4234C29.5645 23.5039 29.6101 23.5845 29.6503 23.6677C29.6611 23.6918 29.6745 23.716 29.6852 23.7428C29.7121 23.7965 29.7362 23.8529 29.7604 23.9065C29.7819 23.9575 29.8033 24.0112 29.8248 24.0622C29.8355 24.0891 29.8463 24.1186 29.857 24.1454C29.8785 24.2072 29.9026 24.2716 29.9214 24.336C29.9214 24.344 29.9268 24.3521 29.9295 24.3575C29.9483 24.4165 29.9671 24.4729 29.9832 24.5319C30.002 24.599 30.0181 24.6661 30.0342 24.7332C30.0342 24.744 30.0395 24.7547 30.0422 24.7654H32.1116V26.6818H30.0422C30.0422 26.6818 30.0368 26.7033 30.0342 26.7167C30.0181 26.7838 30.0046 26.8482 29.9858 26.9126C29.9617 27.0066 29.9322 27.0978 29.9 27.1891C29.8919 27.2106 29.8839 27.2294 29.8785 27.2508C29.857 27.3153 29.8302 27.3797 29.806 27.4414C29.7953 27.4709 29.7819 27.5004 29.7684 27.53C29.7443 27.5837 29.7201 27.6373 29.696 27.6883C29.6799 27.7205 29.6665 27.7501 29.6503 27.7823C29.6503 27.7823 29.6503 27.7823 29.6503 27.785C29.6101 27.8628 29.5698 27.9406 29.5242 28.0158C29.5 28.0587 29.4732 28.1017 29.4464 28.1419C29.4356 28.158 29.4249 28.1741 29.4168 28.1902L29.9671 28.7405L29.9697 28.7378ZM25.5948 22.4438C23.7858 22.4438 22.3203 23.9092 22.3203 25.7183C22.3203 27.5273 23.7858 28.9928 25.5948 28.9928C27.4038 28.9928 28.8693 27.5273 28.8693 25.7183C28.8693 23.9092 27.4038 22.4438 25.5948 22.4438ZM25.5948 28.2359C24.2045 28.2359 23.0799 27.1086 23.0799 25.7209C23.0799 24.3306 24.2072 23.2087 25.5948 23.206C26.9851 23.206 28.107 24.3333 28.1097 25.7209C28.1097 27.1113 26.9824 28.2332 25.5948 28.2359ZM2.49345 25.1761C2.57666 24.7628 3.16983 24.0595 3.56438 23.9065L10.2368 20.8682C10.363 21.6493 10.7978 22.3364 11.4071 22.8329C12.1371 23.4288 13.1141 23.7831 14.1824 23.7831C15.2506 23.7831 16.2276 23.4315 16.9576 22.8329C17.685 22.2398 18.1708 21.3755 18.1681 20.4039H16.9657C16.9657 20.9649 16.6919 21.4882 16.1954 21.9016C15.6988 22.3096 14.9849 22.578 14.1824 22.578C13.3798 22.578 12.6659 22.3096 12.1693 21.9016C11.6701 21.4882 11.399 20.9675 11.399 20.4039V18.815C12.0351 19.1183 12.733 19.3384 13.4738 19.4242C13.5087 19.4242 13.5462 19.4323 13.5946 19.435C13.6053 19.435 13.608 19.435 13.6455 19.4403C13.71 19.4457 13.7395 19.4457 13.7395 19.4457C13.8039 19.4511 13.871 19.4538 13.9408 19.4564C14.0025 19.4564 14.0589 19.4564 14.1126 19.4564C14.1662 19.4564 14.2226 19.4564 14.2843 19.4564C14.3568 19.4564 14.4212 19.4511 14.483 19.4457C14.4883 19.4457 14.5179 19.4457 14.5796 19.4403C14.6198 19.4377 14.6225 19.435 14.6225 19.435C14.6816 19.4296 14.7165 19.4242 14.746 19.4216C16.5899 19.2095 18.1547 18.1815 19.1988 17.0945C19.9154 16.3188 20.42 15.5727 20.5354 14.8131C20.7179 14.7192 21.1044 14.5527 21.4668 14.2602C21.9311 13.8978 22.3579 13.2215 22.3471 12.3035C22.3471 12.1828 22.3364 12.0566 22.3257 11.9305H23.4207V9.2196H22.0707C21.9821 8.58349 21.8667 7.88833 21.7191 7.11265C21.2413 4.57088 19.3598 2.35657 16.5631 1.47353C16.4691 0.57438 15.6425 0.00268402 14.7675 0H13.463C12.588 0 11.7614 0.57438 11.6674 1.47353C8.87068 2.35657 6.98918 4.57088 6.51143 7.11265C6.36381 7.88833 6.25108 8.58349 6.15982 9.2196H4.80708V11.9305H5.90484C5.89142 12.0593 5.88337 12.1854 5.88337 12.3035C5.8619 13.4362 6.5168 14.1582 7.06165 14.4749C7.31932 14.636 7.55819 14.7433 7.69508 14.8158C7.81049 15.5754 8.31509 16.3242 9.03172 17.0972C9.36991 17.4488 9.76177 17.7924 10.1993 18.1064V19.5638L3.06783 22.8115C2.25458 23.2087 1.58625 24.0005 1.33396 24.8701L0.0590484 29.6906C0.0214721 29.8329 0 29.9805 0 30.1281C0 30.528 0.158357 30.9199 0.442863 31.191C0.724685 31.4647 1.11924 31.6097 1.53257 31.6097H17.8702V30.4046H1.53794C1.25344 30.375 1.2266 30.3106 1.20244 30.1254C1.20244 30.0905 1.20781 30.0476 1.22123 29.9966L2.49077 25.1734L2.49345 25.1761ZM6.00952 10.7253V10.4247H7.74608V9.2196H7.373C7.4562 8.65059 7.56088 8.0279 7.6924 7.33811C8.08158 5.33851 9.46922 3.56169 11.654 2.74307V6.63221H12.8591V2.40756C13.2564 2.33241 13.6751 2.2841 14.1126 2.268C14.5501 2.2841 14.9688 2.33241 15.366 2.40756V6.63221H16.5711V2.74307C18.7559 3.56169 20.1436 5.33851 20.5327 7.33811C20.6643 8.0279 20.7689 8.65059 20.8521 9.2196H20.4764V10.4247H22.2129V10.7253H6.00952ZM9.89061 16.2464C9.19813 15.5512 8.84116 14.7567 8.87068 14.5662C8.87068 14.2843 8.71232 14.0669 8.59691 13.9676C8.38756 13.7824 8.21846 13.7234 8.04669 13.6294C7.78902 13.5033 7.54209 13.3637 7.37568 13.1785C7.21196 12.9906 7.09118 12.7732 7.08312 12.3035C7.08312 12.1935 7.09386 12.0673 7.11265 11.9305H21.1071C21.1259 12.0673 21.1366 12.1962 21.1366 12.3035C21.1152 13.0014 20.8763 13.1919 20.5274 13.4389C20.3502 13.5516 20.1516 13.6402 19.9503 13.7449C19.8483 13.8012 19.7436 13.8576 19.6229 13.9676C19.5074 14.0669 19.3491 14.2843 19.3518 14.5662C19.3813 14.7567 19.0243 15.5512 18.3318 16.2464C17.4461 17.1777 16.0746 18.0527 14.6172 18.2111C14.5823 18.2137 14.5474 18.2191 14.5232 18.2218C14.491 18.2218 14.4749 18.2272 14.4749 18.2272C14.4776 18.2272 14.4561 18.2272 14.3998 18.2299C14.3461 18.2325 14.2951 18.2352 14.2468 18.2379C14.2065 18.2379 14.1609 18.2379 14.1126 18.2379C14.0643 18.2379 14.0186 18.2379 13.9784 18.2379C13.9327 18.2379 13.8791 18.2325 13.8227 18.2299C13.7744 18.2299 13.7502 18.2272 13.7475 18.2272C13.7475 18.2272 13.7314 18.2245 13.6912 18.2218C13.6778 18.2218 13.6429 18.2164 13.5999 18.2111C12.1479 18.0527 10.779 17.1777 9.89329 16.249L9.89061 16.2464Z" fill="#236003"/>
</svg>
