<svg width="21" height="33" viewBox="0 0 21 33" fill="none" xmlns="http://www.w3.org/2000/svg">
<path d="M13.5225 31.6338L13.5223 31.6339C12.9995 31.8997 12.4524 32.1272 11.8879 32.3193V27.2107L16.7562 22.3424L16.7573 22.3413C17.175 21.921 17.1766 21.2385 16.7562 20.8181C16.5473 20.6092 16.2693 20.5029 15.9954 20.5029C15.7262 20.5029 15.4448 20.6047 15.2325 20.8188C15.232 20.8193 15.2316 20.8198 15.2311 20.8203L11.8893 24.1621V18.559L16.7576 13.6894C16.7576 13.6894 16.7576 13.6893 16.7576 13.6893C17.1779 13.2689 17.1764 12.5865 16.7587 12.1662L16.7576 12.1651C16.5487 11.9562 16.2707 11.8499 15.9968 11.8499C15.7275 11.8499 15.446 11.9517 15.2337 12.1661C15.2333 12.1665 15.2329 12.1669 15.2325 12.1673L11.8907 15.5102V8.49544C11.8907 8.07685 11.7196 7.69818 11.4471 7.42502C11.1723 7.1467 10.7901 6.97883 10.3741 6.97883C9.5378 6.97883 8.85609 7.65964 8.85609 8.49544V15.509L5.51213 12.1651C5.30325 11.9562 5.0253 11.8499 4.75137 11.8499C4.48179 11.8499 4.20002 11.952 3.98758 12.1667C3.57041 12.5871 3.56903 13.2692 3.98923 13.6894L8.85749 18.5576V24.161L5.51352 20.8181C5.5135 20.8181 5.51348 20.8181 5.51346 20.818C5.30459 20.6092 5.02667 20.5029 4.75277 20.5029C4.48341 20.5029 4.20189 20.6048 3.98952 20.8192C3.57024 21.2397 3.57217 21.9214 3.98953 22.3413L3.99067 22.3424L8.85888 27.2093V32.3191C8.29452 32.1267 7.74717 31.8986 7.22388 31.6336C1.37192 28.6645 -0.282696 22.3203 0.81816 15.8904C1.90189 9.56054 5.63406 3.35258 10.3713 0.57589C15.1092 3.35256 18.8411 9.56052 19.925 15.8904C21.026 22.3205 19.372 28.6648 13.5225 31.6338Z" fill="#236003" fill-opacity="0.2" stroke="#236003"/>
</svg>
