<svg width="33" height="33" viewBox="0 0 33 33" fill="none" xmlns="http://www.w3.org/2000/svg">
<g clip-path="url(#clip0_393_4655)">
<path fill-rule="evenodd" clip-rule="evenodd" d="M16.3618 2.0177C16.5202 2.2676 16.1271 2.54799 16.0235 2.76132C15.8223 2.46875 16.3313 2.30418 16.3618 2.0177Z" fill="#236003"/>
<path fill-rule="evenodd" clip-rule="evenodd" d="M11.8241 7.23523C11.8363 7.4699 11.7997 7.75637 12.0283 7.77771C11.2725 9.14304 9.68164 9.67637 9.38602 11.5049C8.74602 12.084 9.02031 13.5804 8.37117 14.1472C7.18869 14.1503 7.07593 12.7545 6.06717 12.3857C5.82641 12.4436 5.4485 12.6326 5.18641 12.4528C4.82983 12.5686 4.69574 12.9099 4.30564 12.9952C2.96164 14.6166 4.30564 16.951 5.25345 18.2798C6.3506 19.8188 8.30412 20.9952 10.1296 21.3274C10.3216 21.5621 9.55669 21.7998 10.1296 21.8699C9.69993 22.6288 8.82831 22.8208 8.30107 23.4973C7.61231 24.3811 7.37764 25.5423 7.14907 26.9503C6.77117 26.9868 6.80164 27.2368 6.6066 27.5598C6.09155 27.5354 5.99098 27.0905 5.52164 27.0173C5.40279 26.5053 4.9365 26.3987 4.57383 26.0695C3.76926 25.3381 3.51631 24.0916 2.47402 23.6985C2.41307 23.159 2.08393 23.1194 1.8645 22.7507C1.61764 22.3392 1.4226 21.6779 1.11783 21.1263C0.706405 20.3766 0.322405 19.9133 0.170024 19.0265C-0.5035 15.0981 0.883167 12.7545 2.54107 10.356C2.86717 9.88361 3.38831 8.95409 3.35479 8.66152C3.29079 8.11294 2.38869 7.77161 1.93155 7.71371C1.8584 7.27485 1.68164 6.98228 1.8645 6.56171C4.94869 5.50723 9.24888 5.96742 11.8211 7.23828L11.8241 7.23523ZM5.99707 6.35447C5.94526 6.36971 5.86298 6.35447 5.85993 6.42152C5.91174 6.40628 5.99402 6.42152 5.99707 6.35447ZM7.48736 6.69275C5.72888 6.5678 3.17498 6.25694 2.13574 7.23523C3.0744 7.74113 3.89117 8.36894 4.57383 9.13085C2.29421 10.4992 -0.281024 14.0284 0.715548 17.7343C0.758214 16.8291 0.76431 15.8874 1.05383 15.2291C1.18183 15.2139 1.20317 15.3053 1.32507 15.2962C1.52926 13.9948 2.61117 12.727 3.62907 11.9773C4.37879 11.4227 5.29612 10.9107 6.20431 10.8253C6.73764 11.0387 7.01193 11.508 7.5605 11.7061C8.5205 10.0939 9.4104 8.40856 11.3548 7.77771C10.3338 6.74456 8.2066 6.45504 6.41155 6.42456C6.79555 6.49161 7.34717 6.39104 7.4965 6.6958L7.48736 6.69275ZM7.75859 11.9072C7.79212 12.1449 7.85917 12.3491 7.82564 12.6508C8.4565 11.5872 9.12393 10.3103 9.8584 9.39904C10.1083 9.09123 10.5502 8.8078 10.4679 8.45123C9.29155 9.32894 8.47479 10.5663 7.75859 11.9072ZM6.74374 12.0413C6.56698 12.0139 6.53955 11.8402 6.3384 11.8371C6.30488 12.0322 6.7285 12.1175 6.74374 12.0413ZM5.25345 12.1754C5.41498 12.1358 5.74412 12.2608 5.79593 12.1084C5.65269 11.9895 5.31136 11.8981 5.25345 12.1754ZM7.28621 12.3796C7.11555 12.3644 6.9144 12.0352 6.81079 12.1754C6.99669 12.212 7.15517 12.6996 7.28621 12.3796ZM7.75859 13.5987C7.72812 13.4707 7.85002 13.1903 7.6245 13.2604C7.51783 13.3609 7.6245 13.5468 7.75859 13.5987ZM2.54412 16.1739C2.35212 16.5061 2.67212 15.9545 2.54412 16.1739V16.1739ZM3.29079 16.308C3.37002 16.0398 3.37002 16.5762 3.29079 16.308V16.308ZM2.34298 18.1366C2.54717 17.6185 3.18412 17.1735 3.01955 16.5091C2.76355 16.9754 2.37955 17.6733 2.34298 18.1366ZM2.13879 16.8505C2.11136 16.823 2.1845 16.8962 2.13879 16.8505V16.8505ZM1.8005 17.527C1.87974 17.2588 1.87974 17.7952 1.8005 17.527V17.527ZM3.49498 17.527C3.05307 18.3042 2.29421 19.0508 2.27593 20.0322C2.81231 19.2977 3.51936 18.3926 3.69917 17.527H3.49498ZM1.25802 18.0025C1.25802 17.9019 1.28241 17.4478 1.19098 17.6642C1.19098 17.7648 1.1666 18.2188 1.25802 18.0025ZM1.73345 17.9354C1.67555 18.3377 1.77307 17.6642 1.73345 17.9354V17.9354ZM2.13879 22.2722C2.1266 22.0345 2.36736 22.0497 2.41002 21.8668C1.39212 21.1568 1.27021 19.5872 0.785643 18.2097C0.797834 19.5903 1.46526 21.1446 2.14183 22.2752L2.13879 22.2722ZM2.20583 18.2768C2.1784 18.2493 2.25155 18.3194 2.20583 18.2768V18.2768ZM2.07174 18.548C2.04431 18.5206 2.1144 18.5937 2.07174 18.548V18.548ZM2.20583 19.4288C2.34298 19.1362 2.44355 18.8101 2.54412 18.4809H2.33993C2.29421 18.8223 1.9346 19.1667 2.20279 19.4288H2.20583ZM4.03441 18.548C4.11364 18.2798 4.11364 18.8162 4.03441 18.548V18.548ZM4.37269 18.615C4.34526 18.5876 4.41841 18.6608 4.37269 18.615V18.615ZM3.55898 19.1575C3.54679 19.0783 3.57117 18.9655 3.49193 18.9533C3.15974 19.5263 2.81841 20.087 2.74526 20.919C3.34869 20.4131 3.84241 19.4409 3.96431 18.6851C3.75098 18.7644 3.86679 19.1728 3.55898 19.1606V19.1575ZM0.44431 18.8863C0.416881 18.8588 0.490024 18.932 0.44431 18.8863V18.8863ZM3.55898 18.8863C3.53155 18.8588 3.60469 18.932 3.55898 18.8863V18.8863ZM3.22069 22.1381C3.68088 21.0501 4.76279 20.1358 4.57688 18.8192C3.9125 19.6695 3.29383 20.9221 3.22069 22.1381ZM0.511357 19.0874C0.483929 19.06 0.554024 19.1301 0.511357 19.0874V19.0874ZM3.76317 23.1529C4.00088 23.2779 4.0466 23.5918 4.30564 23.6954C4.44583 22.2082 5.38755 20.8093 5.18641 19.4288C4.36964 20.5107 4.24164 21.812 3.76317 23.156V23.1529ZM0.715548 19.6969C0.688119 19.6695 0.758214 19.7427 0.715548 19.6969V19.6969ZM2.54412 20.7118C2.51669 20.343 2.85193 19.9834 2.74831 19.764C2.57764 20.0931 2.14793 20.3217 2.54412 20.7118ZM4.37269 23.8265C4.06488 23.8813 3.97041 23.3724 3.76317 23.5552C4.54641 24.3293 5.02183 25.4112 6.20126 25.7891C6.69802 24.1434 7.22831 22.5251 8.7765 21.9278C8.01155 21.4524 7.32279 20.8977 6.5426 20.4375C6.2165 21.9187 5.64964 23.159 5.2565 24.5701C5.29002 24.8505 5.71669 24.7438 5.72888 25.0455C5.52469 24.9388 5.24431 24.8352 5.11936 24.8413C5.33879 23.1194 6.00926 21.8486 6.3384 20.2364C6.12812 20.0627 5.92393 19.8828 5.59174 19.831C5.26564 21.1293 4.82679 22.4855 4.37269 23.8265ZM1.86755 20.3034C1.88583 20.1632 2.05041 20.404 2.07174 20.1663C1.90717 20.1937 2.10831 19.8585 1.86755 19.9651C1.95593 20.1328 1.66945 20.2455 1.86755 20.3034ZM2.07174 20.4375C2.15098 20.1693 2.15098 20.7057 2.07174 20.4375V20.4375ZM3.01955 21.7937C3.00431 21.4829 3.28164 21.111 3.15669 20.9129C3.02869 21.1415 2.59288 21.6169 3.01955 21.7937ZM3.22374 22.4703C3.3365 22.6288 3.41879 22.8147 3.62907 22.8756C3.69307 22.2387 4.1106 21.5956 4.03441 21.047C3.84545 21.6048 3.41574 21.9187 3.22069 22.4703H3.22374ZM9.52317 21.5225C9.17574 21.5499 8.92583 21.1293 8.64241 21.3183C8.89231 21.5133 9.27326 21.6657 9.52317 21.5225ZM2.20888 22.5373C2.34907 22.7354 2.43745 22.9853 2.68431 23.0798C2.99821 22.7049 2.62336 22.2508 2.41307 21.9948C2.45879 22.2905 2.21802 22.2966 2.20888 22.5373ZM2.75136 23.2139C3.13231 23.6436 3.4706 24.119 3.97041 24.4329C3.83936 23.9697 3.22679 23.4211 2.8885 22.9427C2.93726 23.1286 2.75441 23.0798 2.75136 23.2139ZM7.15517 24.0947C6.78031 24.7529 7.45688 24.2562 7.35936 23.8234C7.28621 23.9728 7.20088 24.0185 7.15517 24.0947ZM3.97041 24.7712C4.36355 25.5088 5.09193 25.908 5.59479 26.5328C5.91479 26.2981 5.88431 26.5328 6.13726 26.6668V26.1244C5.21383 25.8501 4.79326 25.076 4.1045 24.567C4.09841 24.6737 3.93079 24.6188 3.96736 24.7712H3.97041Z" fill="#236003"/>
<path fill-rule="evenodd" clip-rule="evenodd" d="M28.7591 6.75979C29.9355 7.23826 30.4962 6.40017 31.1302 5.94607C31.9286 6.84817 31.9225 9.09426 31.6726 10.6882C31.3252 12.8977 30.5846 15.1925 29.9782 16.7834C29.5881 16.8596 29.7557 16.372 29.5728 16.2409C29.0882 15.6192 28.7134 14.8878 27.9484 14.5465C27.2749 13.4798 26.062 12.9556 25.1721 12.1084C24.4041 11.9285 24.0079 11.3769 23.2063 11.2276C23.2399 10.8345 23.0113 10.6821 23.2063 10.1426C23.7519 9.74645 24.7393 10.0817 25.4402 9.80436C25.806 9.66112 26.4612 9.12169 26.4551 8.7895C26.4551 8.4695 25.489 7.72283 25.2361 7.57045C24.0841 6.87255 22.2738 6.70493 20.6281 6.75674C19.0829 6.80855 17.4128 7.09198 16.6997 7.7716C16.0871 7.56131 15.5903 8.25617 15.0052 8.10988C14.3317 7.94226 14.5237 6.94264 14.3286 6.21426C14.2342 5.86379 13.8776 5.42493 13.585 4.92817C13.0456 4.01083 12.561 2.85883 11.6193 2.49007C11.8357 2.16093 11.4303 2.22798 11.4151 1.94759C11.5218 1.91712 11.473 1.73426 11.6863 1.81045C11.665 1.56055 11.2536 1.70074 11.3481 1.33807C13.1553 0.682833 15.4867 0.560928 17.5134 0.527404C18.8818 0.503023 20.5214 0.420737 21.7801 0.731595C22.5724 0.926642 23.438 1.35636 24.2182 1.74645C25.0044 2.13959 25.8578 2.48702 26.385 2.9655C26.5526 3.11788 26.6044 3.37388 26.7903 3.57502C27.0281 3.83407 27.409 4.00169 27.6041 4.2516C28.1404 4.94645 28.3507 5.90036 28.7561 6.75674L28.7591 6.75979ZM16.7698 0.86569C15.8555 0.853499 14.9747 0.87788 14.2646 1.06988C14.8924 1.1034 16.3065 0.99369 16.7698 0.86569ZM17.5134 0.86569C17.4616 0.880928 17.3793 0.86569 17.3793 0.932737C17.4311 0.917499 17.5134 0.932737 17.5134 0.86569ZM21.4418 1.06988C21.4143 1.04245 21.4875 1.11559 21.4418 1.06988V1.06988ZM14.1275 1.06988C14.0757 1.08512 13.9934 1.06988 13.9934 1.13693C14.0452 1.12169 14.1275 1.13693 14.1275 1.06988ZM13.7892 1.13693C13.3564 1.05769 13.6399 1.34417 13.7892 1.13693V1.13693ZM20.9023 1.27102C20.6463 1.29845 20.3202 1.0455 20.1587 1.20398C20.3995 1.21312 20.753 1.59102 20.9023 1.27102ZM17.1781 1.20398C16.8947 1.32893 16.8216 2.01769 16.5016 1.88055C16.5229 1.56359 16.846 1.54531 16.8399 1.20398C15.0082 1.34417 13.3717 1.31369 11.9637 1.6794C13.7465 2.76436 14.3469 5.03179 15.5538 6.69274C17.4372 6.45807 18.9458 5.79979 20.6341 5.94607C20.689 5.75407 20.5397 5.76931 20.5671 5.60779C21.2955 4.59598 21.9599 3.52321 22.5999 2.42302C22.4902 2.32855 22.2494 2.36512 22.1945 2.21883C21.0852 3.07217 20.5305 4.84588 19.3511 5.40359C20.2319 4.36436 21.0242 3.23979 21.7892 2.08474C21.5454 1.96893 21.1248 1.73731 20.9084 1.8135C19.8235 3.30074 18.6441 5.05921 17.3854 6.15026C18.4612 4.65083 19.6833 3.30074 20.6372 1.6794C20.2837 1.64893 20.0703 1.47826 19.7564 1.40817C18.769 2.70036 17.8303 4.40702 16.6387 5.2695C17.6505 4.04436 18.5861 2.74607 19.4151 1.34112C19.2079 1.26188 19.0982 1.2954 18.7385 1.27407C17.6566 2.15483 16.9282 3.75179 16.0292 4.59293C16.6875 3.44702 17.7145 2.30112 18.1961 1.20702C18.0833 1.24969 17.5042 1.17655 17.1812 1.20702L17.1781 1.20398ZM23.5446 2.15179C23.3191 2.03598 22.9442 1.71598 22.6639 1.88055C22.9595 1.92626 23.313 2.26759 23.5446 2.15179ZM13.0456 2.9655C12.9023 2.59064 12.7134 2.25845 12.369 2.08474C12.4269 2.54493 12.7042 2.78874 13.0456 2.9655ZM25.102 2.56017C25.2635 2.71559 24.7423 2.13959 24.6265 2.35598C24.7972 2.41388 24.8917 2.54188 25.102 2.56017ZM24.017 2.56017C23.9896 2.53274 24.0627 2.60588 24.017 2.56017V2.56017ZM28.2837 6.62569C27.8814 5.56207 27.1561 4.45579 26.3881 3.9834C27.2871 4.66607 27.3481 6.16855 28.2837 6.62569ZM24.1511 2.56017C24.3583 3.14836 24.9252 3.32512 25.3031 3.71217C26.3484 4.78493 26.9549 6.26912 27.6071 7.64055C27.47 8.03369 27.6833 8.52131 27.6071 9.06379C26.8604 10.2615 25.5073 10.8924 23.8829 11.0295C25.7206 12.0139 27.2719 13.2847 28.558 14.8238C28.9907 14.8969 29.4204 15.6649 29.6429 15.5004C30.1884 13.3365 31.2795 10.2524 30.3865 7.91483C30.0086 8.36283 29.3442 8.26836 28.7621 8.39026C27.6223 6.05579 26.5922 3.6055 24.1572 2.56626L24.1511 2.56017ZM22.9991 2.62721C22.1062 3.49579 21.4722 4.62036 20.8993 5.81198C21.6246 5.76626 22.0422 5.04702 22.3896 4.59293C22.7949 4.06264 23.1271 3.46531 23.5416 2.9655C23.3282 2.88321 23.246 2.67293 22.9991 2.62721ZM26.318 3.37083C26.1717 3.26721 25.9187 2.91674 25.7755 3.03255C25.9705 3.09045 26.1503 3.51407 26.318 3.37083ZM23.8128 3.16664C23.0235 3.95598 22.4414 4.9556 21.713 5.80893C21.9202 5.76017 21.9599 5.87902 22.1214 5.87598C23.0174 5.26036 23.3983 4.12664 24.2212 3.43788C24.1785 3.25502 24.0353 3.17274 23.8159 3.16664H23.8128ZM24.4223 3.57198C23.7549 4.32779 23.1789 5.17502 22.5267 5.94302C22.734 5.89426 22.7736 6.01312 22.9321 6.01007C23.5142 5.6474 23.7366 4.79102 24.1511 4.24855C24.3035 4.05045 24.657 3.96817 24.6235 3.70607C24.5961 3.62074 24.5351 3.56588 24.4223 3.56893V3.57198ZM23.2703 6.07712C23.4623 6.02226 23.4471 6.1716 23.6086 6.14417C24.078 5.52855 24.7271 4.73617 24.9648 4.1114C24.0597 4.53502 23.9195 5.35483 23.2703 6.07407V6.07712ZM24.4894 6.4154C24.9161 6.33007 25.6109 5.25426 25.5042 4.85807C25.1599 5.37312 24.6905 5.76017 24.4894 6.4154ZM23.9469 6.28131C24.5595 6.08321 24.6997 5.40969 25.0319 4.92512C24.4284 5.1354 24.2669 5.78455 23.9469 6.28131ZM14.3286 5.67178C14.2768 5.5194 14.289 5.30302 14.1244 5.26645C14.1214 5.47369 14.1854 5.61083 14.3286 5.67178ZM24.9648 6.6196C25.4921 6.51902 25.8669 5.60474 25.7785 5.3335C25.5256 5.7815 25.1842 6.13807 24.9648 6.6196ZM25.5073 6.82379C25.7633 6.62569 26.0376 6.09236 26.0498 5.87598C25.9004 6.2234 25.5561 6.37579 25.5073 6.82379ZM14.5999 6.21426C14.7644 6.56169 14.7766 5.97959 14.5999 6.21426V6.21426ZM25.8456 6.95788C25.9248 7.01579 26.0254 7.04626 26.1839 7.02493C26.1839 6.81769 26.4551 6.53426 26.2509 6.34836C26.1138 6.5495 25.9492 6.72626 25.8456 6.95788ZM14.8041 6.82379C14.8833 6.55559 14.8833 7.09198 14.8041 6.82379V6.82379ZM24.7606 7.02798C24.3675 6.83293 24.5839 7.19559 24.7606 7.02798V7.02798ZM26.385 7.23217C26.257 7.49121 26.5648 6.8756 26.385 7.23217V7.23217ZM31.1271 7.6375C31.0631 7.51255 31.3313 7.41198 31.1271 7.36626C31.0692 7.48512 30.9016 7.57655 31.1271 7.6375ZM29.2315 7.90874H29.3656V7.7716H29.2315V7.90874ZM29.774 7.7716C29.7221 7.78683 29.6399 7.7716 29.6368 7.83864C29.6886 7.8234 29.7709 7.83864 29.774 7.7716ZM27.1987 8.92359C27.278 8.6554 27.278 9.19178 27.1987 8.92359V8.92359ZM31.1972 10.2097C31.1484 9.77083 31.3618 9.46912 31.1302 9.19483C31.2094 9.52398 30.9869 10.1914 31.1972 10.2097ZM24.017 10.2767C23.9256 10.2554 23.889 10.1792 23.7458 10.2097C23.6361 10.3986 24.0383 10.3956 24.017 10.2767ZM30.926 12.0383C30.9991 11.6055 31.3008 10.7095 31.0601 10.4108C30.9077 11.0722 30.7858 11.4318 30.926 12.0383Z" fill="#236003"/>
<path fill-rule="evenodd" clip-rule="evenodd" d="M31.9422 18.4108C32.2286 18.3072 31.9269 18.7857 32.2134 18.6821C31.7563 20.6417 31.1315 22.4337 30.4519 24.1678C30.3025 24.2044 30.3543 24.0398 30.2477 24.0337C30.2142 24.372 29.9642 24.5853 29.7753 24.9145C29.6138 25.1948 29.5376 25.6002 29.3669 25.8623C29.2023 26.1213 28.8001 26.3529 28.5532 26.676C28.1418 27.2154 28.0747 27.6908 27.3342 27.828C26.1852 28.7179 24.9022 29.4188 23.2016 29.8608C21.562 30.2874 19.3616 30.0436 18.1212 30.8756C18.0359 31.476 18.3589 32.0947 18.0542 32.5C16.3231 32.2684 15.5947 31.031 14.2599 30.4002C14.1044 29.7907 13.4705 29.495 13.1079 29.044C12.2362 27.9621 11.4865 26.7827 11.2793 25.2497C14.3086 25.2314 16.8808 23.9423 19.002 22.6074C18.5052 24.0947 17.2679 27.188 20.4252 26.8741C21.3182 26.7857 22.7932 26.1396 23.4728 25.5179C25.1002 24.0367 25.8103 20.983 25.5056 18.9472C25.8408 18.8771 25.8286 19.1545 26.1822 18.8802C27.9498 19.7061 30.461 19.3282 31.8721 18.4048H31.9391L31.9422 18.4108ZM31.805 18.8863C31.7776 18.8588 31.8507 18.932 31.805 18.8863V18.8863ZM30.7902 19.4958C30.7627 19.4684 30.8359 19.5415 30.7902 19.4958V19.4958ZM28.6233 19.6299C28.9342 19.6025 29.3883 19.7183 29.5041 19.4958C29.1932 19.4806 28.5989 19.5385 28.6233 19.6299ZM28.285 19.6299C28.2576 19.6025 28.3277 19.6756 28.285 19.6299V19.6299ZM26.1182 20.1053C26.1456 21.2787 25.6762 22.4428 25.5086 23.3571C25.2587 24.7164 25.0454 25.7068 24.5608 26.6089C24.445 26.8253 24.3292 27.0874 24.2225 27.2855C23.4637 28.6996 22.1867 28.9739 20.8366 29.7907C20.7665 29.7206 20.3521 29.6505 20.2942 29.7907C26.5022 29.7023 30.0496 25.6611 30.9303 20.0352C29.5894 20.596 27.261 20.7209 26.1212 19.9011V20.1053H26.1182ZM17.786 23.8996C17.9566 23.5735 18.2004 23.8204 17.786 23.8996V23.8996ZM16.0915 24.5762C16.1067 24.4908 16.1982 24.439 16.0244 24.4421C15.0187 25.0181 13.7448 25.3228 12.3002 25.4569C13.6564 25.7769 15.0035 24.9663 16.0945 24.5762H16.0915ZM13.4492 27.1514C13.5254 26.7979 13.8302 26.6729 13.9917 26.4048C13.4035 26.6608 12.7665 27.2916 13.6534 27.6238C14.4244 26.612 15.4058 25.8074 16.2957 24.9145C16.3109 24.8291 16.4023 24.7743 16.2286 24.7804C15.1254 25.3929 14.4884 26.4718 13.4522 27.1514H13.4492ZM17.5117 24.8474C17.3258 25.0547 17.7189 24.6615 17.5117 24.8474V24.8474ZM13.9886 28.3705C14.1044 28.3674 14.1623 28.4223 14.1928 28.5076C14.7079 28.1419 15.4667 27.6604 15.6831 27.2215C15.6191 27.3404 15.4698 27.3708 15.2778 27.3556C15.8629 26.5632 17.0332 25.9964 17.2435 25.0516C16.3262 26.3255 15.0644 27.252 13.9917 28.3705H13.9886ZM12.9037 26.8802C13.4279 26.4779 14.205 25.9689 14.461 25.524C13.7326 25.7404 12.9463 26.1945 12.9037 26.8802ZM13.7844 28.0322C14.7902 27.5019 15.3692 26.5449 16.0214 25.6611C15.9696 25.6764 15.8873 25.6611 15.8842 25.7282C15.1345 26.4474 14.3178 27.0966 13.7844 28.0322ZM14.5311 28.7758C14.5921 28.9617 14.7444 29.0592 14.9364 29.1141C15.5429 28.4863 16.2134 27.5568 16.9022 26.8802C17.2557 26.5297 17.8896 26.3712 17.5787 25.8653C16.701 26.9747 15.6008 27.8615 14.5311 28.7788V28.7758ZM11.8218 25.9994C11.7212 26.5053 11.8705 25.7587 11.8218 25.9994V25.9994ZM12.5684 25.9324C12.5166 25.9476 12.4343 25.9324 12.4343 25.9994C12.4862 25.9842 12.5684 25.9994 12.5684 25.9324ZM12.7025 26.4048C12.7787 26.1853 13.0561 26.1731 13.1079 25.9324C12.8671 25.9446 12.6324 26.3103 12.7025 26.4048ZM11.8218 26.5419C11.8888 26.5419 11.901 26.5968 11.9559 26.6089C11.9498 26.5023 11.965 26.3743 11.8218 26.4048V26.5419ZM16.4267 26.8131C16.3932 26.5998 16.6096 26.6333 16.6309 26.4748C16.4572 26.4413 16.2469 26.7156 16.4267 26.8131ZM17.1033 27.6939C17.2801 27.3526 17.8987 27.4531 17.917 26.9472C17.6488 26.8985 17.146 27.5171 17.1033 27.6939ZM22.3848 27.5568C22.5098 27.3404 22.97 27.1057 22.8603 26.8802C22.7109 27.0448 22.2995 27.6025 22.3848 27.5568ZM21.5041 27.4897C21.565 27.4684 21.8484 27.3526 21.6382 27.2855C21.6991 27.4257 21.2938 27.4196 21.5041 27.4897ZM17.4385 28.2364C17.7524 27.9621 18.0938 27.7152 18.3863 27.4227C17.9109 27.2093 17.5208 28.2851 17.4385 28.2364ZM16.1524 28.5076C15.9391 28.9038 15.4423 29.0166 15.3387 29.5225C15.9391 29.2665 16.2408 28.7088 16.6248 28.2364C16.509 28.2089 16.4511 28.3369 16.4206 28.2364C16.3993 28.0809 16.4298 27.9773 16.4877 27.8981C16.5761 27.9834 16.7376 27.9834 16.826 27.8981C16.8412 27.7701 16.7498 27.7488 16.7589 27.6268C16.4724 27.6787 16.4481 27.9926 16.2164 28.1023C16.2012 27.9682 16.5029 27.8128 16.3505 27.764C16.2347 28.0108 15.741 28.5442 16.1494 28.5107L16.1524 28.5076ZM18.7277 27.7609C18.8465 27.7457 19.066 27.828 18.9989 27.6268C18.8435 27.6086 18.746 27.6421 18.7277 27.7609ZM20.4222 27.828C20.5928 27.8402 20.6355 27.7244 20.6934 27.6238H20.4892C20.4892 27.7183 20.4557 27.7731 20.4222 27.828ZM20.7604 28.2333C20.413 28.3979 20.9921 28.407 20.7604 28.2333V28.2333ZM15.4759 28.7088C15.5521 28.9678 15.1071 29.0562 15.2717 29.1811C15.3204 28.9343 15.8507 28.8154 15.7441 28.6387C15.7319 28.7392 15.5795 28.6996 15.4728 28.7057L15.4759 28.7088ZM16.9662 28.7088C16.9387 28.6813 17.0088 28.7514 16.9662 28.7088V28.7088ZM17.914 29.2512C17.725 29.1446 18.2553 28.8337 18.0481 28.7088C17.8164 29.0379 17.213 29.8333 17.914 29.2512ZM17.3044 28.8459C16.9479 29.0257 17.5635 28.7179 17.3044 28.8459V28.8459ZM21.5711 28.98C21.5437 28.9526 21.6168 29.0257 21.5711 28.98V28.98ZM16.829 29.3853C16.8382 29.2299 17.2374 29.1232 17.0332 28.98C17.0393 29.1476 16.6644 29.2817 16.829 29.3853ZM18.5235 29.3183C18.493 29.2908 18.5662 29.364 18.5235 29.3183V29.3183ZM17.1003 29.5895C17.1094 29.5103 17.2191 29.4371 17.1003 29.3853C17.0911 29.4646 16.9783 29.5377 17.1003 29.5895ZM15.7441 29.5895C15.7166 29.5621 15.7898 29.6322 15.7441 29.5895V29.5895ZM16.6248 29.5225C16.4542 29.7145 16.1707 29.7907 16.0823 30.0649C16.3201 29.943 16.4542 29.7114 16.6248 29.5225ZM17.0302 30.3362C17.0911 30.1899 17.4385 29.9827 17.2343 29.7937C17.2953 30.0619 16.8412 30.1625 17.0302 30.3362ZM18.6545 29.9308C18.8435 30.0192 18.8862 29.6627 18.7917 29.8638C18.6972 29.8577 18.5326 29.879 18.6545 29.9308ZM19.197 29.8638C19.0782 29.8699 18.9867 29.8486 18.9258 29.7968C18.8161 29.9857 19.2183 29.9857 19.197 29.8638ZM19.4683 29.7968C19.389 29.8089 19.2762 29.7846 19.2641 29.8638C19.3433 29.8547 19.4561 29.876 19.4683 29.7968ZM16.6919 30.135C16.6401 30.1503 16.5578 30.135 16.5547 30.2021C16.6065 30.1868 16.6888 30.2021 16.6919 30.135ZM17.7067 31.8966C17.6214 31.8935 17.6123 31.8082 17.5025 31.8295C17.3959 31.9971 17.7342 32.0276 17.7067 31.8966Z" fill="#236003"/>
</g>
<defs>
<clipPath id="clip0_393_4655">
<rect width="32.2133" height="32" fill="white" transform="translate(0 0.5)"/>
</clipPath>
</defs>
</svg>
