<svg width="30" height="33" viewBox="0 0 30 33" fill="none" xmlns="http://www.w3.org/2000/svg">
<path d="M29.4102 30.9964L28.0847 25.9634C27.8213 25.0583 27.1208 24.2288 26.2745 23.814L18.8287 20.4232V18.9016C18.8287 18.9016 18.8539 18.882 18.868 18.8708C18.8904 18.8539 18.9128 18.8371 18.9352 18.8203C19.0641 18.725 19.1902 18.627 19.3107 18.5261C19.3387 18.5037 19.3668 18.4784 19.3948 18.456C19.4592 18.4028 19.5209 18.3467 19.5825 18.2935C19.6022 18.2767 19.6218 18.257 19.6414 18.2402C19.7815 18.1113 19.9188 17.9824 20.0449 17.8479C20.7931 17.038 21.3228 16.259 21.4405 15.4659C21.4853 15.4435 21.5414 15.4155 21.603 15.3847C21.6338 15.3707 21.6647 15.3539 21.6983 15.337C21.7095 15.3314 21.7179 15.3286 21.7291 15.323C21.7739 15.3006 21.8188 15.2754 21.8692 15.2502C21.9029 15.2306 21.9365 15.2109 21.9729 15.1913C21.9841 15.1857 21.9953 15.1773 22.0065 15.1717C22.0402 15.1521 22.0738 15.1325 22.1074 15.1129C22.3232 14.9868 22.5558 14.799 22.7604 14.5496C22.766 14.544 22.7688 14.5384 22.7716 14.5328C22.822 14.4683 22.8725 14.4011 22.9201 14.331C22.9201 14.331 22.9201 14.331 22.9201 14.3282C23.1695 13.9471 23.346 13.4539 23.3348 12.8458C23.3348 12.7197 23.3236 12.588 23.3096 12.4563H24.4558V9.62594H23.0462C22.9537 8.96179 22.8332 8.23599 22.6791 7.42612C22.1803 4.77233 20.2159 2.46043 17.2959 1.53847C17.1978 0.599694 16.3347 0.00280231 15.4211 0H14.0564C13.14 0 12.2797 0.599694 12.1816 1.53847C9.25883 2.46043 7.29721 4.77233 6.7984 7.42612C6.64428 8.23599 6.52658 8.96179 6.4313 9.62594H5.01894V12.4563H6.16508C6.15107 12.5908 6.14266 12.7225 6.14266 12.8458C6.13145 13.4539 6.308 13.9471 6.5574 14.3282C6.5574 14.3282 6.5574 14.3282 6.5574 14.331C6.60504 14.4011 6.65268 14.4711 6.70593 14.5328C6.71153 14.5384 6.71433 14.544 6.71714 14.5496C6.9217 14.799 7.1543 14.9868 7.37007 15.1129C7.4037 15.1353 7.43733 15.1521 7.47096 15.1717C7.48217 15.1773 7.49338 15.1857 7.50459 15.1913C7.53821 15.2109 7.57464 15.2306 7.60827 15.2502C7.65591 15.2782 7.70355 15.3006 7.74839 15.323C7.7596 15.3286 7.768 15.3314 7.77641 15.337C7.81004 15.3539 7.84086 15.3707 7.87169 15.3847C7.93334 15.4155 7.98938 15.4435 8.03422 15.4659C8.15472 16.259 8.68156 17.0408 9.42977 17.8479C9.55588 17.9796 9.69319 18.1113 9.8333 18.2402C9.85292 18.257 9.87254 18.2767 9.89215 18.2935C9.9538 18.3495 10.0155 18.4028 10.0799 18.456C10.1079 18.4784 10.136 18.5037 10.164 18.5261C10.2845 18.627 10.4106 18.725 10.5395 18.8203C10.5619 18.8371 10.5843 18.8539 10.6067 18.8708C10.6208 18.8792 10.632 18.8904 10.646 18.9016V20.4232L3.20024 23.814C2.35114 24.2288 1.65336 25.0555 1.38995 25.9634L0.0616508 30.9964C0.0224185 31.1449 0 31.299 0 31.4531C0 31.8707 0.165336 32.2798 0.462381 32.5628C0.756624 32.8487 1.16856 33 1.60012 33H14.7373H27.8662H27.8718C28.3005 33 28.7125 32.8487 29.0095 32.5628C29.3066 32.2798 29.4747 31.8707 29.4719 31.4531C29.4719 31.299 29.4495 31.1449 29.4102 30.9964ZM14.5944 19.0389C14.5664 19.0389 14.5328 19.0361 14.502 19.0333C14.4767 19.0333 14.4543 19.0333 14.4291 19.0305C14.4123 19.0305 14.4011 19.0305 14.3899 19.0305C14.3674 19.0305 14.3534 19.0305 14.3562 19.0305C14.3562 19.0305 14.3394 19.0305 14.3058 19.0249C14.2778 19.0221 14.2441 19.0165 14.2077 19.0137C12.6833 18.8483 11.2541 17.9348 10.3293 16.9624C9.60632 16.2366 9.23361 15.4071 9.26444 15.2081C9.26444 14.9139 9.0991 14.6869 8.9814 14.5832C8.8553 14.4683 8.74601 14.4095 8.63952 14.3506C8.42935 14.2385 8.22198 14.1489 8.03702 14.0312C7.89971 13.9331 7.77921 13.8462 7.68113 13.7341C7.65591 13.7061 7.63349 13.6725 7.60827 13.6388C7.59986 13.6276 7.59146 13.6164 7.58585 13.6052C7.47936 13.4343 7.41211 13.2045 7.4009 12.8458C7.4009 12.7309 7.41211 12.5992 7.43453 12.4563H22.043C22.0626 12.5992 22.0738 12.7337 22.0738 12.8458C22.0626 13.2045 21.9953 13.4343 21.8888 13.6052C21.8804 13.6164 21.872 13.6276 21.8664 13.6388C21.844 13.6725 21.8216 13.7033 21.7936 13.7341C21.6955 13.8462 21.575 13.9331 21.4377 14.0312C21.2527 14.1489 21.0453 14.2413 20.8352 14.3506C20.7287 14.4095 20.6194 14.4683 20.4933 14.5832C20.3728 14.6869 20.2075 14.9139 20.2103 15.2081C20.2411 15.4071 19.8684 16.2366 19.1454 16.9624C18.2206 17.9348 16.7886 18.8483 15.267 19.0137C15.2306 19.0165 15.1941 19.0221 15.1689 19.0249C15.1353 19.0249 15.1185 19.0305 15.1185 19.0305C15.1185 19.0305 15.1073 19.0305 15.0848 19.0305C15.0736 19.0305 15.0624 19.0305 15.0456 19.0305C15.0204 19.0305 14.998 19.0305 14.9727 19.0333C14.9419 19.0333 14.9083 19.0361 14.8803 19.0389C14.8382 19.0389 14.7906 19.0389 14.7401 19.0389C14.6897 19.0389 14.6421 19.0389 14.6 19.0389H14.5944ZM8.09027 10.8814V9.62313H7.69794C7.78482 9.02904 7.89411 8.37891 8.03142 7.65871C8.43775 5.57379 9.88655 3.71867 12.1648 2.86396V6.92451H13.4259V2.51367C13.8406 2.43521 14.2778 2.38477 14.7345 2.36795C15.1913 2.38477 15.6257 2.43521 16.0432 2.51367V6.92451H17.3043V2.86396C19.5825 3.72147 21.0313 5.57379 21.4377 7.65871C21.575 8.37891 21.6843 9.02904 21.7711 9.62313H21.3788V10.8814H23.1919V11.1952H6.27717V10.8814H8.09027ZM12.389 19.8572C12.4114 19.8656 12.4366 19.874 12.4591 19.8824C12.5908 19.9328 12.7253 19.9777 12.8598 20.0197C12.9018 20.0309 12.9411 20.0449 12.9831 20.0589C13.1288 20.101 13.2773 20.1402 13.4287 20.171C13.4791 20.1822 13.5296 20.1906 13.58 20.2019C13.7229 20.2299 13.8686 20.2551 14.0143 20.2719C14.0312 20.2719 14.048 20.2775 14.0648 20.2803C14.1012 20.2803 14.1405 20.2887 14.1909 20.2915C14.2021 20.2915 14.2049 20.2915 14.2441 20.2971C14.3114 20.3027 14.3422 20.3027 14.345 20.3027C14.4123 20.3083 14.4823 20.3111 14.5552 20.3139C14.6196 20.3139 14.6785 20.3139 14.7345 20.3139H14.7373C14.7934 20.3139 14.8522 20.3139 14.9139 20.3139C14.9896 20.3139 15.0568 20.3083 15.1241 20.3027C15.1241 20.3027 15.1577 20.3027 15.2249 20.2971C15.2642 20.2943 15.267 20.2915 15.2782 20.2915C15.3258 20.2887 15.3651 20.2831 15.4015 20.2803C15.4183 20.2803 15.4351 20.2747 15.4519 20.2719C15.5977 20.2523 15.7434 20.2299 15.8863 20.2019C15.9367 20.1934 15.9872 20.1822 16.0376 20.171C16.1889 20.1374 16.3375 20.101 16.4832 20.0589C16.5252 20.0477 16.5645 20.0337 16.6065 20.0197C16.741 19.9777 16.8755 19.9328 17.0072 19.8824C17.0296 19.874 17.0549 19.8656 17.0773 19.8572C17.2286 19.7983 17.3799 19.7311 17.5256 19.6638C17.5397 19.6582 17.5537 19.6526 17.5677 19.6442V21.3032C17.5677 21.8888 17.2818 22.4353 16.7634 22.8668C16.259 23.2788 15.5388 23.5562 14.7317 23.5702C13.9247 23.5562 13.2045 23.2788 12.7001 22.8668C12.1788 22.4353 11.8958 21.8916 11.8958 21.3032V19.6442C11.8958 19.6442 11.9238 19.6554 11.9378 19.6638C12.0864 19.7339 12.2349 19.7983 12.3862 19.8572H12.389ZM27.8634 31.7446H14.7345H1.60572C1.30868 31.7137 1.28066 31.6465 1.25543 31.4559C1.25543 31.4195 1.26104 31.3747 1.27505 31.3214L2.60054 26.2857C2.68741 25.8541 3.30673 25.1199 3.71867 24.9602L10.5535 21.8468C10.6964 22.6371 11.1448 23.332 11.7641 23.8393C12.5263 24.4614 13.5464 24.8313 14.6617 24.8313C14.6869 24.8313 14.7093 24.8313 14.7345 24.8285C14.7598 24.8285 14.7822 24.8313 14.8074 24.8313C15.9227 24.8313 16.9428 24.4642 17.705 23.8393C18.3243 23.332 18.7727 22.6371 18.9156 21.8468L25.7504 24.9602C26.1624 25.1199 26.7789 25.8541 26.8657 26.2857L28.1912 31.3214C28.2052 31.3747 28.2109 31.4195 28.2109 31.4559C28.1856 31.6493 28.1576 31.7165 27.8606 31.7446H27.8634Z" fill="#236003"/>
</svg>
