<svg width="30" height="33" viewBox="0 0 30 33" fill="none" xmlns="http://www.w3.org/2000/svg">
<path d="M28.9183 8.25306C28.5143 7.54898 27.5347 6.7102 25.1836 6.7102C23.6285 6.7102 21.749 7.06531 19.6979 7.71429C18.651 3.04898 16.7898 0 14.6224 0C12.4551 0 10.5939 3.04898 9.55304 7.71429C7.50202 7.06531 5.6163 6.7102 4.06732 6.7102C1.7163 6.7102 0.736711 7.54898 0.332629 8.25306C-0.512269 9.7102 0.265282 11.9327 2.51834 14.5102C3.09385 15.1714 3.7612 15.8388 4.48365 16.5C3.75508 17.1673 3.09385 17.8286 2.51834 18.4898C0.265282 21.0673 -0.506146 23.2898 0.332629 24.7469C0.736711 25.451 1.7163 26.2898 4.06732 26.2898C5.6163 26.2898 7.49589 25.9347 9.55304 25.2857C10.5939 29.951 12.4551 33 14.6224 33C16.7898 33 18.651 29.951 19.6918 25.2857C21.749 25.9347 23.6285 26.2898 25.1775 26.2898C27.5285 26.2898 28.5081 25.451 28.9122 24.7469C29.9959 22.8673 28.2816 19.7327 24.7612 16.4939C28.2816 13.2551 29.9959 10.1204 28.9122 8.24082L28.9183 8.25306ZM14.6224 0.973469C16.1898 0.973469 17.8245 3.61225 18.7734 8.01429C17.4387 8.47959 16.0428 9.06735 14.6163 9.75918C13.1959 9.06735 11.8 8.48571 10.4592 8.01429C11.4143 3.61225 13.049 0.973469 14.6163 0.973469H14.6224ZM19.6061 16.5C19.6061 17.4796 19.5755 18.4224 19.5204 19.3286C18.7612 19.8306 17.9592 20.3265 17.1143 20.8163C16.2877 21.2939 15.4551 21.7408 14.6224 22.151C13.7959 21.7408 12.9571 21.2939 12.1306 20.8163C11.2979 20.3388 10.4959 19.8367 9.72447 19.3224C9.66936 18.4163 9.63875 17.4796 9.63875 16.5C9.63875 15.5204 9.66936 14.5837 9.72447 13.6776C10.4959 13.1633 11.2979 12.6673 12.1306 12.1837C12.9571 11.7061 13.7898 11.2592 14.6224 10.849C15.449 11.2592 16.2877 11.7061 17.1143 12.1837C17.9592 12.6735 18.7612 13.1694 19.5204 13.6714C19.5755 14.5776 19.6061 15.5204 19.6061 16.5ZM20.5306 14.3571C21.553 15.0735 22.4836 15.7898 23.3102 16.5C22.4775 17.2102 21.553 17.9265 20.5306 18.6429C20.5612 17.9449 20.5796 17.2286 20.5796 16.5C20.5796 15.7714 20.5612 15.0612 20.5306 14.3571ZM19.4347 20.5469C19.3245 21.7837 19.1714 22.9408 18.9755 24.0122C17.9285 23.6388 16.8388 23.198 15.7367 22.6898C16.3612 22.3653 16.9796 22.0224 17.6041 21.6673C18.2347 21.3061 18.8408 20.9327 19.4347 20.5531V20.5469ZM13.5143 22.6837C12.4122 23.1918 11.3224 23.6388 10.2755 24.0061C10.0796 22.9347 9.92038 21.7775 9.8163 20.5408C10.4102 20.9204 11.0163 21.3 11.6469 21.6612C12.2714 22.0225 12.8959 22.3653 13.5143 22.6837ZM8.71426 18.6306C7.72855 17.9327 6.79794 17.2224 5.95304 16.5C6.79794 15.7776 7.72855 15.0673 8.71426 14.3694C8.68365 15.0673 8.66528 15.7776 8.66528 16.5C8.66528 17.2224 8.68365 17.9327 8.71426 18.6306ZM9.81018 12.4592C9.92038 11.2163 10.0734 10.0592 10.2694 8.98776C11.3163 9.36123 12.4061 9.80204 13.5081 10.3102C12.8898 10.6347 12.2653 10.9776 11.6408 11.3327C11.0102 11.6939 10.4041 12.0735 9.81018 12.4531V12.4592ZM17.5979 11.3388C16.9734 10.9776 16.349 10.6347 15.7306 10.3163C16.8326 9.80816 17.9224 9.36122 18.9694 8.99388C19.1653 10.0653 19.3245 11.2224 19.4285 12.4592C18.8347 12.0796 18.2285 11.7061 17.5979 11.3449V11.3388ZM3.24691 13.8673C1.31834 11.6633 0.565282 9.7898 1.1714 8.73674C1.67345 7.86735 3.02038 7.68367 4.0612 7.68367C5.52447 7.68367 7.34283 8.03878 9.34487 8.68163C9.08161 10.0592 8.88569 11.5531 8.77549 13.1327C7.47753 14.0082 6.28365 14.9265 5.2061 15.8449C4.47753 15.1837 3.8163 14.5163 3.24079 13.8612L3.24691 13.8673ZM4.06732 25.3163C3.02651 25.3163 1.67957 25.1327 1.17753 24.2633C0.565282 23.2102 1.32447 21.3367 3.25304 19.1327C3.82855 18.4776 4.48977 17.8102 5.21834 17.149C6.28977 18.0735 7.48977 18.9857 8.78773 19.8673C8.90406 21.4531 9.09385 22.9469 9.35712 24.3184C7.35508 24.9612 5.53059 25.3163 4.07345 25.3163H4.06732ZM14.6224 32.0265C13.0551 32.0265 11.4204 29.3878 10.4653 24.9857C11.8 24.5204 13.1959 23.9327 14.6224 23.2408C16.0428 23.9327 17.4388 24.5143 18.7796 24.9857C17.8245 29.3878 16.1898 32.0265 14.6285 32.0265H14.6224ZM28.0673 24.2633C27.5653 25.1327 26.2183 25.3163 25.1775 25.3163C23.7143 25.3163 21.8898 24.9612 19.8877 24.3184C20.151 22.9469 20.3408 21.4531 20.4571 19.8673C21.7734 18.9735 22.9796 18.0551 24.0387 17.1367C27.3755 20.1673 28.8449 22.9041 28.0612 24.2571L28.0673 24.2633ZM24.0449 15.8571C22.9857 14.9388 21.7796 14.0204 20.4632 13.1265C20.3469 11.5408 20.1571 10.0531 19.8939 8.67551C21.8959 8.03265 23.7204 7.67755 25.1775 7.67755C26.2183 7.67755 27.5653 7.86123 28.0673 8.73061C28.851 10.0837 27.3816 12.8265 24.0387 15.851L24.0449 15.8571ZM17.6408 16.5C17.6408 18.1653 16.2877 19.5184 14.6224 19.5184C12.9571 19.5184 11.6041 18.1653 11.6041 16.5C11.6041 14.8347 12.9571 13.4816 14.6224 13.4816C16.2877 13.4816 17.6408 14.8347 17.6408 16.5Z" fill="#236003"/>
</svg>
