<svg width="32" height="33" viewBox="0 0 32 33" fill="none" xmlns="http://www.w3.org/2000/svg">
<mask id="path-1-inside-1_393_4865" fill="white">
<path d="M10.8484 10.2302C10.7542 10.1498 10.6599 10.0666 10.5684 9.98345C9.70898 9.18777 9.00479 7.76552 9.00479 7.76552C8.82735 7.40788 8.53902 7.1944 8.36159 7.28867C8.18416 7.38293 8.18693 7.75166 8.36713 8.10653C8.36713 8.10653 9.16282 9.67017 10.0777 10.5158C10.208 10.635 10.3439 10.7486 10.4797 10.8623L7.72116 15.556C7.58531 15.7916 7.52987 16.0578 7.52709 16.324C7.52709 16.6123 7.59363 16.9034 7.75166 17.1529L8.25901 17.9486C8.40595 18.1815 8.64715 18.3561 8.93271 18.3561C9.21826 18.3561 9.47333 18.1704 9.61472 17.9264L12.9749 12.2596C13.8121 12.559 14.7104 12.7392 15.6503 12.7753V14.5912C15.6503 14.7908 15.8083 14.9544 15.9996 14.9544C16.1909 14.9544 16.3489 14.7908 16.3489 14.5912V12.7753C17.286 12.7392 18.1842 12.559 19.0187 12.2596L22.3761 17.9236C22.5175 18.1676 22.7643 18.3534 23.0581 18.3534C23.352 18.3534 23.5849 18.1787 23.7318 17.9458L24.2392 17.1501C24.3972 16.9006 24.461 16.6095 24.4637 16.3212C24.4637 16.055 24.4083 15.7861 24.2697 15.5532L21.5111 10.8623C21.6497 10.7486 21.7856 10.635 21.9159 10.5158C22.8835 9.62304 23.7124 7.90691 23.7124 7.90691C23.8843 7.54927 23.8788 7.18054 23.6986 7.09183C23.5184 7.00311 23.2328 7.22213 23.0637 7.58531C23.0637 7.58531 22.3345 9.14341 21.4252 9.98622C21.3337 10.0722 21.2367 10.1553 21.1396 10.2357L18.3534 5.49492C18.3866 5.33689 18.4033 5.17609 18.4033 5.00975C18.4033 3.8287 17.5549 2.85004 16.4321 2.64211C17.0032 2.48685 17.4246 1.96564 17.4246 1.34462C17.4246 0.601613 16.823 0 16.08 0C15.337 0 14.7354 0.601613 14.7354 1.34462C14.7354 1.94346 15.1263 2.45081 15.6669 2.62547C14.4914 2.78627 13.5848 3.78988 13.5848 5.00975C13.5848 5.17609 13.6014 5.33966 13.6347 5.49492L10.8484 10.233V10.2302ZM9.01033 17.566C8.97984 17.6159 8.95211 17.6408 8.93825 17.6492C8.93271 17.6519 8.92993 17.6547 8.92716 17.6547C8.92716 17.6547 8.92439 17.6547 8.91607 17.6492C8.90221 17.6408 8.87449 17.6159 8.84399 17.5688L8.33664 16.7731C8.2701 16.6733 8.22297 16.4986 8.22297 16.3212C8.22297 16.1604 8.26178 15.9996 8.32 15.9081L11.0397 11.2809C11.439 11.5526 11.8631 11.7911 12.3123 11.9934L9.00756 17.566H9.01033ZM16.3461 12.0517V10.6821C16.3461 10.4825 16.1881 10.3217 15.9968 10.3217C15.8055 10.3217 15.6475 10.4853 15.6475 10.6821V12.0517C14.8407 12.0184 14.07 11.8715 13.3492 11.6275L15.8526 7.40788C15.8998 7.40788 15.9469 7.4162 15.9968 7.4162H16.0024C16.0495 7.4162 16.0994 7.41065 16.1465 7.40788L18.65 11.6303C17.9292 11.8742 17.1584 12.0212 16.3544 12.0544L16.3461 12.0517ZM23.6653 15.9109C23.7235 16.0051 23.7623 16.1632 23.7623 16.324C23.7623 16.5014 23.7152 16.676 23.6487 16.7759L23.1413 17.5715C23.1108 17.6187 23.0831 17.6408 23.0692 17.6519C23.0637 17.6575 23.0609 17.6575 23.0581 17.6575C23.0581 17.6575 23.0526 17.6575 23.047 17.6519C23.0332 17.6436 23.0055 17.6187 22.975 17.5688L19.673 11.999C20.1194 11.7966 20.5463 11.5582 20.9456 11.2865L23.6653 15.9136V15.9109ZM18.0207 6.30723L20.5796 10.6599C20.1831 10.9344 19.7562 11.1728 19.3043 11.3697L16.8618 7.24985C17.3414 7.0641 17.7462 6.73141 18.0207 6.30446V6.30723ZM15.434 1.34462C15.434 0.98975 15.7223 0.70142 16.0772 0.698647C16.4321 0.698647 16.7204 0.986978 16.7232 1.34462C16.7232 1.69949 16.4348 1.98782 16.0772 1.99059C15.7223 1.99059 15.434 1.70226 15.434 1.34462ZM15.994 3.29917C16.9367 3.29917 17.6963 4.06435 17.6991 5.00697C17.6991 5.94959 16.9367 6.71201 15.994 6.71478C15.0514 6.71478 14.2918 5.94959 14.289 5.00697C14.289 4.06435 15.0514 3.30194 15.994 3.29917ZM15.1263 7.25262L12.6838 11.3697C12.2319 11.17 11.8049 10.9316 11.4085 10.6571L13.9674 6.30446C14.2419 6.73141 14.6466 7.0641 15.1263 7.24985V7.25262ZM31.8356 7.13341C31.8328 5.42006 30.4438 4.03386 28.7277 4.03386C28.6667 4.03386 25.6892 4.03386 22.1183 4.03386H20.599V5.1151C24.8048 5.1151 28.6584 5.1151 28.7277 5.1151C29.845 5.1151 30.7488 6.0189 30.7543 7.13618C30.7543 7.13618 30.7543 7.13896 30.7543 7.14173C30.7543 7.53818 30.6379 7.90414 30.4411 8.21742C30.0834 8.78854 29.4513 9.16836 28.7277 9.16836C28.0041 9.16836 27.372 8.78577 27.0144 8.21742C26.8175 7.90691 26.7039 7.53818 26.7011 7.14173H25.6282V7.6768L25.6198 29.041H21.9603C21.1951 29.041 3.25758 29.041 3.10787 29.041C1.99059 29.041 1.08678 28.1372 1.08124 27.0199V27.0144C1.08124 26.6179 1.19768 26.252 1.39452 25.9387C1.75216 25.3676 2.38427 24.9877 3.10787 24.9877C3.83147 24.9877 4.46358 25.3703 4.82122 25.9387C5.01806 26.2492 5.13173 26.6179 5.1345 27.0144H6.20743V26.4793L6.21574 5.1151H9.87533H11.3835V4.03386H6.20743C6.09376 2.42031 4.75468 1.14778 3.11064 1.14778C1.46661 1.14778 0.0138621 2.52567 0.00277241 4.23347H0V27.0144H0.00277241C0.00554482 28.7277 1.39452 30.1139 3.11064 30.1139C3.17164 30.1139 6.14921 30.1139 9.72007 30.1139H25.6337C25.7474 31.7275 27.0864 33 28.7305 33C30.3745 33 31.8273 31.6193 31.8356 29.9115H31.8384V7.13064H31.8356V7.13341ZM1.08124 4.2501C1.08124 3.13282 1.98782 2.22625 3.10787 2.22347C4.22515 2.22347 5.13173 3.13005 5.1345 4.2501L5.12619 24.6495C4.58279 24.1837 3.8786 23.9037 3.11064 23.9037C2.34269 23.9037 1.62463 24.1921 1.08124 24.6606V4.2501ZM30.7599 29.8977C30.7599 31.015 29.8533 31.9215 28.7333 31.9243C27.616 31.9243 26.7094 31.0177 26.7066 29.8977L26.7149 9.49828C27.2583 9.96127 27.9625 10.2441 28.7333 10.2441C29.5095 10.2441 30.2193 9.95573 30.7627 9.48719V29.8977H30.7599ZM12.8279 17.688L21.2838 26.1438L22.0684 25.3592L13.6125 16.9034L12.8279 17.688Z"/>
</mask>
<path d="M10.8484 10.2302C10.7542 10.1498 10.6599 10.0666 10.5684 9.98345C9.70898 9.18777 9.00479 7.76552 9.00479 7.76552C8.82735 7.40788 8.53902 7.1944 8.36159 7.28867C8.18416 7.38293 8.18693 7.75166 8.36713 8.10653C8.36713 8.10653 9.16282 9.67017 10.0777 10.5158C10.208 10.635 10.3439 10.7486 10.4797 10.8623L7.72116 15.556C7.58531 15.7916 7.52987 16.0578 7.52709 16.324C7.52709 16.6123 7.59363 16.9034 7.75166 17.1529L8.25901 17.9486C8.40595 18.1815 8.64715 18.3561 8.93271 18.3561C9.21826 18.3561 9.47333 18.1704 9.61472 17.9264L12.9749 12.2596C13.8121 12.559 14.7104 12.7392 15.6503 12.7753V14.5912C15.6503 14.7908 15.8083 14.9544 15.9996 14.9544C16.1909 14.9544 16.3489 14.7908 16.3489 14.5912V12.7753C17.286 12.7392 18.1842 12.559 19.0187 12.2596L22.3761 17.9236C22.5175 18.1676 22.7643 18.3534 23.0581 18.3534C23.352 18.3534 23.5849 18.1787 23.7318 17.9458L24.2392 17.1501C24.3972 16.9006 24.461 16.6095 24.4637 16.3212C24.4637 16.055 24.4083 15.7861 24.2697 15.5532L21.5111 10.8623C21.6497 10.7486 21.7856 10.635 21.9159 10.5158C22.8835 9.62304 23.7124 7.90691 23.7124 7.90691C23.8843 7.54927 23.8788 7.18054 23.6986 7.09183C23.5184 7.00311 23.2328 7.22213 23.0637 7.58531C23.0637 7.58531 22.3345 9.14341 21.4252 9.98622C21.3337 10.0722 21.2367 10.1553 21.1396 10.2357L18.3534 5.49492C18.3866 5.33689 18.4033 5.17609 18.4033 5.00975C18.4033 3.8287 17.5549 2.85004 16.4321 2.64211C17.0032 2.48685 17.4246 1.96564 17.4246 1.34462C17.4246 0.601613 16.823 0 16.08 0C15.337 0 14.7354 0.601613 14.7354 1.34462C14.7354 1.94346 15.1263 2.45081 15.6669 2.62547C14.4914 2.78627 13.5848 3.78988 13.5848 5.00975C13.5848 5.17609 13.6014 5.33966 13.6347 5.49492L10.8484 10.233V10.2302ZM9.01033 17.566C8.97984 17.6159 8.95211 17.6408 8.93825 17.6492C8.93271 17.6519 8.92993 17.6547 8.92716 17.6547C8.92716 17.6547 8.92439 17.6547 8.91607 17.6492C8.90221 17.6408 8.87449 17.6159 8.84399 17.5688L8.33664 16.7731C8.2701 16.6733 8.22297 16.4986 8.22297 16.3212C8.22297 16.1604 8.26178 15.9996 8.32 15.9081L11.0397 11.2809C11.439 11.5526 11.8631 11.7911 12.3123 11.9934L9.00756 17.566H9.01033ZM16.3461 12.0517V10.6821C16.3461 10.4825 16.1881 10.3217 15.9968 10.3217C15.8055 10.3217 15.6475 10.4853 15.6475 10.6821V12.0517C14.8407 12.0184 14.07 11.8715 13.3492 11.6275L15.8526 7.40788C15.8998 7.40788 15.9469 7.4162 15.9968 7.4162H16.0024C16.0495 7.4162 16.0994 7.41065 16.1465 7.40788L18.65 11.6303C17.9292 11.8742 17.1584 12.0212 16.3544 12.0544L16.3461 12.0517ZM23.6653 15.9109C23.7235 16.0051 23.7623 16.1632 23.7623 16.324C23.7623 16.5014 23.7152 16.676 23.6487 16.7759L23.1413 17.5715C23.1108 17.6187 23.0831 17.6408 23.0692 17.6519C23.0637 17.6575 23.0609 17.6575 23.0581 17.6575C23.0581 17.6575 23.0526 17.6575 23.047 17.6519C23.0332 17.6436 23.0055 17.6187 22.975 17.5688L19.673 11.999C20.1194 11.7966 20.5463 11.5582 20.9456 11.2865L23.6653 15.9136V15.9109ZM18.0207 6.30723L20.5796 10.6599C20.1831 10.9344 19.7562 11.1728 19.3043 11.3697L16.8618 7.24985C17.3414 7.0641 17.7462 6.73141 18.0207 6.30446V6.30723ZM15.434 1.34462C15.434 0.98975 15.7223 0.70142 16.0772 0.698647C16.4321 0.698647 16.7204 0.986978 16.7232 1.34462C16.7232 1.69949 16.4348 1.98782 16.0772 1.99059C15.7223 1.99059 15.434 1.70226 15.434 1.34462ZM15.994 3.29917C16.9367 3.29917 17.6963 4.06435 17.6991 5.00697C17.6991 5.94959 16.9367 6.71201 15.994 6.71478C15.0514 6.71478 14.2918 5.94959 14.289 5.00697C14.289 4.06435 15.0514 3.30194 15.994 3.29917ZM15.1263 7.25262L12.6838 11.3697C12.2319 11.17 11.8049 10.9316 11.4085 10.6571L13.9674 6.30446C14.2419 6.73141 14.6466 7.0641 15.1263 7.24985V7.25262ZM31.8356 7.13341C31.8328 5.42006 30.4438 4.03386 28.7277 4.03386C28.6667 4.03386 25.6892 4.03386 22.1183 4.03386H20.599V5.1151C24.8048 5.1151 28.6584 5.1151 28.7277 5.1151C29.845 5.1151 30.7488 6.0189 30.7543 7.13618C30.7543 7.13618 30.7543 7.13896 30.7543 7.14173C30.7543 7.53818 30.6379 7.90414 30.4411 8.21742C30.0834 8.78854 29.4513 9.16836 28.7277 9.16836C28.0041 9.16836 27.372 8.78577 27.0144 8.21742C26.8175 7.90691 26.7039 7.53818 26.7011 7.14173H25.6282V7.6768L25.6198 29.041H21.9603C21.1951 29.041 3.25758 29.041 3.10787 29.041C1.99059 29.041 1.08678 28.1372 1.08124 27.0199V27.0144C1.08124 26.6179 1.19768 26.252 1.39452 25.9387C1.75216 25.3676 2.38427 24.9877 3.10787 24.9877C3.83147 24.9877 4.46358 25.3703 4.82122 25.9387C5.01806 26.2492 5.13173 26.6179 5.1345 27.0144H6.20743V26.4793L6.21574 5.1151H9.87533H11.3835V4.03386H6.20743C6.09376 2.42031 4.75468 1.14778 3.11064 1.14778C1.46661 1.14778 0.0138621 2.52567 0.00277241 4.23347H0V27.0144H0.00277241C0.00554482 28.7277 1.39452 30.1139 3.11064 30.1139C3.17164 30.1139 6.14921 30.1139 9.72007 30.1139H25.6337C25.7474 31.7275 27.0864 33 28.7305 33C30.3745 33 31.8273 31.6193 31.8356 29.9115H31.8384V7.13064H31.8356V7.13341ZM1.08124 4.2501C1.08124 3.13282 1.98782 2.22625 3.10787 2.22347C4.22515 2.22347 5.13173 3.13005 5.1345 4.2501L5.12619 24.6495C4.58279 24.1837 3.8786 23.9037 3.11064 23.9037C2.34269 23.9037 1.62463 24.1921 1.08124 24.6606V4.2501ZM30.7599 29.8977C30.7599 31.015 29.8533 31.9215 28.7333 31.9243C27.616 31.9243 26.7094 31.0177 26.7066 29.8977L26.7149 9.49828C27.2583 9.96127 27.9625 10.2441 28.7333 10.2441C29.5095 10.2441 30.2193 9.95573 30.7627 9.48719V29.8977H30.7599ZM12.8279 17.688L21.2838 26.1438L22.0684 25.3592L13.6125 16.9034L12.8279 17.688Z" fill="#236003" stroke="#236003" stroke-width="4" mask="url(#path-1-inside-1_393_4865)"/>
</svg>
