<svg width="34" height="33" viewBox="0 0 34 33" fill="none" xmlns="http://www.w3.org/2000/svg">
<path d="M24.3038 20.2441C22.1162 20.2441 20.3463 22.014 20.3463 24.2016C20.3463 26.3892 22.1162 28.1591 24.3038 28.1591C26.4914 28.1591 28.2612 26.3862 28.2612 24.2016C28.2612 22.017 26.4914 20.2441 24.3038 20.2441ZM24.3038 27.2426C22.624 27.2426 21.2658 25.8814 21.2628 24.2016C21.2628 22.5219 22.624 21.1636 24.3038 21.1606C25.9835 21.1606 27.3417 22.5219 27.3447 24.2016C27.3447 25.8814 25.9835 27.2396 24.3038 27.2426ZM33.1052 26.281V22.1282H30.3827C30.2956 21.8698 30.1904 21.6174 30.0702 21.374L31.9934 19.4508L29.0575 16.512L27.1344 18.4352C27.0142 18.3751 26.888 18.321 26.7648 18.2669C26.7588 18.2669 26.7528 18.2639 26.7498 18.2609C26.6296 18.2128 26.5094 18.1647 26.3832 18.1227V15.4002H22.2304V18.1227C21.972 18.2098 21.7195 18.315 21.4791 18.4352L19.556 16.509L16.6202 19.4478L16.8786 19.7062L16.9447 19.7724L18.5433 21.371C18.4231 21.6144 18.321 21.8668 18.2308 22.1252H15.5084V26.278H18.2308C18.318 26.5364 18.4231 26.7888 18.5433 27.0322L16.6202 28.9554L19.556 31.8912L21.4791 29.968C21.5993 30.0281 21.7256 30.0822 21.8488 30.1333C21.8548 30.1333 21.8608 30.1393 21.8638 30.1393C21.984 30.1874 22.1042 30.2355 22.2304 30.2775V33H26.3832V30.2775C26.6416 30.1904 26.894 30.0852 27.1344 29.965L29.0575 31.8882L31.9934 28.9524L31.7349 28.694L31.6688 28.6278L30.0672 27.0292C30.1874 26.7858 30.2896 26.5334 30.3797 26.275H33.1022L33.1052 26.281ZM29.5894 27.8526L30.6982 28.9614L29.0606 30.5991L27.9517 29.4933C27.9517 29.4933 27.6512 29.1928 27.2877 28.8292C27.2666 28.8442 27.2426 28.8592 27.2215 28.8712C27.1795 28.8983 27.1344 28.9253 27.0893 28.9524C27.0833 28.9554 27.0773 28.9584 27.0713 28.9614C26.9241 29.0455 26.7738 29.1237 26.6206 29.1958C26.6055 29.2018 26.5905 29.2108 26.5755 29.2168C26.4162 29.2889 26.251 29.355 26.0857 29.4121L26.0616 29.4211C25.9715 29.4512 25.8753 29.4812 25.7822 29.5053C25.7702 29.5083 25.7551 29.5143 25.7431 29.5173C25.659 29.5413 25.5749 29.5594 25.4907 29.5804C25.4757 29.5834 25.4607 29.5894 25.4456 29.5924C25.4486 29.5924 25.4547 29.5924 25.4577 29.5924V32.0955H23.1409V29.5924C23.1409 29.5924 23.1469 29.5924 23.1499 29.5924C23.1379 29.5924 23.1228 29.5864 23.1108 29.5834C23.0267 29.5654 22.9425 29.5443 22.8584 29.5233C22.8193 29.5113 22.7833 29.4993 22.7442 29.4873C22.6421 29.4572 22.5429 29.4241 22.4437 29.3911C22.4287 29.3851 22.4137 29.3791 22.4017 29.3761C22.3115 29.343 22.2184 29.307 22.1312 29.2679C22.0591 29.2378 21.99 29.2048 21.9209 29.1687C21.8878 29.1537 21.8578 29.1387 21.8247 29.1237C21.7195 29.0696 21.6174 29.0155 21.5182 28.9554C21.4731 28.9283 21.4251 28.9013 21.38 28.8712C21.359 28.8592 21.3379 28.8442 21.3169 28.8292L19.547 30.5991L17.9093 28.9614L19.0181 27.8526L19.6822 27.1885C19.6702 27.1705 19.6582 27.1494 19.6431 27.1284C19.6131 27.0803 19.583 27.0322 19.556 26.9842C19.4989 26.888 19.4448 26.7888 19.3967 26.6897C19.3817 26.6596 19.3697 26.6296 19.3547 26.5995C19.3246 26.5334 19.2916 26.4673 19.2615 26.4012C19.2345 26.3381 19.2104 26.275 19.1864 26.2119C19.1744 26.1788 19.1594 26.1458 19.1473 26.1097C19.1203 26.0346 19.0932 25.9595 19.0692 25.8814C19.0692 25.8723 19.0632 25.8633 19.0602 25.8543C19.0392 25.7852 19.0151 25.7161 18.9971 25.644C18.9761 25.5628 18.955 25.4817 18.937 25.4006C18.937 25.3885 18.931 25.3765 18.928 25.3615H16.4279V23.0447H18.928C18.928 23.0447 18.934 23.0177 18.937 23.0056C18.955 22.9245 18.973 22.8464 18.9971 22.7683C19.0271 22.6541 19.0632 22.5429 19.0993 22.4347C19.1083 22.4107 19.1173 22.3866 19.1263 22.3596C19.1533 22.2815 19.1834 22.2033 19.2134 22.1282C19.2285 22.0922 19.2435 22.0561 19.2585 22.02C19.2856 21.9539 19.3186 21.8908 19.3487 21.8277C19.3667 21.7917 19.3847 21.7526 19.4028 21.7165C19.4028 21.7165 19.4028 21.7165 19.4028 21.7105C19.4508 21.6174 19.5019 21.5212 19.553 21.4311C19.583 21.38 19.6131 21.3289 19.6461 21.2778C19.6582 21.2598 19.6702 21.2388 19.6822 21.2207L19.0181 20.5566L17.9093 19.4478L19.547 17.8101L20.6558 18.916C20.6558 18.916 20.9563 19.2164 21.3169 19.58C21.3409 19.565 21.362 19.553 21.383 19.538C21.4281 19.5109 21.4701 19.4839 21.5152 19.4598C21.5212 19.4568 21.5272 19.4538 21.5332 19.4478C21.6805 19.3637 21.8307 19.2856 21.987 19.2134C22.002 19.2074 22.017 19.1984 22.029 19.1924C22.1883 19.1203 22.3536 19.0542 22.5189 18.9971C22.5279 18.9971 22.5339 18.9911 22.5429 18.9881C22.633 18.958 22.7262 18.928 22.8193 18.9009C22.8314 18.8979 22.8464 18.8919 22.8584 18.8889C22.9425 18.8649 23.0267 18.8468 23.1108 18.8288C23.1258 18.8258 23.1409 18.8198 23.1559 18.8198C23.1529 18.8198 23.1469 18.8198 23.1439 18.8198V16.3167H25.4607V18.8198C25.4607 18.8198 25.4547 18.8198 25.4516 18.8198C25.4637 18.8198 25.4787 18.8258 25.4907 18.8288C25.5749 18.8468 25.659 18.8679 25.7431 18.8889C25.7822 18.9009 25.8182 18.9129 25.8573 18.925C25.9595 18.955 26.0586 18.9881 26.1578 19.0211C26.1728 19.0271 26.1879 19.0331 26.2029 19.0392C26.293 19.0722 26.3832 19.1083 26.4733 19.1443C26.5454 19.1744 26.6176 19.2104 26.6867 19.2435C26.7167 19.2585 26.7498 19.2705 26.7798 19.2886C26.885 19.3396 26.9872 19.3967 27.0893 19.4568C27.1344 19.4839 27.1795 19.5109 27.2246 19.541C27.2456 19.553 27.2666 19.568 27.2877 19.583L29.0575 17.8131L30.6952 19.4508L29.5864 20.5596L28.9223 21.2237C28.9343 21.2448 28.9494 21.2628 28.9614 21.2838C28.9914 21.3319 29.0215 21.38 29.0485 21.4281C29.1056 21.5242 29.1597 21.6234 29.2078 21.7256C29.2228 21.7556 29.2348 21.7857 29.2499 21.8157C29.2829 21.8818 29.313 21.9479 29.34 22.014C29.3671 22.0771 29.3911 22.1402 29.4181 22.2033C29.4302 22.2364 29.4452 22.2694 29.4572 22.3025C29.4842 22.3776 29.5113 22.4557 29.5353 22.5339C29.5353 22.5429 29.5413 22.5519 29.5443 22.5609C29.5654 22.63 29.5894 22.6991 29.6074 22.7713C29.6285 22.8524 29.6495 22.9335 29.6675 23.0147C29.6675 23.0267 29.6736 23.0417 29.6766 23.0537H32.1797V25.3705H29.6766C29.6766 25.3705 29.6706 25.3976 29.6675 25.4126C29.6495 25.4937 29.6315 25.5718 29.6074 25.65C29.5774 25.7642 29.5413 25.8753 29.5053 25.9835C29.4963 26.0076 29.4873 26.0316 29.4782 26.0586C29.4512 26.1368 29.4211 26.2119 29.3881 26.29C29.3731 26.3261 29.358 26.3621 29.343 26.3982C29.313 26.4643 29.2859 26.5274 29.2559 26.5905C29.2378 26.6266 29.2198 26.6656 29.2018 26.7047C29.2018 26.7047 29.2018 26.7047 29.2018 26.7107C29.1537 26.8039 29.1026 26.897 29.0515 26.9902C29.0215 27.0413 28.9914 27.0923 28.9584 27.1404C28.9464 27.1584 28.9343 27.1795 28.9223 27.1975L29.5864 27.8616L29.5894 27.8526ZM11.9025 25.5117C11.8424 25.4847 11.7823 25.4577 11.7222 25.4306C11.5299 25.3314 11.3376 25.2293 11.1543 25.1181C11.0701 25.07 10.983 25.0159 10.9018 24.9649C10.8628 24.9378 10.8207 24.9138 10.7846 24.8897L7.50027 28.1711L4.4623 25.1331L6.51466 23.0808L7.74367 21.8488C7.71963 21.8127 7.69559 21.7766 7.67456 21.7376C7.61747 21.6474 7.56338 21.5603 7.51229 21.4701C7.40712 21.2898 7.30796 21.1065 7.21481 20.9202C7.18776 20.8661 7.16372 20.8091 7.13668 20.755C7.07958 20.6318 7.01949 20.5086 6.9654 20.3854C6.91732 20.2712 6.86924 20.154 6.82417 20.0338C6.80013 19.9707 6.77609 19.9106 6.75205 19.8475C6.70097 19.7062 6.65289 19.565 6.60481 19.4238C6.5988 19.4088 6.59279 19.3877 6.58678 19.3727C6.54771 19.2435 6.50565 19.1143 6.46959 18.9851C6.43052 18.8348 6.39146 18.6846 6.3584 18.5343C6.35239 18.5133 6.34639 18.4863 6.34038 18.4622H1.70078V14.1682H6.33737C6.34338 14.1411 6.34939 14.1171 6.3554 14.0931C6.38845 13.9428 6.42451 13.7986 6.46358 13.6513C6.52067 13.441 6.58678 13.2367 6.65589 13.0323C6.67392 12.9873 6.68895 12.9392 6.70697 12.8941C6.75806 12.7499 6.81215 12.6056 6.87225 12.4644C6.89929 12.3983 6.92633 12.3292 6.95638 12.2631C7.01047 12.1429 7.06456 12.0257 7.12165 11.9055C7.15471 11.8364 7.18776 11.7673 7.22082 11.6981C7.22082 11.6951 7.22082 11.6921 7.22683 11.6891C7.31697 11.5148 7.41013 11.3406 7.50929 11.1723C7.56338 11.0761 7.62047 10.983 7.68057 10.8898C7.7016 10.8538 7.72564 10.8177 7.74668 10.7846L6.51767 9.55564L4.46531 7.50328L7.50328 4.46531L9.55564 6.51767C9.55564 6.51767 9.55564 6.51767 9.55864 6.51767C9.55864 6.51767 10.1146 7.07358 10.7877 7.74968C10.8297 7.72264 10.8718 7.69559 10.9109 7.67155C10.992 7.62047 11.0731 7.56939 11.1573 7.52431C11.1693 7.5183 11.1783 7.51229 11.1903 7.50628C11.4608 7.34702 11.7402 7.20279 12.0287 7.07057C12.0557 7.05855 12.0828 7.04353 12.1098 7.03151C12.4043 6.89628 12.7078 6.77609 13.0203 6.67092C13.0353 6.66791 13.0504 6.6589 13.0654 6.65589C13.2337 6.5988 13.4079 6.54471 13.5792 6.49964C13.6033 6.49062 13.6273 6.48461 13.6513 6.4786C13.8046 6.43653 13.9608 6.39747 14.1171 6.36441C14.1441 6.3584 14.1712 6.34939 14.1982 6.34639C14.1922 6.34639 14.1832 6.34639 14.1772 6.34939V1.70078H18.4712V6.34038C18.4712 6.34038 18.4592 6.34038 18.4532 6.34038C18.4772 6.34639 18.5013 6.35239 18.5283 6.3584C18.6846 6.39146 18.8408 6.43052 18.9941 6.47259C19.0662 6.49062 19.1353 6.51767 19.2044 6.5387C19.3907 6.59279 19.577 6.65589 19.7603 6.719C19.7874 6.72801 19.8174 6.74003 19.8415 6.75205C20.0097 6.81515 20.178 6.87826 20.3433 6.94737C20.4755 7.00446 20.6077 7.07057 20.7399 7.13067C20.797 7.15771 20.8571 7.18175 20.9142 7.2118C21.1065 7.31096 21.2989 7.41313 21.4852 7.52131C21.5693 7.57239 21.6534 7.62348 21.7376 7.67456C21.7766 7.6986 21.8157 7.72564 21.8548 7.74968L25.1391 4.46831L28.1741 7.50628L26.1217 9.55864L24.8927 10.7877C24.9168 10.8237 24.9408 10.8598 24.9618 10.8988C25.0189 10.989 25.073 11.0761 25.1271 11.1663C25.2323 11.3436 25.3315 11.5299 25.4246 11.7162C25.4516 11.7703 25.4757 11.8274 25.5027 11.8844C25.5448 11.9716 25.5839 12.0557 25.6229 12.1429C26.278 12.212 26.918 12.3382 27.5401 12.5065L27.5942 12.4704C27.4289 11.9896 27.2366 11.5239 27.0172 11.0731L30.584 7.50628L25.1421 2.06137L21.5753 5.62821C21.3499 5.51703 21.1216 5.41486 20.8872 5.3187C20.8782 5.3157 20.8661 5.31269 20.8571 5.30668C20.6348 5.21654 20.4094 5.12939 20.181 5.05127V0H12.4824V5.04526C12.0046 5.21053 11.5359 5.39984 11.0881 5.6222L7.52131 2.05536L2.05536 7.50027L2.53615 7.98106L2.65635 8.10126L5.6222 11.0671C5.39984 11.5178 5.20752 11.9836 5.04526 12.4644H0V20.163H5.04526C5.20752 20.6438 5.40284 21.1095 5.6222 21.5603L2.05536 25.1271L7.50027 30.572L11.0671 27.0052C11.2925 27.1164 11.5209 27.2185 11.7552 27.3147C11.7643 27.3207 11.7733 27.3237 11.7853 27.3267C12.0046 27.4169 12.227 27.501 12.4554 27.5791L12.6387 27.5491C12.4644 26.9421 12.3352 26.3171 12.2571 25.674C12.1369 25.6199 12.0197 25.5658 11.9025 25.5087V25.5117ZM10.6795 16.3197C10.6855 13.2066 13.2036 10.6915 16.3167 10.6855C18.0265 10.6855 19.556 11.4487 20.5867 12.6507C21.1726 12.4614 21.7766 12.3172 22.3987 12.218C21.0795 10.2678 18.8468 8.9847 16.3167 8.9847C12.2631 8.9847 8.9817 12.2691 8.9817 16.3227C8.9817 18.8889 10.3009 21.1486 12.2961 22.4587C12.3863 21.8367 12.5215 21.2297 12.7018 20.6408C11.4698 19.6071 10.6855 18.0565 10.6825 16.3227L10.6795 16.3197Z" fill="#236003"/>
</svg>
