<svg width="32" height="25" viewBox="0 0 32 25" fill="none" xmlns="http://www.w3.org/2000/svg">
<g filter="url(#filter0_i_393_4675)">
<path d="M0.0748136 10.28C-0.0904094 10.1355 0.129669 9.8839 0.294905 10.0285L1.16644 10.7909L5.78774 9.15918L4.49012 8.30059L0.21829 9.72323C0.0097762 9.79216 -0.0950377 9.47512 0.113477 9.40618L4.13629 8.06648L3.5043 7.64831L0.227829 8.69974C0.0184425 8.76694 -0.0837152 8.44859 0.125644 8.38139L3.14693 7.41185L1.93077 6.60715L0.226997 7.16304C0.0176107 7.2311 -0.0858549 6.91275 0.123498 6.8447L1.57435 6.37132L0.928451 5.94395L0.226722 6.16701C0.0173559 6.23337 -0.083534 5.91502 0.125839 5.84867L0.570718 5.70725L0.0804279 5.38285C-0.102859 5.26153 0.0818366 4.98246 0.265157 5.1038L22.4329 19.7714C22.6604 19.922 22.9319 19.7192 22.892 19.46C22.8757 19.3541 22.6839 19.224 22.5984 19.1676L9.95745 10.8267C9.94573 10.8208 9.93468 10.8135 9.92459 10.805L1.18291 5.03696C0.999619 4.91649 1.18301 4.63743 1.36633 4.7579L2.07593 5.22612L5.10365 4.29511L4.59722 4.03297C4.40164 3.93217 4.55491 3.63477 4.75051 3.73558C12.7715 7.88743 20.791 12.0385 28.8117 16.1903C29.1114 16.3401 29.5025 15.8993 28.9735 15.6263C21.2502 11.6409 13.5268 7.65541 5.80349 3.66995C5.60791 3.56915 5.76117 3.27175 5.95677 3.37256L6.7144 3.76352L9.55414 2.86521L9.10799 2.68383C8.90379 2.60112 9.02954 2.29062 9.23376 2.37333L30.5905 11.0559C30.7947 11.1386 30.6689 11.4491 30.4647 11.3664L29.3184 10.9004L24.9158 13.156L28.3793 14.9433L31.6516 13.0599C31.8418 12.9506 32.0082 13.2401 31.818 13.3494L28.7323 15.1254L29.2322 15.3834C29.2731 15.4052 29.3108 15.4309 29.3449 15.4598L31.623 14.1227C31.8123 14.0117 31.9813 14.3 31.792 14.411L29.534 15.7362C29.7089 16.248 29.186 16.7116 28.6998 16.5068L28.4025 16.3552L23.1507 19.2023C23.4762 19.7619 22.8078 20.4209 22.2481 20.0505L21.9446 19.8497L15.4823 23.315C15.5187 23.3468 15.5485 23.3719 15.5813 23.4087C16.0305 23.9134 15.4275 24.7712 14.7284 24.3112C14.6003 24.2269 14.4276 24.0525 14.3063 23.9456L13.6999 24.2708C12.974 24.658 12.3858 23.5551 13.1118 23.168L13.306 23.0638L10.017 20.1643L9.30705 20.5346C8.57126 20.8785 8.03062 19.7691 8.7666 19.4077L9.00567 19.2728L6.31908 16.9044L5.52497 17.2418C4.7809 17.5074 4.32483 16.3933 5.07003 16.0762L5.27864 15.9873L3.39095 14.3232L2.64616 14.6023C1.88255 14.8867 1.43072 13.721 2.20996 13.4308L2.32839 13.3865L0.0650607 11.3912C-0.100162 11.2458 0.121231 10.9942 0.286467 11.1397L14.925 24.0445C15.2175 24.2822 15.5842 23.8482 15.3 23.5996C14.92 23.2671 14.54 22.9347 14.1603 22.6025L0.0748136 10.28ZM2.43762 5.46478L3.06857 5.8811L6.22589 4.87601L5.52767 4.5146L2.43762 5.46478ZM3.42685 6.11751L4.6602 6.93131L8.09652 5.8443L6.63321 5.08685C6.61844 5.09802 6.60157 5.10691 6.58292 5.11282L3.42685 6.11751ZM7.13678 3.98149L7.87227 4.36102L10.8874 3.40724L10.0405 3.06294L7.13678 3.98149ZM8.29465 4.57898L9.72007 5.31454L13.035 4.28034L11.3737 3.60496L8.29465 4.57898ZM11.454 2.26424L13.7258 1.54557L13.1206 1.34359C12.912 1.27381 13.0181 0.956761 13.2267 1.02655L28.5552 6.14167C28.7637 6.21145 28.6576 6.5285 28.4491 6.45872L26.1426 5.68905L23.0037 6.95873L24.7645 7.67443L27.2483 6.56987C27.449 6.48026 27.5853 6.78551 27.3845 6.87512L25.1943 7.84913L25.8977 8.13504L28.251 7.09909C28.4526 7.01034 28.5875 7.31691 28.3859 7.40566L26.33 8.31074L29.2709 9.50613L30.9179 8.66603C31.1144 8.56609 31.2663 8.86479 31.0699 8.96474L29.6814 9.67297L30.387 9.95977L31.7256 9.26723C31.9212 9.16642 32.0745 9.46382 31.8789 9.56462L30.7948 10.1255L31.896 10.5731C32.1002 10.6558 31.9745 10.9663 31.7702 10.8836C24.6911 8.00624 17.6116 5.12868 10.5331 2.25157C10.3289 2.16887 10.4547 1.85836 10.6589 1.94108L11.454 2.26424ZM14.2666 1.72603L11.9404 2.46194L12.7873 2.8062L15.2084 2.04032L14.2666 1.72603ZM15.6896 0.925503L16.7915 0.567099C17.0009 0.499036 17.1043 0.817389 16.895 0.885445L16.2211 1.10415L17.1581 1.41909L18.2763 1.03187C18.484 0.960356 18.5927 1.27609 18.385 1.3476L17.676 1.59314L19.5503 2.22313C19.5568 2.22004 19.5637 2.21734 19.5707 2.21507L20.8072 1.81502C21.0166 1.74782 21.1187 2.06617 20.9094 2.13336L20.0808 2.40144L21.0336 2.72168C21.0436 2.71534 21.0544 2.70995 21.0659 2.70572L22.2381 2.27439C22.4449 2.19856 22.5602 2.51299 22.3534 2.58881L21.5347 2.89009L22.5775 3.24058L23.8561 2.77644C24.0638 2.7032 24.1751 3.01894 23.9675 3.09217L23.0772 3.40852L23.9809 3.71229L25.3201 3.23209C25.5277 3.15884 25.6391 3.47459 25.4314 3.54781L24.4892 3.88314L26.0191 4.39735L27.2751 3.84903C27.4767 3.76201 27.609 4.06857 27.4074 4.1556L26.4864 4.55439L27.3554 4.84649L28.6284 4.2705C28.8292 4.1809 28.9654 4.48614 28.7647 4.57576L27.8141 5.00066L29.8624 5.6891C30.0709 5.75888 29.9648 6.07593 29.7563 6.00615L14.7115 0.949456C14.5029 0.879676 14.609 0.562625 14.8176 0.632412L15.6896 0.925503ZM15.7472 2.22011L13.2737 3.0039L14.9377 3.68022L17.5994 2.8382L15.7472 2.22011ZM5.02036 7.16896L5.6475 7.58276L9.25216 6.44249L8.51444 6.06063C8.50537 6.06549 8.49571 6.0696 8.48553 6.07281L5.02036 7.16896ZM6.00765 7.8204L7.2527 8.64193L10.9673 7.3303L9.67373 6.6607L9.67361 6.66074L6.00765 7.8204ZM10.1436 5.53311L10.8974 5.92206L14.3706 4.82334L13.5231 4.47878L10.1436 5.53311ZM11.3197 6.14002L12.5461 6.77286L16.0889 5.52192L14.857 5.02107L11.3197 6.14002ZM18.1403 3.01868L15.4241 3.87792L16.271 4.22218L19.0821 3.33295L18.1403 3.01868ZM19.6187 3.51202L16.7574 4.41988L17.8976 4.8833L20.7305 3.88302L19.6187 3.51202ZM1.45559 11.0439L1.95907 11.4843L6.74687 9.79381L6.13762 9.39069L1.45559 11.0439ZM2.24821 11.7373L3.59198 12.9129L8.61541 11.0302L7.09677 10.0253L2.24821 11.7373ZM7.60322 8.87321L8.21357 9.27594L12.0852 7.90891L11.3745 7.54105C11.3705 7.54283 11.3663 7.54447 11.3621 7.54596L7.60322 8.87321ZM8.56409 9.50722L10.0546 10.4907L14.1255 8.96503L12.4929 8.11998L8.56409 9.50722ZM12.9546 6.98366L13.666 7.35074L17.3702 6.04282L16.5563 5.71194L12.9546 6.98366ZM14.0745 7.56154L15.6714 8.38562L19.5538 6.93056L17.8376 6.23283L14.0745 7.56154ZM21.2439 4.05434L18.365 5.0733L19.179 5.40414L22.1476 4.35593L21.2439 4.05434ZM22.6557 4.52549C22.6439 4.53364 22.6308 4.54038 22.6166 4.5454L19.6464 5.59414L21.312 6.27113L24.308 5.07685L22.6557 4.52549ZM3.87752 13.1627L4.37472 13.5976L9.55913 11.6546L8.95966 11.2579L3.87752 13.1627ZM4.66026 13.8474L6.50734 15.4633L11.8637 13.1795L9.90338 11.8824L4.66026 13.8474ZM10.3995 10.7183L10.9997 11.1143L15.2129 9.5279L14.5253 9.17199L10.3995 10.7183ZM11.3447 11.3419L13.2366 12.5903L17.568 10.747L15.6127 9.73487L11.3447 11.3419ZM16.072 8.59232L16.7604 8.94755L20.7997 7.43709L20.0105 7.11622L16.072 8.59232ZM17.1612 9.15439L19.0357 10.1217L23.0913 8.36876L21.2567 7.62289L17.1612 9.15439ZM3.10694 14.0728L2.6124 13.6368L2.32655 13.744C1.96389 13.879 2.1742 14.4215 2.52957 14.2892L3.10694 14.0728ZM24.797 5.24003L21.7586 6.45267L22.5587 6.77788L25.6538 5.52594L24.797 5.24003ZM6.78687 15.7079L7.27365 16.1338L12.7827 13.7875L12.198 13.4007L6.78687 15.7079ZM7.55324 16.3783L10.2027 18.6962L16.0529 15.9513L13.1171 14.0087L7.55324 16.3783ZM13.5716 12.8114L14.1581 13.1983L18.6245 11.2939L17.9536 10.9465L13.5716 12.8114ZM14.4929 13.4193L17.384 15.3269L22.1229 13.1047L19.0098 11.4933L14.4929 13.4193ZM19.4194 10.3197L20.0935 10.6675L24.3166 8.86688L23.525 8.54507L19.4194 10.3197ZM20.4795 10.8667L23.5304 12.4411L27.7783 10.2742L24.7533 9.04442L20.4795 10.8667ZM6.04099 16.6593L5.55673 16.2324L5.20106 16.3841C4.84405 16.536 5.08062 17.0685 5.42918 16.9202L6.04099 16.6593ZM10.4773 18.9364L10.9543 19.3537L16.9475 16.5432L16.3792 16.1672L10.4773 18.9364ZM11.2289 19.594L14.4773 22.4357L20.7607 19.0663L17.2739 16.7592L11.2289 19.594ZM17.7109 15.5426L18.2796 15.9179L23.1301 13.6261L22.4969 13.2983L17.7109 15.5426ZM18.6065 16.1335L22.0237 18.3883L27.0594 15.6599L23.5039 13.8196L18.6065 16.1335ZM23.897 12.6303L24.5509 12.9677L28.9101 10.7344L28.1887 10.4411L23.897 12.6303ZM9.74851 19.9277L9.27168 19.5073L8.92311 19.703C8.56432 19.8824 8.82657 20.387 9.16338 20.2329L9.74851 19.9277ZM14.7459 22.6708L15.2137 23.08L21.6282 19.6403L21.0772 19.2757L14.7459 22.6708ZM14.039 23.7099L13.5734 23.2995L13.269 23.4627C12.9311 23.6429 13.2048 24.1562 13.5427 23.976L14.039 23.7099ZM27.4187 15.8459L22.3405 18.5973L22.8919 18.9612L28.0425 16.1689L27.4187 15.8459Z" fill="#236003"/>
</g>
<defs>
<filter id="filter0_i_393_4675" x="0" y="0.557617" width="32" height="27.8848" filterUnits="userSpaceOnUse" color-interpolation-filters="sRGB">
<feFlood flood-opacity="0" result="BackgroundImageFix"/>
<feBlend mode="normal" in="SourceGraphic" in2="BackgroundImageFix" result="shape"/>
<feColorMatrix in="SourceAlpha" type="matrix" values="0 0 0 0 0 0 0 0 0 0 0 0 0 0 0 0 0 0 127 0" result="hardAlpha"/>
<feOffset dy="4"/>
<feGaussianBlur stdDeviation="2"/>
<feComposite in2="hardAlpha" operator="arithmetic" k2="-1" k3="1"/>
<feColorMatrix type="matrix" values="0 0 0 0 0 0 0 0 0 0 0 0 0 0 0 0 0 0 0.25 0"/>
<feBlend mode="normal" in2="shape" result="effect1_innerShadow_393_4675"/>
</filter>
</defs>
</svg>
