<svg width="31" height="21" viewBox="0 0 31 21" fill="none" xmlns="http://www.w3.org/2000/svg">
<path fill-rule="evenodd" clip-rule="evenodd" d="M29.0833 3.05945C29.3987 3.61387 29.5373 4.6582 29.1812 5.21502C29.1765 5.98692 28.8204 7.56655 29.3796 8.32172C29.3509 8.8403 29.5851 9.40907 29.7237 10.0256C29.9746 11.144 30.302 12.2457 30.5625 13.4334C30.682 13.9855 30.976 14.7932 30.9067 15.1875C30.8589 15.4576 30.5219 15.6774 30.3642 15.9403C30.1873 16.2319 30.1324 16.5569 29.8217 16.6429C29.3653 16.4063 28.8634 16.2151 28.3926 15.9905C28.4046 13.8469 27.6996 11.5121 27.3077 9.32543C26.0243 11.5742 25.0374 14.0691 23.8568 16.392C23.6656 16.7696 23.4291 17.1591 23.2642 17.5439C22.9607 18.2536 22.8866 19.0661 22.2796 19.4987C22.2127 19.9336 21.9617 20.1774 21.7873 20.5C18.444 20.12 15.6599 18.9084 12.7181 18.0935C10.6868 17.5319 8.66505 17.1591 6.65525 16.3896C6.03391 16.1506 5.46037 15.7969 4.83186 15.6368C4.13404 15.46 3.43384 15.3381 2.76231 15.135C1.84703 14.8601 1.01061 14.5614 0.00212706 14.2842C-0.0265502 13.7274 0.245884 13.7035 0.150293 13.2829C1.09425 11.7773 1.98086 10.267 2.91048 8.771C3.08493 8.4914 3.36932 8.28827 3.55094 8.01822C3.82337 7.61435 4.0026 7.1579 4.28938 6.76598C4.84141 6.0132 5.3815 5.22219 5.96461 4.45985C6.2705 4.06076 6.40672 3.65689 6.65525 3.20761C7.08063 2.43571 7.77128 1.81915 8.08434 0.851296C8.33765 0.743757 8.53122 0.899092 8.62681 0.5C11.0931 0.588422 13.8771 1.25278 16.5632 1.45113C18.6949 1.60885 20.8481 2.24931 22.9702 2.40226C24.2153 2.49307 25.4795 2.53609 26.6672 2.70337C27.3913 2.80374 28.2158 3.01165 29.0809 3.05467L29.0833 3.05945ZM9.26727 0.954057C9.24576 0.932549 9.30073 0.987513 9.26727 0.954057V0.954057ZM10.5984 0.903871C10.5601 0.91582 10.5004 0.903871 10.5004 0.954057C10.5386 0.942108 10.5984 0.954057 10.5984 0.903871ZM8.28269 1.1548C8.26118 1.13329 8.31614 1.18825 8.28269 1.1548V1.1548ZM1.38103 12.2314C1.56982 12.3222 1.56743 12.609 1.62717 12.8336C4.25353 13.9711 7.16188 14.7622 10.1061 15.4886C11.0429 15.7205 11.9223 16.196 12.8663 16.4398C13.533 16.6142 14.1902 16.7552 14.8378 16.9416C16.7783 17.4984 18.7618 17.9621 20.7023 18.5452C21.4432 17.7709 21.9068 16.7504 22.4755 15.8376C22.6715 15.5269 22.9583 15.2377 23.116 14.9366C23.2976 14.5925 23.3884 14.1862 23.5605 13.8349C24.2607 12.3963 25.1664 11.0437 25.8284 9.57396C26.1558 8.84747 26.4426 8.30021 26.7652 7.61913C27.2121 6.67756 27.7235 5.85309 28.1943 5.01189C28.4285 4.59607 28.8323 4.22087 28.8347 3.70946C22.4636 2.44766 15.2704 2.26843 8.87296 1.15241C6.17969 4.64386 3.87595 8.53441 1.38103 12.229V12.2314ZM8.2325 1.25517C8.09867 1.40811 8.38306 1.11895 8.2325 1.25517V1.25517ZM13.7027 1.65665C13.6812 1.63514 13.7338 1.69011 13.7027 1.65665V1.65665ZM28.7845 4.56261C27.2336 6.77554 26.194 9.52378 24.8414 11.8801C24.3802 12.6831 23.9261 13.529 23.6585 14.387C24.8247 12.1979 26.0841 10.0854 27.1571 7.87006C27.5203 7.11967 28.0843 6.43141 28.2421 5.56393C28.5766 5.2198 28.7559 4.71556 29.0307 4.31169C29.0235 4.25194 29.0402 4.1683 28.9805 4.16113C28.8873 4.26628 28.8395 4.41684 28.7821 4.56261H28.7845ZM28.4404 7.7195C28.4404 7.64542 28.4595 7.30846 28.3902 7.46857C28.3902 7.54266 28.3711 7.87961 28.4404 7.7195ZM28.6866 7.51876C28.665 7.49725 28.7176 7.55222 28.6866 7.51876V7.51876ZM28.6364 9.47359C28.6507 8.91439 28.8658 8.03973 28.6364 7.56894C28.6507 8.24764 28.4285 9.03626 28.6364 9.47359ZM28.34 8.02061C28.3185 7.9991 28.3711 8.05407 28.34 8.02061V8.02061ZM27.9457 8.12098C28.0031 7.92263 28.0031 8.31933 27.9457 8.12098V8.12098ZM28.438 8.47228C28.4165 8.45077 28.4715 8.50573 28.438 8.47228V8.47228ZM28.34 8.67302C28.3185 8.65151 28.3711 8.70648 28.34 8.67302V8.67302ZM28.7344 15.2879C28.7344 15.3405 28.7582 15.4146 28.7845 15.3381C29.0833 15.1063 28.8586 15.6703 29.0307 15.6392C29.1239 15.6607 29.155 15.7467 29.2768 15.7396C29.2434 15.6057 29.3796 15.6416 29.425 15.589C29.0211 14.4085 29.1956 12.977 28.6364 11.9805C28.7845 10.8238 28.2707 9.57157 27.7976 8.7232C27.7856 11.0078 28.5002 13.2566 28.7344 15.2903V15.2879ZM28.8825 10.0256C28.9327 9.64327 29.0522 9.31109 28.8825 9.02431C28.8945 9.33976 28.7606 9.67672 28.8825 10.0256ZM29.0307 11.8801C28.9662 11.2277 29.4274 10.4892 29.0809 10.0256C29.1358 10.7139 28.7105 11.3759 29.0307 11.8801ZM28.7845 10.5275C28.8419 10.3291 28.8419 10.7258 28.7845 10.5275V10.5275ZM29.2768 12.934C29.3963 12.2911 29.6544 11.6148 29.327 11.0293C29.3414 11.6841 28.9375 12.4058 29.2768 12.934ZM25.728 11.5814C25.7065 11.5599 25.7615 11.6148 25.728 11.5814V11.5814ZM25.2835 11.8323C25.2835 11.8323 25.2859 11.8777 25.2835 11.8825C25.0493 12.1549 25.5201 11.7893 25.2835 11.8323ZM21.8327 18.0983C21.7084 18.3564 21.4623 18.6838 21.5364 18.9992C21.7921 18.8869 21.9211 18.5332 22.0287 18.2966C23.0156 16.1554 24.244 14.1193 25.2333 12.0808C25.2859 12.0784 25.2716 12.0163 25.1832 12.0306C24.1675 14.0357 22.7838 16.1052 21.8303 18.0959L21.8327 18.0983ZM29.4728 13.9879C29.4011 13.3187 30.0129 12.7858 29.5708 12.3341C29.5039 12.9244 29.3151 13.5577 29.4728 13.9879ZM25.1855 12.7356C25.1664 12.7141 25.219 12.7691 25.1855 12.7356V12.7356ZM1.13249 12.8862C1.18267 12.8862 1.19223 12.9268 1.23047 12.9364C1.22569 12.8575 1.23764 12.7619 1.13249 12.7858V12.8862ZM29.7213 15.0418C29.6664 14.3224 30.2781 13.6581 29.8193 13.1371C29.7357 13.6915 29.3079 14.6044 29.7213 15.0418ZM24.8916 13.2375C24.949 13.0391 24.949 13.4358 24.8916 13.2375V13.2375ZM1.08469 13.9903C1.06319 13.9688 1.11576 14.0237 1.08469 13.9903V13.9903ZM29.8695 15.644C29.9316 15.1445 30.4598 14.4706 30.1156 14.0404C30.0248 14.5327 29.7667 15.123 29.8695 15.644ZM4.28938 14.6427C4.26787 14.6212 4.32044 14.6761 4.28938 14.6427V14.6427ZM23.4625 14.6427C23.441 14.6212 23.496 14.6761 23.4625 14.6427V14.6427ZM4.53552 14.6427C4.49729 14.6546 4.43754 14.6427 4.43754 14.6929C4.47578 14.6809 4.53552 14.6929 4.53552 14.6427ZM30.1156 15.644C30.2327 15.362 30.5171 14.9844 30.412 14.6427C30.3522 14.982 30.0702 15.3644 30.1156 15.644ZM5.76626 14.9916C5.41974 14.8912 4.92028 14.6833 4.58332 14.7406C4.97524 14.7956 5.43886 15.0394 5.76626 14.9916ZM23.4123 16.294C23.594 15.9092 23.907 15.3931 23.9548 15.0418C23.778 15.4313 23.4745 15.957 23.4123 16.294ZM4.97763 15.4409C4.95612 15.4193 5.0087 15.4743 4.97763 15.4409V15.4409ZM5.22378 15.491C5.26918 15.3668 4.94179 15.4767 5.1258 15.491C5.20705 15.4863 5.34088 15.5747 5.22378 15.491ZM22.2772 16.6931C22.0048 17.1472 21.4599 17.5295 21.5865 17.9955C22.0454 17.3598 22.7265 16.2486 23.0156 15.4385C22.6739 15.7754 22.5305 16.2653 22.2748 16.6907L22.2772 16.6931ZM7.98396 15.7898C7.96246 15.7683 8.01503 15.8232 7.98396 15.7898V15.7898ZM11.3344 16.7409C10.6318 16.4804 9.71894 16.2104 8.91837 15.9881C8.73435 15.9379 8.2086 15.7157 8.27791 15.8376C9.31029 16.0909 10.2686 16.6859 11.3344 16.7385V16.7409ZM29.4226 15.9881C29.48 15.7898 29.48 16.1865 29.4226 15.9881V15.9881ZM23.3096 16.4398C23.2881 16.4183 23.343 16.4732 23.3096 16.4398V16.4398ZM9.26249 16.7911C9.20514 16.7982 9.1215 16.7815 9.11433 16.8413C9.17168 16.8341 9.25532 16.8508 9.26249 16.7911ZM9.41066 16.8413C9.37242 16.8532 9.31268 16.8413 9.31268 16.8914C9.35091 16.8795 9.41066 16.8914 9.41066 16.8413ZM9.70699 16.9416C9.66875 16.9536 9.60901 16.9416 9.60901 16.9918C9.64725 16.9799 9.70699 16.9918 9.70699 16.9416ZM14.1926 17.4937C14.1711 17.4722 14.2237 17.5271 14.1926 17.4937V17.4937ZM14.7351 17.594C14.5869 17.5439 14.4411 17.4913 14.2906 17.4435C14.3192 17.5845 14.6443 17.6825 14.7351 17.594ZM15.7197 17.8951C15.691 17.8665 15.4855 17.778 15.4735 17.8951C15.5954 17.8306 15.679 18.0433 15.7197 17.8951ZM22.7193 18.0457C22.7265 17.986 22.8077 17.931 22.7193 17.8951C22.7121 17.9549 22.6309 18.0099 22.7193 18.0457ZM16.9528 18.2464C16.7496 18.1748 16.0016 17.9549 16.1642 18.0457C16.329 18.1102 16.4581 18.213 16.7066 18.1963C16.7066 18.2656 16.7305 18.3062 16.7568 18.3468C17.7892 18.5834 18.8622 19.047 19.8133 19.2C18.9148 18.9275 17.8155 18.5547 16.9552 18.2488L16.9528 18.2464ZM21.1922 18.6479C21.3834 18.6192 21.6104 18.2249 21.4384 18.1461C21.295 18.2512 21.2257 18.4305 21.1922 18.6479ZM22.6213 18.1461C22.3345 18.5571 22.6476 18.4424 22.6213 18.1461V18.1461ZM19.0247 18.6981C18.9291 18.5189 18.2552 18.4257 18.2361 18.4974C18.5157 18.5476 18.7786 18.6145 19.0247 18.6981ZM16.2143 18.6479C16.157 18.6551 16.0733 18.6384 16.0662 18.6981C16.1235 18.6909 16.2072 18.7077 16.2143 18.6479ZM19.1729 18.6479C19.1346 18.6599 19.0749 18.6479 19.0749 18.6981C19.1131 18.6862 19.1729 18.6981 19.1729 18.6479ZM22.3776 18.6981C22.3561 18.6766 22.411 18.7316 22.3776 18.6981V18.6981ZM16.4127 18.6981C16.3553 18.7053 16.2741 18.6886 16.2645 18.7483C16.3219 18.7411 16.4055 18.7579 16.4127 18.6981ZM16.5609 18.7985C16.2932 18.6527 16.9456 18.9419 16.5609 18.7985V18.7985ZM16.807 18.8989C16.7855 18.8773 16.8405 18.9323 16.807 18.8989V18.8989ZM21.0943 18.9992C21.1827 18.9873 21.3404 19.0494 21.2902 18.8989C21.1779 18.8845 21.1038 18.9108 21.0943 18.9992ZM18.2361 19.5011C18.1978 19.513 18.1381 19.5011 18.1381 19.5513C18.1763 19.5393 18.2361 19.5513 18.2361 19.5011ZM18.4822 19.5513C18.4249 19.5584 18.3412 19.5417 18.3341 19.6014C18.3914 19.5943 18.4727 19.611 18.4822 19.5513Z" fill="#236003"/>
<path fill-rule="evenodd" clip-rule="evenodd" d="M12.3242 2.65791C12.3959 2.91122 12.0493 2.92317 12.1258 3.26013C11.9561 3.53734 11.6407 3.71896 11.4352 4.06309C11.385 4.14434 11.4017 4.32119 11.3372 4.41439C11.2129 4.58884 10.9835 4.70833 10.8449 4.91624C10.4817 5.45633 9.89377 6.82806 9.16967 6.87107C8.78491 6.89497 8.11578 6.47198 7.54223 6.41941C7.20767 6.39073 6.93045 6.42897 6.60544 6.21867C6.48117 6.06094 6.73688 5.90083 6.60544 5.71681C7.32954 4.81587 7.82662 3.68312 8.577 2.81085C8.61524 2.50018 8.81598 2.35202 8.92113 2.10826C9.89377 2.10587 11.4161 2.43566 12.3218 2.6603L12.3242 2.65791ZM9.0215 2.65791C9.21507 2.63401 9.27721 2.76306 9.36563 2.60772C9.24375 2.58143 9.19118 2.48584 9.11948 2.40698C9.0693 2.47389 9.07169 2.59099 9.0215 2.65791ZM10.3024 2.85865C10.4864 2.86104 10.5844 2.7774 10.6465 2.65791C10.4315 2.62445 10.3741 2.74872 10.3024 2.85865ZM11.189 2.80846C11.1675 2.78695 11.2225 2.84192 11.189 2.80846V2.80846ZM9.31544 3.56124C9.01194 3.62098 9.19118 3.80261 9.31544 3.56124V3.56124ZM10.8927 4.21365C11.017 4.22321 11.048 4.13717 11.091 4.06309C10.9668 4.05353 10.9357 4.13956 10.8927 4.21365ZM8.67498 4.7155C9.05496 4.66053 9.63089 4.29251 9.56159 4.11328C9.30588 4.35464 8.94025 4.48369 8.67498 4.7155ZM8.08471 4.61513C8.09188 4.55538 8.17313 4.50281 8.08471 4.46457C8.07754 4.52432 7.99629 4.57928 8.08471 4.61513ZM10.6967 4.46457C10.6585 4.47652 10.5988 4.46457 10.5988 4.51476C10.637 4.50281 10.6967 4.51476 10.6967 4.46457ZM7.93655 4.66531C7.91504 4.64381 7.97 4.69877 7.93655 4.66531V4.66531ZM10.2522 5.26754C10.3191 5.1361 10.4601 5.07874 10.4984 4.91624C10.3239 4.90907 10.1805 5.19106 10.2522 5.26754ZM9.01911 5.51846C8.9976 5.49696 9.05257 5.55192 9.01911 5.51846V5.51846ZM8.28067 5.91994C8.49336 5.81957 8.93786 5.68575 8.92113 5.51846C8.75146 5.69531 8.42406 5.71442 8.28067 5.91994ZM9.41342 6.02032C9.57593 5.98447 9.78384 5.99642 9.80774 5.81957C9.64762 5.85781 9.51618 5.92472 9.41342 6.02032ZM7.14553 5.91994C7.12402 5.89844 7.1766 5.9534 7.14553 5.91994V5.91994Z" fill="#236003"/>
<path fill-rule="evenodd" clip-rule="evenodd" d="M21.295 4.06084C20.5183 5.7289 19.6389 7.28943 18.5348 8.62292C17.2037 8.81888 15.8702 8.14496 15.084 8.07088C15.1318 7.12931 15.8344 6.46017 16.2669 5.71457C16.7162 4.93789 17.0723 4.11342 17.6482 3.45862C18.6639 3.22442 19.7488 3.6498 20.9987 3.60918C21.056 3.80036 21.2257 3.87922 21.295 4.06084ZM19.3736 3.80992C19.4453 3.9772 19.4955 3.61396 19.3736 3.80992V3.80992ZM20.0643 4.01066C20.069 3.91507 20.2268 3.97481 20.2124 3.8601C20.0714 3.7908 19.9161 3.95092 20.0643 4.01066ZM20.5088 4.06084H20.6067C20.6091 3.99632 20.6713 3.99154 20.6569 3.91029H20.559C20.5566 3.97481 20.4968 3.97959 20.5112 4.06084H20.5088ZM19.1299 4.26159C19.2685 4.29743 19.6102 4.1636 19.7703 4.06084C19.5146 4.08713 19.2302 4.07757 19.1299 4.26159ZM17.4546 4.31177C17.5813 4.30699 17.6267 4.22096 17.7008 4.16121C17.5454 4.13732 17.5 4.22335 17.4546 4.31177ZM20.8553 4.36196C20.9126 4.1636 20.9126 4.56031 20.8553 4.36196V4.36196ZM18.7356 4.41214C18.6973 4.42409 18.6376 4.41214 18.6376 4.46233C18.6758 4.45038 18.7356 4.46233 18.7356 4.41214ZM19.4764 4.5627C19.4549 4.54119 19.5075 4.59615 19.4764 4.5627V4.5627ZM18.7356 5.2151C19.0701 5.08367 19.9328 4.96896 19.7703 4.66307C19.4525 4.87576 19.0247 4.97374 18.7356 5.2151ZM18.5396 4.76344C18.5181 4.74193 18.5731 4.79689 18.5396 4.76344V4.76344ZM16.9623 5.2151C17.0364 5.15536 17.1631 5.15297 17.2085 5.06455C17.0794 5.03826 16.8811 5.1936 16.9623 5.2151ZM18.5396 5.11473C18.3795 5.21032 18.781 4.97135 18.5396 5.11473V5.11473ZM19.6723 5.46603C19.9496 5.39673 20.2316 5.3322 20.3128 5.06455C20.0858 5.18404 19.842 5.2868 19.6723 5.46603ZM18.3914 5.2151C18.3699 5.1936 18.4249 5.24856 18.3914 5.2151V5.2151ZM18.6376 5.26529C18.6161 5.24378 18.671 5.29875 18.6376 5.26529V5.26529ZM18.5396 5.31547C18.5181 5.29397 18.5731 5.34893 18.5396 5.31547V5.31547ZM17.2587 5.81733C17.4881 5.68111 18.1286 5.70023 17.9971 5.36566C17.7605 5.57596 17.414 5.66438 17.2587 5.81733ZM18.8861 5.76714C19.1084 5.79104 19.4573 5.46842 19.3784 5.51622C19.2063 5.59269 18.9769 5.60703 18.8861 5.76714ZM18.3938 5.5664C18.3723 5.54489 18.4273 5.59986 18.3938 5.5664V5.5664ZM18.2457 5.61659C18.1118 5.76953 18.3962 5.48037 18.2457 5.61659V5.61659ZM19.4788 6.11844C19.6078 6.16145 19.7775 5.99656 19.6747 5.96788C19.6604 6.07064 19.4907 6.01568 19.4788 6.11844ZM18.6902 6.11844C18.671 6.09693 18.7236 6.15189 18.6902 6.11844V6.11844ZM18.542 6.16862C18.5205 6.14711 18.5754 6.20208 18.542 6.16862V6.16862ZM19.3808 6.16862C19.3593 6.14711 19.4143 6.20208 19.3808 6.16862V6.16862ZM17.9015 6.21881C17.8442 6.22598 17.7605 6.20925 17.7534 6.26899C17.8107 6.26182 17.892 6.27855 17.9015 6.21881ZM17.6554 6.31918C17.6339 6.29767 17.6888 6.35264 17.6554 6.31918V6.31918ZM17.6554 6.62029C17.9159 6.60117 18.1763 6.58205 18.2958 6.41955C18.1118 6.46018 18.0067 6.57966 17.9995 6.41955C17.9469 6.5486 17.708 6.48885 17.6554 6.62029ZM19.7249 6.51992C19.7034 6.49841 19.756 6.55338 19.7249 6.51992V6.51992ZM19.5266 6.87122C19.4334 7.0624 19.6556 6.60595 19.5266 6.87122V6.87122ZM16.568 7.12214C16.7736 6.85927 16.9528 7.04089 16.568 7.12214V7.12214ZM18.0951 7.37307C18.1501 7.49495 18.3508 7.29421 18.2433 7.2727C18.2433 7.35634 18.107 7.30137 18.0951 7.37307ZM15.7794 7.57381C15.7579 7.5523 15.8105 7.60727 15.7794 7.57381V7.57381ZM16.5178 7.72436C16.5298 7.58576 16.7951 7.70525 16.764 7.52362C16.6469 7.52362 16.4175 7.66701 16.5178 7.72436ZM18.4894 7.9251C18.4894 7.84146 18.6256 7.89643 18.6376 7.82473C18.5372 7.78172 18.3651 7.9036 18.4894 7.9251ZM18.1931 8.2764C18.033 8.37199 18.4344 8.13301 18.1931 8.2764V8.2764Z" fill="#236003"/>
<path fill-rule="evenodd" clip-rule="evenodd" d="M26.9134 4.71326C26.9636 4.86381 26.8034 4.80168 26.715 4.81363C26.7341 4.90922 26.9062 4.85426 26.8632 5.01437C26.4306 6.54621 25.3672 7.43521 24.7435 8.77348C24.7028 8.91448 24.8128 8.90253 24.7936 9.02441C24.385 9.27533 24.0504 9.60512 23.7087 9.92535C22.7122 9.586 21.5029 9.46174 20.504 9.12239C20.0691 8.69223 20.4729 8.23817 20.7502 7.71959C21.3524 6.59401 22.1075 4.53403 23.0658 4.01067C24.2249 4.3524 25.9479 4.33329 26.911 4.71326H26.9134ZM24.2034 4.86381C24.5451 4.81602 24.7506 4.82797 24.9418 4.71326C24.7435 4.62962 24.3969 4.78017 24.2034 4.86381ZM24.894 5.11474C25.1019 5.0072 25.403 4.99764 25.5345 4.81363C25.2549 4.84709 25.0589 4.96418 24.894 5.11474ZM26.0268 4.96418C26.0292 4.87815 25.9885 4.83514 25.9288 4.81363C25.8595 4.88771 25.8571 5.0072 26.0268 4.96418ZM24.1532 4.86381C24.115 4.87576 24.0552 4.86381 24.0552 4.914C24.0934 4.90205 24.1532 4.914 24.1532 4.86381ZM25.8284 4.914C25.7974 4.89966 25.6396 4.78973 25.6325 4.914C25.6635 4.92834 25.8212 5.03827 25.8284 4.914ZM23.8067 5.51622C24.0934 5.30592 24.624 5.34416 24.8414 5.06456C24.4567 5.14342 23.9118 5.32026 23.8067 5.51622ZM22.4756 5.21511C22.2318 5.28202 22.3991 5.4517 22.4756 5.21511V5.21511ZM23.6585 5.2653C23.4984 5.3585 23.8999 5.12191 23.6585 5.2653V5.2653ZM23.5605 5.31548C23.2355 5.41824 22.8651 5.47799 22.6739 5.71696C22.9941 5.60942 23.2881 5.47321 23.5605 5.31548ZM25.5321 5.41585C25.2716 5.54729 25.7209 5.32026 25.5321 5.41585V5.41585ZM26.4187 5.71696C26.4569 5.66439 26.5764 5.30353 26.4665 5.41585C26.5047 5.5449 26.2729 5.64527 26.4187 5.71696ZM25.3337 5.51622C25.3122 5.49471 25.3672 5.54968 25.3337 5.51622V5.51622ZM25.1856 5.61659C25.1951 5.55446 25.262 5.51383 25.1354 5.51622C24.7482 5.83884 24.0982 5.89859 23.7063 6.21882C24.2488 6.25705 24.6742 5.77432 25.1856 5.61659ZM25.8762 5.76715C25.8977 5.67156 25.9838 5.64049 25.9742 5.51622C25.8284 5.45648 25.7615 5.72652 25.8762 5.76715ZM23.6083 5.81733C23.7708 5.7791 24.1556 5.70979 24.0528 5.56641C23.974 5.72174 23.6657 5.64288 23.6083 5.81733ZM25.1856 5.86752C25.3122 5.84601 25.4126 5.79822 25.4819 5.71696C25.3313 5.71457 25.231 5.76237 25.1856 5.86752ZM21.8829 6.11844C22.0359 6.10172 22.3107 5.95355 22.1792 5.81733C22.1362 5.97506 21.9259 5.96072 21.8829 6.11844ZM22.2294 6.46974C22.5735 6.34547 23.1447 5.93682 23.2642 5.9177C22.8077 5.9894 22.5281 6.23793 22.2294 6.46974ZM24.9896 5.96789C25.0733 5.97028 25.1163 5.92965 25.1378 5.86752C25.0541 5.86752 25.0111 5.90576 24.9896 5.96789ZM25.2358 5.9177C24.373 6.59401 22.944 6.69438 22.1314 7.42087C22.6787 7.23208 23.2331 6.95486 23.8067 6.71828C24.3587 6.49125 25.0541 6.42434 25.3839 5.91531H25.2358V5.9177ZM25.4819 6.41956C25.5177 6.30485 25.6683 6.30963 25.6779 6.16863H25.5297C25.5823 6.29768 25.317 6.34308 25.4795 6.41956H25.4819ZM26.1224 6.16863C25.8786 6.23554 26.0459 6.40522 26.1224 6.16863V6.16863ZM23.6585 6.36937C23.637 6.34786 23.6896 6.40283 23.6585 6.36937V6.36937ZM23.5605 6.41956C23.539 6.39805 23.594 6.45301 23.5605 6.41956V6.41956ZM25.9264 6.41956C25.7926 6.5725 26.077 6.28334 25.9264 6.41956V6.41956ZM23.7087 7.16994C24.2368 7.02178 24.9801 6.82582 25.0876 6.41956C24.6981 6.74218 24.1245 6.876 23.7087 7.16994ZM22.5759 6.61791C22.5568 6.5964 22.6094 6.65136 22.5759 6.61791V6.61791ZM21.5914 6.66809C21.663 6.83538 21.7132 6.47213 21.5914 6.66809V6.66809ZM25.7806 6.66809C25.7615 6.64658 25.8141 6.70155 25.7806 6.66809V6.66809ZM22.282 6.71828C22.0287 6.84016 22.4517 6.84733 22.282 6.71828V6.71828ZM25.2883 6.76846C25.2668 6.74695 25.3194 6.80192 25.2883 6.76846V6.76846ZM21.5412 7.3205C21.7108 7.23925 22.0765 7.09825 21.9857 6.91902C21.902 7.08391 21.5173 7.21057 21.5412 7.3205ZM23.907 7.37068C23.9883 7.54275 23.9023 7.52124 23.8091 7.62161C24.0002 7.56187 24.4041 7.45911 24.3993 7.37068C24.3085 7.32289 24.2344 7.52124 24.2034 7.37068C24.3826 7.30616 24.8032 6.99549 24.7459 7.01939C24.4089 7.07913 24.2201 7.28704 23.907 7.37068ZM24.6957 7.27031C24.6742 7.24881 24.7267 7.30377 24.6957 7.27031V7.27031ZM21.9355 8.02309C22.4278 7.83669 23.2188 7.69091 23.3646 7.3205C23.0969 7.56426 22.1171 7.70047 21.9355 8.02309ZM21.1469 7.52124C21.2185 7.68852 21.2687 7.32528 21.1469 7.52124V7.52124ZM21.6391 7.62161C21.8017 7.63356 22.1123 7.53797 22.0335 7.47106C21.8686 7.55948 21.7467 7.43521 21.6391 7.62161ZM21.491 8.52256C22.2916 8.26685 23.0706 7.98964 23.7589 7.62161C22.9607 7.87732 22.1936 8.16887 21.491 8.52256ZM23.3646 8.12107C23.4458 8.0207 23.6896 8.08284 23.7087 7.92033C23.5868 7.9514 23.2594 8.02787 23.3646 8.12107ZM24.6957 8.12107C24.6837 8.02548 24.7506 8.01114 24.7459 7.92033H24.5977C24.6049 8.01353 24.6311 8.08762 24.6957 8.12107ZM23.5127 8.372C23.8592 8.28836 24.1771 8.17843 24.3993 7.97052C24.0672 8.0685 23.6967 8.12585 23.5127 8.372ZM22.8723 8.27163C22.8508 8.25012 22.9057 8.30509 22.8723 8.27163V8.27163ZM22.7241 8.32181C22.7026 8.30031 22.7576 8.35527 22.7241 8.32181V8.32181ZM22.5281 8.42218C22.5855 8.39829 22.6405 8.36961 22.6763 8.32181C22.6094 8.31465 22.4039 8.40068 22.5281 8.42218ZM22.4302 8.42218C22.3919 8.43413 22.3322 8.42218 22.3322 8.47237C22.3704 8.46042 22.4302 8.47237 22.4302 8.42218ZM22.2342 8.52256C22.2127 8.50105 22.2653 8.55601 22.2342 8.52256V8.52256ZM24.3539 8.67311C24.4854 8.70657 24.4495 8.57035 24.5021 8.52256C24.3946 8.513 24.3468 8.56318 24.3539 8.67311ZM24.1078 8.67311C24.0863 8.6516 24.1388 8.70657 24.1078 8.67311V8.67311ZM23.4673 8.92404C23.6824 8.94316 23.7708 8.83323 23.8616 8.7233C23.7039 8.76153 23.5701 8.82845 23.4673 8.92404ZM21.4958 8.87385H21.6439V8.77348H21.4958V8.87385ZM22.0382 8.97422C22.239 8.94554 22.4039 8.87863 22.5305 8.77348C22.3107 8.78543 22.0813 8.78543 22.0382 8.97422ZM22.7289 8.92404C22.6954 9.05786 22.8316 9.01963 22.8771 9.07459C22.8293 8.98139 23.0252 8.90731 22.8771 8.87385C22.8699 8.93121 22.8006 8.92882 22.7289 8.92404ZM23.7637 9.12478C23.7445 9.10327 23.7971 9.15823 23.7637 9.12478V9.12478ZM23.6657 9.17496C23.6442 9.15345 23.6967 9.20842 23.6657 9.17496V9.17496ZM23.7135 9.62663C23.6561 9.58361 23.582 9.55972 23.4673 9.57644C23.3909 9.727 23.723 9.70788 23.7135 9.62663Z" fill="#236003"/>
<path fill-rule="evenodd" clip-rule="evenodd" d="M10.0093 6.76849C9.9868 6.746 10.0443 6.80348 10.0093 6.76849V6.76849Z" fill="#236003"/>
<path fill-rule="evenodd" clip-rule="evenodd" d="M8.77466 8.02075C8.73403 8.48915 8.42097 8.86673 8.18438 9.22281C7.48657 10.2743 6.65015 11.2469 6.06465 12.4801C6.02164 12.5183 5.95234 12.535 5.86869 12.5303C5.81134 12.676 5.78744 12.8194 5.77071 12.8815C4.86738 13.1516 3.73463 12.3749 2.96034 12.179C2.84802 11.983 2.99619 11.799 2.91016 11.6269C3.74658 10.3054 4.6523 9.05552 5.47438 7.71725C5.69185 7.68858 5.81851 7.56431 5.86869 7.36596C6.81982 7.2154 8.13659 7.68619 8.77705 8.01836L8.77466 8.02075ZM6.50676 7.76983C6.57846 7.60254 6.62864 7.96579 6.50676 7.76983V7.76983ZM7.73988 7.97057C7.69926 7.92755 7.59889 8.00641 7.59172 8.02075C7.54631 8.10917 7.77334 8.00641 7.73988 7.97057ZM7.44355 8.42223C7.42205 8.40073 7.47462 8.45569 7.44355 8.42223V8.42223ZM7.6897 8.82372C7.74705 8.62537 7.74705 9.02207 7.6897 8.82372V8.82372ZM6.85089 9.37575C6.82938 9.35425 6.88196 9.40921 6.85089 9.37575V9.37575ZM5.76593 9.92779C5.85196 9.93974 6.05749 9.8322 5.9141 9.77724C5.90932 9.87283 5.75159 9.81308 5.76593 9.92779ZM6.65254 9.87761C6.63103 9.8561 6.68361 9.91106 6.65254 9.87761V9.87761ZM5.66795 9.97798C5.64644 9.95647 5.69902 10.0114 5.66795 9.97798V9.97798ZM5.61777 10.0282C5.57953 10.0401 5.51979 10.0282 5.51979 10.0783C5.55802 10.0664 5.61777 10.0783 5.61777 10.0282ZM5.4696 10.0783C5.43137 10.0903 5.37162 10.0783 5.37162 10.1285C5.40986 10.1166 5.4696 10.1285 5.4696 10.0783ZM6.05988 10.1285C5.68229 10.2934 6.2176 10.0592 6.05988 10.1285V10.1285ZM5.22107 10.2289C5.19956 10.2074 5.25213 10.2624 5.22107 10.2289V10.2289ZM5.71336 10.3795C5.69185 10.358 5.74682 10.4129 5.71336 10.3795V10.3795ZM5.81134 10.9817C5.85435 10.9052 6.12201 10.8001 6.0073 10.7308C5.96428 10.8072 5.69663 10.9124 5.81134 10.9817ZM6.25584 11.0319C6.3801 10.7905 6.55934 10.9721 6.25584 11.0319V11.0319ZM4.58061 11.5839C4.5591 11.5624 4.61406 11.6174 4.58061 11.5839V11.5839ZM4.38226 11.6843C4.36075 11.6628 4.41571 11.7177 4.38226 11.6843V11.6843ZM4.28428 11.7345C4.26277 11.713 4.31534 11.7679 4.28428 11.7345V11.7345ZM5.12309 11.9854C5.24974 11.9615 5.53174 11.8372 5.41942 11.7345C5.38835 11.8874 5.15415 11.8324 5.12309 11.9854ZM5.91171 11.885C5.8902 11.8635 5.94278 11.9185 5.91171 11.885V11.885ZM4.72877 12.1861C4.84109 12.2005 4.91517 12.1742 4.92712 12.0858C4.8387 12.0977 4.68098 12.0356 4.72877 12.1861ZM5.27125 12.2865C5.24974 12.265 5.30232 12.32 5.27125 12.2865V12.2865ZM5.0729 12.4371C5.01555 12.4442 4.9319 12.4275 4.92473 12.4872C4.98209 12.4801 5.06573 12.4968 5.0729 12.4371Z" fill="#236003"/>
<path fill-rule="evenodd" clip-rule="evenodd" d="M12.9171 9.07197C12.2862 10.8022 11.2586 12.1285 10.4031 13.6317C10.4342 13.7344 10.6516 13.646 10.599 13.8324C10.4007 13.9328 10.2119 14.0403 10.0088 14.1335C9.88929 14.1048 9.75546 14.0905 9.76263 13.9328C9.6766 14.0785 9.42806 14.0594 9.31813 14.1837C8.76131 13.9352 7.95357 13.5074 7.29638 13.6818C7.01917 13.6317 6.92119 13.3951 6.75391 13.2302C7.23186 12.346 7.79107 11.4952 8.38134 10.6229C8.82106 9.97291 8.98595 9.21057 9.4663 8.71828C10.2955 7.86752 11.8656 8.72784 12.9171 9.06958V9.07197ZM10.3051 8.87123C10.1354 8.74218 10.5584 8.74935 10.3051 8.87123V8.87123ZM11.4379 9.12215C11.5287 9.11498 11.6028 9.0887 11.6338 9.02178C11.5215 9.00744 11.4474 9.03373 11.4379 9.12215ZM10.5513 9.17234C10.6349 9.17473 10.6779 9.1341 10.6994 9.07197C10.6158 9.06958 10.5728 9.1102 10.5513 9.17234ZM11.0937 9.77456C11.0842 9.70765 11.3781 9.71004 11.1917 9.624C11.2013 9.69092 10.9073 9.68853 11.0937 9.77456ZM9.4185 10.0757C8.77804 10.4007 9.37549 10.2143 9.4185 10.0757V10.0757ZM10.6516 10.0757C10.6301 10.0542 10.6851 10.1091 10.6516 10.0757V10.0757ZM8.92621 10.427C8.79238 10.5799 9.07676 10.2908 8.92621 10.427V10.427ZM9.12456 10.7281C9.18191 10.5297 9.18191 10.9264 9.12456 10.7281V10.7281ZM9.02658 10.8786C9.00507 10.8571 9.06004 10.9121 9.02658 10.8786V10.8786ZM9.56906 11.4307C9.54755 11.4092 9.60251 11.4641 9.56906 11.4307V11.4307ZM10.2095 11.4307C10.1761 11.6171 10.4652 11.4355 10.5058 11.3805C10.3553 11.3446 10.3266 11.4307 10.2095 11.4307ZM9.37071 11.9827C8.88319 12.2312 9.47586 12.0114 9.37071 11.9827V11.9827ZM9.56667 12.334C9.71005 12.279 9.89885 12.2719 9.91079 12.0831C9.65987 12.0281 9.66226 12.2312 9.56667 12.334ZM8.82823 12.6853C8.78999 12.6973 8.73025 12.6853 8.73025 12.7355C8.76848 12.7235 8.82823 12.7355 8.82823 12.6853ZM7.153 13.2875C7.26532 13.235 7.44933 13.2565 7.54731 13.1872C7.5497 13.1011 7.50907 13.0581 7.44933 13.0366C7.46606 13.2373 7.06219 13.0103 7.153 13.2875ZM10.4055 13.0868C10.4628 12.8884 10.4628 13.2851 10.4055 13.0868V13.0868Z" fill="#236003"/>
<path fill-rule="evenodd" clip-rule="evenodd" d="M17.5005 10.0757C17.4073 11.3351 16.7071 11.9493 16.1192 12.8335C15.6461 13.5457 15.2159 14.2626 14.7881 15.0393C14.6089 15.0919 14.5157 15.2305 14.3938 15.3404C13.4092 15.4647 12.5704 14.9533 11.5834 14.7884C11.4902 14.5518 11.538 14.2483 11.2871 14.2865C11.4066 13.5051 11.9204 12.7523 12.4199 11.9804C13.0818 10.9576 13.3734 9.74594 14.4894 9.27277C15.2924 9.42332 15.9973 9.67664 16.9055 9.72443C17.099 9.84392 17.2783 9.98014 17.4957 10.0757H17.5005ZM14.7905 9.77462C14.8646 9.76506 14.9721 9.79374 14.9889 9.72443C14.9243 9.65991 14.8049 9.65752 14.7905 9.77462ZM14.3962 9.77462C14.3388 9.78179 14.2576 9.76506 14.248 9.8248C14.3054 9.81763 14.389 9.83436 14.3962 9.77462ZM14.4942 10.3267C14.5754 10.1761 14.8598 10.2311 14.8885 10.0255C14.7403 10.0757 14.4368 10.2335 14.4942 10.3267ZM14.248 10.2263C14.26 10.1546 14.3293 10.1426 14.346 10.0757C14.2456 10.0327 14.1238 10.2048 14.248 10.2263ZM13.9039 10.4772C13.8967 10.4103 14.1047 10.3267 13.9541 10.2765C13.9613 10.3434 13.7534 10.427 13.9039 10.4772ZM14.9889 10.427C14.7093 10.5274 14.4512 10.6493 14.2504 10.8285C14.5611 10.7592 14.7451 10.5632 14.9889 10.427ZM14.6925 10.9289C14.444 11.1153 15.4023 10.7114 15.431 10.5776C15.0414 10.7401 14.7905 10.8548 14.6925 10.9289ZM13.6578 10.7783C13.6363 10.7568 13.6912 10.8118 13.6578 10.7783V10.7783ZM16.8624 10.8787C16.8409 10.8572 16.8935 10.9121 16.8624 10.8787V10.8787ZM16.6163 10.9791C16.5948 10.9576 16.6474 11.0125 16.6163 10.9791V10.9791ZM15.3354 11.1296C15.3091 11.0579 15.5266 11.0077 15.3856 10.9791C15.3903 11.0292 15.1729 11.0794 15.3354 11.1296ZM14.2026 11.1798C14.3293 11.1583 14.4297 11.1105 14.499 11.0292C14.3723 11.0508 14.2719 11.0986 14.2026 11.1798ZM14.1047 11.23C13.7271 11.3949 14.2624 11.1607 14.1047 11.23V11.23ZM15.1896 11.5311C15.3163 11.6363 15.6078 11.4522 15.4859 11.3304C15.4501 11.4618 15.2039 11.3782 15.1896 11.5311ZM16.2746 11.5813C16.4681 11.5932 16.786 11.469 16.6689 11.3304C16.5805 11.457 16.363 11.4546 16.2746 11.5813ZM13.9589 11.5813C13.9374 11.5598 13.9923 11.6147 13.9589 11.5813V11.5813ZM13.1201 11.782H13.218V11.6817H13.1201V11.782ZM13.6625 11.7318C13.5024 11.8274 13.9063 11.5885 13.6625 11.7318V11.7318ZM13.0221 11.8322C13.0006 11.8107 13.0532 11.8657 13.0221 11.8322V11.8322ZM13.4666 11.8322C13.4451 11.8107 13.5 11.8657 13.4666 11.8322V11.8322ZM15.7823 11.9326C15.7608 11.9111 15.8133 11.966 15.7823 11.9326V11.9326ZM14.1548 11.9828C14.1333 11.9613 14.1859 12.0162 14.1548 11.9828V11.9828ZM13.316 12.4344C13.5693 12.4631 13.9063 12.1739 14.1047 11.9828C13.8418 12.1333 13.469 12.1716 13.316 12.4344ZM15.6317 12.033C15.6102 12.0114 15.6628 12.0664 15.6317 12.033V12.033ZM13.1177 12.1835C12.9838 12.3365 13.2682 12.0473 13.1177 12.1835V12.1835ZM14.6949 12.4846C14.8144 12.4559 14.9482 12.4416 14.9411 12.2839C14.8216 12.3126 14.6878 12.3269 14.6949 12.4846ZM13.61 12.8359C13.5885 12.8144 13.6434 12.8694 13.61 12.8359V12.8359ZM12.5752 12.8861C12.5537 12.8646 12.6087 12.9196 12.5752 12.8861V12.8861ZM12.4772 12.9363C12.4557 12.9148 12.5083 12.9697 12.4772 12.9363V12.9363ZM14.2026 12.9363C13.9493 13.0582 14.3723 13.0653 14.2026 12.9363V12.9363ZM12.7735 13.8874C13.1201 13.572 13.6793 13.4716 13.9565 13.0845C13.4953 13.2493 12.9074 13.5552 12.7735 13.8874ZM15.4358 13.235C15.5074 13.3999 15.5576 13.039 15.4358 13.235V13.235ZM14.1548 13.6867C14.1692 13.5839 14.3388 13.6389 14.3532 13.5361C14.2791 13.5505 13.9971 13.6006 14.1548 13.6867ZM13.2682 14.0882C13.4714 14.0451 13.6076 13.9304 13.8107 13.8874V13.787C13.7605 13.787 13.751 13.7464 13.7127 13.7369C13.641 13.9328 13.3447 13.897 13.2682 14.0882ZM14.7953 14.1885C14.8957 14.2315 15.0175 14.0595 14.8933 14.038C14.8813 14.1097 14.812 14.1216 14.7953 14.1885ZM13.6625 14.2889C13.6052 14.2961 13.5239 14.2793 13.5144 14.3391C13.5717 14.3319 13.653 14.3486 13.6625 14.2889ZM14.401 14.3893C14.3795 14.3678 14.4344 14.4227 14.401 14.3893V14.3893ZM13.4642 14.8409C13.5407 14.6904 13.2085 14.7095 13.218 14.7907C13.3567 14.7501 13.3447 14.8624 13.4642 14.8409ZM14.0569 14.9413C14.1405 14.9437 14.1835 14.9031 14.205 14.8409C14.1214 14.8385 14.0784 14.8792 14.0569 14.9413ZM14.0067 14.8911C13.9493 14.8983 13.8657 14.8816 13.8585 14.9413C13.9159 14.9341 13.9995 14.9509 14.0067 14.8911Z" fill="#236003"/>
<path fill-rule="evenodd" clip-rule="evenodd" d="M23.2167 11.1774C23.5464 12.315 22.8701 13.0606 22.3778 14.0356C22.1532 14.4777 21.9835 15.0082 21.7374 15.3882C21.6322 15.5483 21.4482 15.6702 21.3431 15.8399C21.1782 16.1051 21.0874 16.466 20.8986 16.693C20.803 16.8077 20.3776 16.9583 20.3059 17.1447C19.2401 17.3908 18.5447 16.7289 17.5959 16.4923C16.8073 16.2963 16.2935 16.3704 15.8203 15.8901C16.8599 14.1121 17.7775 12.444 18.8768 10.678C19.0943 10.6182 19.3261 10.5298 19.5173 10.3267C20.7193 10.6397 22.1293 10.7449 23.2143 11.1774H23.2167ZM19.816 10.8261C19.9283 10.8405 20.0024 10.8142 20.012 10.7258C19.9212 10.7329 19.8471 10.7592 19.816 10.8261ZM20.3585 10.9265C20.4445 10.8978 20.6477 10.9863 20.6548 10.8763C20.5449 10.8548 20.3872 10.7616 20.3585 10.9265ZM21.2953 11.0269C21.2212 11.0364 21.1137 11.0102 21.0993 11.0771C21.1734 11.0675 21.2809 11.0962 21.2953 11.0269ZM19.718 11.328C19.9355 11.3328 20.0263 11.2085 20.1123 11.0771C19.9427 11.1201 19.8399 11.2324 19.718 11.328ZM20.4087 11.2276C20.3872 11.2061 20.4421 11.2611 20.4087 11.2276V11.2276ZM22.0839 11.1774C22.0266 11.1846 21.9453 11.1679 21.9357 11.2276C21.9931 11.2205 22.0743 11.2372 22.0839 11.1774ZM20.3585 11.4785C20.2653 11.7844 19.8758 11.7892 19.718 12.0306C20.0215 11.8561 20.564 11.6554 20.6548 11.4284C20.6477 11.5383 20.4469 11.4499 20.3585 11.4785ZM21.6394 11.4284C21.6012 11.4403 21.5414 11.4284 21.5414 11.4785C21.5797 11.4666 21.6394 11.4785 21.6394 11.4284ZM22.5762 11.88C22.5499 11.8083 22.7674 11.7581 22.6264 11.7295C22.6312 11.7797 22.4137 11.8298 22.5762 11.88ZM18.4849 12.0808C18.5853 11.9661 18.8075 11.9756 18.8792 11.8298C18.7693 11.7295 18.4037 11.9923 18.4849 12.0808ZM20.012 12.2313C20.3704 12.1787 20.6883 12.0832 20.8508 11.8298C20.5592 11.8896 20.0048 12.1955 20.012 12.2313ZM21.2451 11.9302C21.2236 11.9087 21.2786 11.9637 21.2451 11.9302V11.9302ZM20.9989 12.0808C21.0826 12.0832 21.1256 12.0425 21.1471 11.9804C21.0635 11.978 21.0205 12.0186 20.9989 12.0808ZM19.62 12.0808C19.4862 12.2337 19.7706 11.9446 19.62 12.0808V12.0808ZM19.4217 13.7345C20.4565 13.2494 21.4458 12.7188 22.2799 12.0306C21.2092 12.4799 20.3919 13.1848 19.4217 13.7345ZM19.816 12.4321C19.7897 12.3604 20.0072 12.3102 19.8662 12.2815C19.871 12.3317 19.6535 12.3819 19.816 12.4321ZM18.1886 12.4822C18.1957 12.4225 18.277 12.3675 18.1886 12.3317C18.1814 12.3914 18.1002 12.4464 18.1886 12.4822ZM20.1601 12.5324C20.1386 12.5109 20.1936 12.5659 20.1601 12.5324V12.5324ZM18.2866 13.7345C18.9151 13.4047 19.6941 12.9602 20.0598 12.5324C19.4958 12.9291 18.6211 13.2757 18.2866 13.7345ZM18.6307 14.3869C19.1708 14.4466 19.4265 13.7966 20.11 13.8349C20.7432 13.3928 21.465 13.0415 22.0815 12.5826C20.7982 13.2637 19.9427 13.7942 18.6307 14.3869ZM17.94 12.8335C17.9472 12.7738 18.0285 12.7188 17.94 12.683C17.9329 12.7427 17.8516 12.7977 17.94 12.8335ZM18.2364 13.1347C18.4204 13.0725 18.9963 12.9841 18.7287 12.7834C18.5972 12.9339 18.3487 12.9626 18.2364 13.1347ZM20.4541 12.8335C20.4326 12.812 20.4851 12.867 20.4541 12.8335V12.8335ZM21.8832 13.0343C21.8449 13.0462 21.7852 13.0343 21.7852 13.0845C21.8234 13.0725 21.8832 13.0845 21.8832 13.0343ZM20.8484 13.6365C21.1925 13.5839 21.5868 13.3187 21.637 13.1347C21.3837 13.3115 21.1017 13.4573 20.8484 13.6365ZM17.8922 13.3354C17.7321 13.431 18.1336 13.192 17.8922 13.3354V13.3354ZM21.637 13.5863C21.7947 13.6246 21.9333 13.3904 21.833 13.3354C21.7828 13.4358 21.6155 13.4143 21.637 13.5863ZM19.3691 13.4358C19.2353 13.5887 19.5197 13.2996 19.3691 13.4358V13.4358ZM18.9246 13.7871C19.0178 13.6819 19.1493 13.6126 19.2688 13.5361C19.08 13.5122 18.8123 13.67 18.9246 13.7871ZM18.0858 13.7871C17.9257 13.8827 18.3272 13.6437 18.0858 13.7871V13.7871ZM20.8962 13.9878C20.8747 13.9663 20.9273 14.0213 20.8962 13.9878V13.9878ZM17.4955 14.6904C17.9926 14.5781 18.277 14.2483 18.6283 13.9878C18.222 14.1288 17.584 14.5566 17.4955 14.6904ZM19.123 14.8911C19.6344 14.8768 19.7873 14.4992 20.3059 14.4897C20.3704 14.3248 20.9081 14.1527 20.7002 14.038C20.2318 14.3797 19.6392 14.5948 19.123 14.8911ZM21.1423 14.4395C21.2403 14.3391 21.3765 14.2746 21.4387 14.1384C21.2714 14.1384 21.0013 14.2913 21.1423 14.4395ZM19.221 15.491C19.6894 15.2329 20.196 15.013 20.5999 14.688C20.1195 14.9007 19.4456 15.1827 19.221 15.491ZM19.0728 14.8888C19.0346 14.9007 18.9748 14.8888 18.9748 14.9389C19.013 14.927 19.0728 14.9389 19.0728 14.8888ZM20.748 15.0895C20.7265 15.068 20.7791 15.1229 20.748 15.0895V15.0895ZM21.0444 15.3906C21.1447 15.4336 21.2666 15.2616 21.1423 15.24C21.1376 15.3189 21.0181 15.2783 21.0444 15.3906ZM17.7919 15.3404C17.2159 15.5579 17.8683 15.3906 17.7919 15.3404V15.3404ZM19.5651 15.7419C19.7348 15.6606 20.1554 15.5746 20.0574 15.3906C19.9212 15.5364 19.6774 15.5722 19.5651 15.7419ZM16.7069 15.5412C16.6854 15.5196 16.7404 15.5746 16.7069 15.5412V15.5412ZM19.0728 15.5412C19.0513 15.5196 19.1062 15.5746 19.0728 15.5412V15.5412ZM19.3189 15.7921C19.3763 15.5937 19.3763 15.9904 19.3189 15.7921V15.7921ZM19.9594 15.8925C19.9212 15.9044 19.8614 15.8925 19.8614 15.9426C19.8997 15.9307 19.9594 15.9426 19.9594 15.8925ZM17.3474 16.043C17.2613 16.0717 17.0582 15.9833 17.051 16.0932C17.1371 16.0645 17.3402 16.1529 17.3474 16.043ZM19.221 16.2939C19.3787 16.337 19.3763 16.2175 19.4169 16.1434C19.3237 16.1649 19.2042 16.1601 19.221 16.2939ZM20.4039 16.3943C20.5306 16.3895 20.6572 16.3847 20.65 16.2438C20.5234 16.2485 20.3967 16.2533 20.4039 16.3943ZM18.3344 16.3943C18.3128 16.3728 18.3654 16.4278 18.3344 16.3943V16.3943ZM18.8266 16.595H18.9246V16.4947H18.8266V16.595ZM19.7634 16.7456C19.8853 16.7528 19.9666 16.7193 20.0096 16.6452C19.9642 16.5927 19.7563 16.5998 19.7634 16.7456ZM19.2711 16.6954C19.252 16.6739 19.3046 16.7289 19.2711 16.6954V16.6954ZM20.3059 16.846C20.2844 16.8245 20.337 16.8794 20.3059 16.846V16.846Z" fill="#236003"/>
<path fill-rule="evenodd" clip-rule="evenodd" d="M15.1352 2.80855C15.0754 3.09532 16.1771 2.95432 16.4663 3.21003C16.3181 3.97236 15.8378 4.56742 15.4817 5.16486C14.9655 6.03235 14.3298 6.75167 13.8543 7.72192C13.0656 7.91071 12.5662 7.50445 11.9329 7.37062C11.5386 7.28698 11.0965 7.39213 10.9961 6.96914C11.4478 5.7623 12.4395 4.74904 13.1158 3.61151C13.3381 3.23631 13.4767 2.82527 13.9044 2.75836C14.3322 2.69145 14.7074 3.05947 15.1376 2.80855H15.1352ZM14.4947 3.56132C14.5927 3.37731 14.9679 3.4729 14.987 3.21003C14.6835 3.15267 14.4852 3.46812 14.4947 3.56132ZM13.8543 3.3104C13.6941 3.40599 14.098 3.16701 13.8543 3.3104V3.3104ZM15.5295 3.36058C15.4817 3.54221 15.8043 3.46812 15.7756 3.36058C15.6538 3.3558 15.6227 3.26738 15.5295 3.36058ZM14.1506 3.71188C14.2079 3.68798 14.2629 3.6593 14.2988 3.61151C14.2318 3.60434 14.0263 3.69037 14.1506 3.71188ZM15.7278 3.81225C15.9071 3.81225 15.9931 3.71427 16.072 3.61151C15.888 3.60673 15.79 3.69276 15.7278 3.81225ZM14.8412 3.81225C14.9559 3.79552 15.0539 3.75967 15.0874 3.66169C14.9727 3.67842 14.8747 3.71188 14.8412 3.81225ZM14.0048 3.76206C13.871 3.91501 14.1554 3.62585 14.0048 3.76206V3.76206ZM14.7433 3.86243C14.7217 3.84093 14.7743 3.89589 14.7433 3.86243V3.86243ZM14.7433 4.21373C14.8627 4.21373 15.0898 4.07034 14.9894 4.01299C14.9512 4.12292 14.7576 4.07751 14.7433 4.21373ZM12.9199 4.46466C12.9963 4.22807 13.1636 4.39774 12.9199 4.46466V4.46466ZM14.4469 4.36429C14.5186 4.52918 14.5712 4.16833 14.4469 4.36429V4.36429ZM13.5603 4.41447C13.5388 4.39296 13.5938 4.44793 13.5603 4.41447V4.41447ZM13.3142 4.56503C13.3978 4.56742 13.4408 4.52679 13.4623 4.46466C13.3787 4.46227 13.3357 4.50289 13.3142 4.56503ZM12.7239 4.91632C12.7287 4.83746 12.8506 4.87809 12.8219 4.76577C12.7215 4.72275 12.5996 4.89482 12.7239 4.91632ZM13.0202 5.26762C13.2712 5.19832 13.8184 4.9211 13.6607 4.76577C13.4958 4.98085 13.1851 5.05015 13.0202 5.26762ZM14.3991 4.91632C14.3776 4.89482 14.4326 4.94978 14.3991 4.91632V4.91632ZM13.8089 5.36799C13.9164 5.19115 14.3561 5.09078 14.3011 4.91632C14.1793 5.07644 13.7587 5.19832 13.8089 5.36799ZM12.3798 5.36799C12.2866 5.55917 12.5088 5.10273 12.3798 5.36799V5.36799ZM13.5627 5.51855C13.6631 5.56156 13.785 5.3895 13.6607 5.36799C13.6487 5.43968 13.5794 5.45163 13.5627 5.51855ZM13.4647 5.56873C13.4432 5.54722 13.4982 5.60219 13.4647 5.56873V5.56873ZM14.2032 5.61892C14.1817 5.59741 14.2342 5.65237 14.2032 5.61892V5.61892ZM14.1052 5.6691C14.067 5.68105 14.0072 5.6691 14.0072 5.71929C14.0454 5.70734 14.1052 5.71929 14.1052 5.6691ZM12.0356 5.86984C12.1217 5.88179 12.3272 5.77664 12.1838 5.71929C12.179 5.81488 12.0213 5.75513 12.0356 5.86984ZM13.9092 5.76947C13.7754 5.92242 14.0598 5.63326 13.9092 5.76947V5.76947ZM12.7263 5.97021C12.8267 6.01323 12.9461 5.84117 12.8243 5.81966C12.8123 5.89135 12.743 5.9033 12.7263 5.97021ZM13.3667 6.27132C13.4408 6.21158 13.5675 6.20919 13.6129 6.12077C13.4838 6.09448 13.2855 6.24743 13.3667 6.27132ZM11.4454 6.82336C11.6174 6.76601 11.6342 6.54854 11.7417 6.42188C11.5816 6.49357 11.4597 6.6035 11.4454 6.82336Z" fill="#236003"/>
</svg>
