<svg width="40" height="33" viewBox="0 0 40 33" fill="none" xmlns="http://www.w3.org/2000/svg">
<mask id="path-1-inside-1_393_4858" fill="white">
<path d="M39.0381 12.2221C38.4421 11.2473 37.4859 10.0242 36.5887 9.00593C35.9679 8.30122 35.3904 7.70517 35.0645 7.38231C34.8968 7.21468 34.7975 7.12154 34.7944 7.11844L29.3368 1.66087L27.142 3.85569L23.2894 0L22.8703 0.360113C22.8703 0.360113 22.8393 0.388053 22.8051 0.419097C22.6499 0.580527 22.1842 1.07413 22.0042 1.87197C21.8148 2.66049 22.0166 3.72841 22.9945 4.7063C23.0069 4.71872 23.0193 4.73114 23.0317 4.74356L24.6398 6.35165L23.2584 7.73311C22.9914 7.46613 22.5133 6.98805 21.6503 6.12502C20.6631 5.11609 19.5765 4.90499 18.7787 5.09746C17.9808 5.27752 17.4872 5.74318 17.3258 5.8984C17.2948 5.92944 17.273 5.95428 17.2668 5.96359L16.9036 6.37959L20.7593 10.2353L18.1516 12.8399L19.2723 13.9606L4.69702 28.5389L9.15808 33L21.1939 20.9642L20.3557 20.126L18.8159 21.6658L17.5214 20.3712L16.6801 21.2125L17.9746 22.5071L16.6242 23.8575L15.3297 22.5629L14.4884 23.4042L15.7829 24.6988L14.4325 26.0492L13.1379 24.7547L12.2966 25.5929L13.5912 26.8874L12.2408 28.2409L10.9462 26.9464L10.1049 27.7846L11.3995 29.0791L9.15497 31.3205L6.37341 28.5389L20.9456 13.9668L19.8249 12.8461L29.3337 3.33725L33.9624 7.96595C33.9624 7.96595 34.0617 8.06218 34.2232 8.22051C34.5336 8.53095 35.1017 9.11458 35.6978 9.78824C36.5577 10.763 37.4921 11.9644 38.023 12.8399C38.4762 13.5849 38.5632 14.1934 38.5228 14.656C38.5073 14.8547 38.4576 15.0254 38.4017 15.1682C36.5763 13.3459 30.8673 7.64929 30.8642 7.64929L30.026 8.49059C30.0415 8.50611 30.4668 8.93142 31.1094 9.57404L29.7776 10.9058C29.0046 10.1328 28.4893 9.61129 28.4862 9.61129L28.0671 9.18909L20.1943 17.0619L23.7892 20.6568L28.6042 15.8326C28.7935 16.0064 28.9953 16.1927 29.2095 16.3789C30.2309 17.2761 31.454 18.2323 32.4257 18.8283C33.3633 19.4026 34.2542 19.5672 34.9744 19.4958C35.6978 19.4213 36.2379 19.1481 36.5732 18.8159C36.657 18.7321 36.7284 18.6421 36.7874 18.5396L37.0047 18.1484L36.6881 17.8318C36.1541 17.2978 32.8634 14.0009 30.6158 11.7471L31.9507 10.4122C34.1425 12.5977 37.4921 15.9381 38.0354 16.4845L38.3521 16.798L38.7432 16.5838C38.855 16.5217 38.9419 16.4503 39.0226 16.3696C39.3517 16.0343 39.628 15.4942 39.7025 14.7708C39.7739 14.0506 39.6093 13.1596 39.035 12.2221H39.0381ZM21.5975 9.40019L18.6141 6.41684C18.7383 6.35165 18.8811 6.29266 19.0332 6.26162C19.4741 6.1778 20.0142 6.19643 20.809 6.96943L22.4171 8.57752L21.5944 9.40019H21.5975ZM25.4811 5.51656C25.2141 5.24958 24.7361 4.7715 23.873 3.90847C23.1 3.11373 23.0814 2.57357 23.1652 2.13274C23.1963 1.98062 23.2553 1.83782 23.3236 1.71364L26.3069 4.69699L25.4842 5.51966L25.4811 5.51656ZM35.378 18.195C35.2383 18.2509 35.0645 18.2975 34.8689 18.3161C34.4063 18.3596 33.7979 18.2726 33.0528 17.8163C32.1805 17.2854 30.976 16.351 30.0012 15.488C29.3244 14.8919 28.7439 14.3269 28.4334 14.0134C28.272 13.8519 28.1851 13.7619 28.1851 13.7619L27.3314 14.5877C27.3314 14.5877 27.4276 14.687 27.5952 14.8547C27.6418 14.9012 27.6946 14.954 27.7536 15.013L23.7954 18.9773L21.88 17.0619L28.0733 10.8686C29.4517 12.25 33.8289 16.6397 35.3811 18.1919L35.378 18.195ZM11.0083 17.8473L12.0235 18.8625L12.9672 17.928L11.3063 16.2672L10.8872 16.4565C8.39439 17.5865 5.35516 17.1302 3.30624 15.0782C1.90304 13.675 1.24801 11.8123 1.33183 9.97451C1.33183 9.93415 1.34114 9.87206 1.34735 9.78824C1.35356 9.6889 1.35977 9.60818 1.36598 9.55231C1.36598 9.52437 1.37219 9.49332 1.3784 9.44675V9.43744C1.41875 9.11458 1.4529 8.91279 1.47774 8.79793C1.49016 8.74205 1.49947 8.7079 1.50257 8.68928C1.50257 8.68928 1.51499 8.65823 1.53362 8.61477C1.55845 8.55268 1.58329 8.4968 1.60812 8.44713L4.83362 11.6726C5.22478 12.0607 5.84876 12.0607 6.24303 11.6726L9.49336 8.4223C9.88141 8.03114 9.88141 7.40715 9.49336 7.01289L6.27407 3.7936C6.31753 3.77187 6.3672 3.75014 6.41687 3.72841C6.45723 3.71289 6.47896 3.70357 6.48828 3.69737C6.54105 3.68495 6.76146 3.62907 7.25817 3.57319H7.25196C7.29543 3.56698 7.31716 3.56388 7.34199 3.56388C7.35441 3.56388 7.38856 3.56388 7.45065 3.55767C7.61518 3.54215 7.77661 3.53283 7.93804 3.52973C7.98771 3.52973 8.03738 3.52973 8.08395 3.52973C8.28263 3.52973 8.48131 3.53594 8.67379 3.55456C10.2074 3.68495 11.7006 4.33377 12.8741 5.50724C14.9168 7.54995 15.3793 10.5737 14.2617 13.0634L14.0755 13.4825L15.7581 15.1651L16.7018 14.2307L15.6494 13.1783C16.7515 10.2881 16.1368 6.89492 13.8085 4.5666C12.4053 3.16341 10.6141 2.3842 8.78244 2.22897C8.5434 2.20724 8.30747 2.20103 8.08084 2.20103C8.02186 2.20103 7.96288 2.20103 7.907 2.20103C7.70831 2.20414 7.51584 2.21656 7.32337 2.23518C7.32337 2.23518 7.31612 2.23518 7.30163 2.23518C7.2799 2.23518 7.24575 2.23518 7.19919 2.24139C7.15573 2.2476 7.12779 2.25071 7.10295 2.25381H7.10916C6.37652 2.34073 6.11885 2.42145 6.05055 2.44318C5.96984 2.47422 5.92948 2.49285 5.92017 2.49595C5.58489 2.63255 5.30239 2.79398 5.07266 3.0206C4.964 3.12926 4.86466 3.25343 4.79326 3.42418C4.72186 3.59182 4.68771 3.82775 4.76222 4.05437L4.81189 4.20649L8.31678 7.71138L5.53832 10.4898L2.23211 7.18053C2.04585 6.97564 1.68263 6.86388 1.41565 6.92907C1.14557 6.98805 0.971718 7.12465 0.828914 7.26435C0.602291 7.49407 0.440862 7.77347 0.304267 8.11185C0.301163 8.12117 0.279432 8.16152 0.251492 8.23913C0.226656 8.31054 0.145941 8.5651 0.0621221 9.2698V9.28222C0.0559132 9.31326 0.0528088 9.34741 0.0465999 9.39708C0.0341823 9.51195 0.0310778 9.60818 0.024869 9.68269C0.0217646 9.73236 0.0124513 9.80687 0.00934688 9.90621C-0.0962035 12.101 0.69232 14.3362 2.36871 16.0126C4.70634 18.3471 8.11189 18.9587 11.0083 17.8411V17.8473ZM23.5409 21.0635L22.5971 21.9979L29.104 28.5048C29.6162 29.0201 29.6162 29.8676 29.104 30.383L28.2037 31.2833C27.6884 31.7955 26.8409 31.7955 26.3255 31.2833L19.8 24.7578L18.8563 25.6922L25.3849 32.2208C26.4249 33.2546 28.1044 33.2546 29.1443 32.2208L30.0446 31.3205C31.0784 30.2805 31.0784 28.601 30.0446 27.5611L23.5409 21.0573V21.0635Z"/>
</mask>
<path d="M39.0381 12.2221C38.4421 11.2473 37.4859 10.0242 36.5887 9.00593C35.9679 8.30122 35.3904 7.70517 35.0645 7.38231C34.8968 7.21468 34.7975 7.12154 34.7944 7.11844L29.3368 1.66087L27.142 3.85569L23.2894 0L22.8703 0.360113C22.8703 0.360113 22.8393 0.388053 22.8051 0.419097C22.6499 0.580527 22.1842 1.07413 22.0042 1.87197C21.8148 2.66049 22.0166 3.72841 22.9945 4.7063C23.0069 4.71872 23.0193 4.73114 23.0317 4.74356L24.6398 6.35165L23.2584 7.73311C22.9914 7.46613 22.5133 6.98805 21.6503 6.12502C20.6631 5.11609 19.5765 4.90499 18.7787 5.09746C17.9808 5.27752 17.4872 5.74318 17.3258 5.8984C17.2948 5.92944 17.273 5.95428 17.2668 5.96359L16.9036 6.37959L20.7593 10.2353L18.1516 12.8399L19.2723 13.9606L4.69702 28.5389L9.15808 33L21.1939 20.9642L20.3557 20.126L18.8159 21.6658L17.5214 20.3712L16.6801 21.2125L17.9746 22.5071L16.6242 23.8575L15.3297 22.5629L14.4884 23.4042L15.7829 24.6988L14.4325 26.0492L13.1379 24.7547L12.2966 25.5929L13.5912 26.8874L12.2408 28.2409L10.9462 26.9464L10.1049 27.7846L11.3995 29.0791L9.15497 31.3205L6.37341 28.5389L20.9456 13.9668L19.8249 12.8461L29.3337 3.33725L33.9624 7.96595C33.9624 7.96595 34.0617 8.06218 34.2232 8.22051C34.5336 8.53095 35.1017 9.11458 35.6978 9.78824C36.5577 10.763 37.4921 11.9644 38.023 12.8399C38.4762 13.5849 38.5632 14.1934 38.5228 14.656C38.5073 14.8547 38.4576 15.0254 38.4017 15.1682C36.5763 13.3459 30.8673 7.64929 30.8642 7.64929L30.026 8.49059C30.0415 8.50611 30.4668 8.93142 31.1094 9.57404L29.7776 10.9058C29.0046 10.1328 28.4893 9.61129 28.4862 9.61129L28.0671 9.18909L20.1943 17.0619L23.7892 20.6568L28.6042 15.8326C28.7935 16.0064 28.9953 16.1927 29.2095 16.3789C30.2309 17.2761 31.454 18.2323 32.4257 18.8283C33.3633 19.4026 34.2542 19.5672 34.9744 19.4958C35.6978 19.4213 36.2379 19.1481 36.5732 18.8159C36.657 18.7321 36.7284 18.6421 36.7874 18.5396L37.0047 18.1484L36.6881 17.8318C36.1541 17.2978 32.8634 14.0009 30.6158 11.7471L31.9507 10.4122C34.1425 12.5977 37.4921 15.9381 38.0354 16.4845L38.3521 16.798L38.7432 16.5838C38.855 16.5217 38.9419 16.4503 39.0226 16.3696C39.3517 16.0343 39.628 15.4942 39.7025 14.7708C39.7739 14.0506 39.6093 13.1596 39.035 12.2221H39.0381ZM21.5975 9.40019L18.6141 6.41684C18.7383 6.35165 18.8811 6.29266 19.0332 6.26162C19.4741 6.1778 20.0142 6.19643 20.809 6.96943L22.4171 8.57752L21.5944 9.40019H21.5975ZM25.4811 5.51656C25.2141 5.24958 24.7361 4.7715 23.873 3.90847C23.1 3.11373 23.0814 2.57357 23.1652 2.13274C23.1963 1.98062 23.2553 1.83782 23.3236 1.71364L26.3069 4.69699L25.4842 5.51966L25.4811 5.51656ZM35.378 18.195C35.2383 18.2509 35.0645 18.2975 34.8689 18.3161C34.4063 18.3596 33.7979 18.2726 33.0528 17.8163C32.1805 17.2854 30.976 16.351 30.0012 15.488C29.3244 14.8919 28.7439 14.3269 28.4334 14.0134C28.272 13.8519 28.1851 13.7619 28.1851 13.7619L27.3314 14.5877C27.3314 14.5877 27.4276 14.687 27.5952 14.8547C27.6418 14.9012 27.6946 14.954 27.7536 15.013L23.7954 18.9773L21.88 17.0619L28.0733 10.8686C29.4517 12.25 33.8289 16.6397 35.3811 18.1919L35.378 18.195ZM11.0083 17.8473L12.0235 18.8625L12.9672 17.928L11.3063 16.2672L10.8872 16.4565C8.39439 17.5865 5.35516 17.1302 3.30624 15.0782C1.90304 13.675 1.24801 11.8123 1.33183 9.97451C1.33183 9.93415 1.34114 9.87206 1.34735 9.78824C1.35356 9.6889 1.35977 9.60818 1.36598 9.55231C1.36598 9.52437 1.37219 9.49332 1.3784 9.44675V9.43744C1.41875 9.11458 1.4529 8.91279 1.47774 8.79793C1.49016 8.74205 1.49947 8.7079 1.50257 8.68928C1.50257 8.68928 1.51499 8.65823 1.53362 8.61477C1.55845 8.55268 1.58329 8.4968 1.60812 8.44713L4.83362 11.6726C5.22478 12.0607 5.84876 12.0607 6.24303 11.6726L9.49336 8.4223C9.88141 8.03114 9.88141 7.40715 9.49336 7.01289L6.27407 3.7936C6.31753 3.77187 6.3672 3.75014 6.41687 3.72841C6.45723 3.71289 6.47896 3.70357 6.48828 3.69737C6.54105 3.68495 6.76146 3.62907 7.25817 3.57319H7.25196C7.29543 3.56698 7.31716 3.56388 7.34199 3.56388C7.35441 3.56388 7.38856 3.56388 7.45065 3.55767C7.61518 3.54215 7.77661 3.53283 7.93804 3.52973C7.98771 3.52973 8.03738 3.52973 8.08395 3.52973C8.28263 3.52973 8.48131 3.53594 8.67379 3.55456C10.2074 3.68495 11.7006 4.33377 12.8741 5.50724C14.9168 7.54995 15.3793 10.5737 14.2617 13.0634L14.0755 13.4825L15.7581 15.1651L16.7018 14.2307L15.6494 13.1783C16.7515 10.2881 16.1368 6.89492 13.8085 4.5666C12.4053 3.16341 10.6141 2.3842 8.78244 2.22897C8.5434 2.20724 8.30747 2.20103 8.08084 2.20103C8.02186 2.20103 7.96288 2.20103 7.907 2.20103C7.70831 2.20414 7.51584 2.21656 7.32337 2.23518C7.32337 2.23518 7.31612 2.23518 7.30163 2.23518C7.2799 2.23518 7.24575 2.23518 7.19919 2.24139C7.15573 2.2476 7.12779 2.25071 7.10295 2.25381H7.10916C6.37652 2.34073 6.11885 2.42145 6.05055 2.44318C5.96984 2.47422 5.92948 2.49285 5.92017 2.49595C5.58489 2.63255 5.30239 2.79398 5.07266 3.0206C4.964 3.12926 4.86466 3.25343 4.79326 3.42418C4.72186 3.59182 4.68771 3.82775 4.76222 4.05437L4.81189 4.20649L8.31678 7.71138L5.53832 10.4898L2.23211 7.18053C2.04585 6.97564 1.68263 6.86388 1.41565 6.92907C1.14557 6.98805 0.971718 7.12465 0.828914 7.26435C0.602291 7.49407 0.440862 7.77347 0.304267 8.11185C0.301163 8.12117 0.279432 8.16152 0.251492 8.23913C0.226656 8.31054 0.145941 8.5651 0.0621221 9.2698V9.28222C0.0559132 9.31326 0.0528088 9.34741 0.0465999 9.39708C0.0341823 9.51195 0.0310778 9.60818 0.024869 9.68269C0.0217646 9.73236 0.0124513 9.80687 0.00934688 9.90621C-0.0962035 12.101 0.69232 14.3362 2.36871 16.0126C4.70634 18.3471 8.11189 18.9587 11.0083 17.8411V17.8473ZM23.5409 21.0635L22.5971 21.9979L29.104 28.5048C29.6162 29.0201 29.6162 29.8676 29.104 30.383L28.2037 31.2833C27.6884 31.7955 26.8409 31.7955 26.3255 31.2833L19.8 24.7578L18.8563 25.6922L25.3849 32.2208C26.4249 33.2546 28.1044 33.2546 29.1443 32.2208L30.0446 31.3205C31.0784 30.2805 31.0784 28.601 30.0446 27.5611L23.5409 21.0573V21.0635Z" fill="#236003" stroke="#236003" stroke-width="6" mask="url(#path-1-inside-1_393_4858)"/>
</svg>
