<svg width="32" height="33" viewBox="0 0 32 33" fill="none" xmlns="http://www.w3.org/2000/svg">
<path d="M13.937 12.5865C14.6703 12.5865 15.2647 11.9921 15.2647 11.2589C15.2647 10.5256 14.6703 9.93118 13.937 9.93118C13.2038 9.93118 12.6094 10.5256 12.6094 11.2589C12.6094 11.9921 13.2038 12.5865 13.937 12.5865Z" fill="#236003"/>
<path d="M16.2246 9.91967C19.871 3.34084 20.4944 0.716852 20.144 0.514613C19.7939 0.312695 17.8345 2.1626 13.9629 8.6048C14.9277 8.61504 15.7674 9.14112 16.2246 9.91967Z" fill="#236003"/>
<path d="M11.2802 11.2589C11.2802 10.7833 11.4073 10.3376 11.6271 9.95102C4.12379 10.0838 1.54492 10.855 1.54492 11.2589C1.54492 11.6624 4.12347 12.4339 11.6271 12.5664C11.4073 12.1801 11.2802 11.7347 11.2802 11.2589Z" fill="#236003"/>
<path d="M16.2279 12.5942C15.7729 13.3737 14.9332 13.9008 13.9688 13.9123C17.8375 20.3468 19.795 22.1951 20.1454 21.9935C20.4951 21.7913 19.8724 19.1689 16.2279 12.5942Z" fill="#236003"/>
<path d="M12.6094 14.2246V14.799V32.5H15.2644V18.4425C14.5034 17.3167 13.6247 15.9305 12.6094 14.2246Z" fill="#236003"/>
<path d="M24.5687 20.5596C25.0575 20.5596 25.4538 20.1633 25.4538 19.6745C25.4538 19.1856 25.0575 18.7894 24.5687 18.7894C24.0799 18.7894 23.6836 19.1856 23.6836 19.6745C23.6836 20.1633 24.0799 20.5596 24.5687 20.5596Z" fill="#236003"/>
<path d="M23.0944 18.6978C21.0089 14.9081 20.6435 13.3782 20.8489 13.2588C21.0547 13.1408 22.1952 14.2208 24.4339 17.9183C23.8752 17.9612 23.3875 18.2562 23.0944 18.6978Z" fill="#236003"/>
<path d="M26.3383 19.6745C26.3383 19.3964 26.2682 19.1366 26.1539 18.9026C30.4576 18.9932 31.96 19.4402 31.96 19.6777C31.96 19.9142 30.4579 20.3615 26.1523 20.4521C26.2672 20.2166 26.3383 19.9548 26.3383 19.6745Z" fill="#236003"/>
<path d="M23.0938 20.6515C23.3873 21.0934 23.8743 21.3884 24.434 21.4316C22.1959 25.1292 21.0545 26.2095 20.8491 26.0911C20.6433 25.9708 21.0087 24.4412 23.0938 20.6515Z" fill="#236003"/>
<path d="M25.4531 21.4562L25.4457 32.5H23.6758L23.6831 24.2537C24.1798 23.5314 24.766 22.6127 25.4531 21.4562Z" fill="#236003"/>
<path d="M3.76988 20.5596C4.25871 20.5596 4.65499 20.1633 4.65499 19.6745C4.65499 19.1856 4.25871 18.7894 3.76988 18.7894C3.28104 18.7894 2.88477 19.1856 2.88477 19.6745C2.88477 20.1633 3.28104 20.5596 3.76988 20.5596Z" fill="#236003"/>
<path d="M2.29564 18.6978C0.21021 14.9081 -0.155547 13.3782 0.0502112 13.2588C0.25597 13.1408 1.39676 14.2208 3.63515 17.9183C3.07611 17.9612 2.58843 18.2562 2.29564 18.6978Z" fill="#236003"/>
<path d="M5.54071 19.6745C5.54071 19.3964 5.47063 19.1366 5.35608 18.9026C9.65973 18.9932 11.1615 19.4402 11.1615 19.6777C11.1615 19.9142 9.65909 20.3615 5.35352 20.4521C5.46999 20.2166 5.54071 19.9548 5.54071 19.6745Z" fill="#236003"/>
<path d="M2.295 20.6515C2.58844 21.0934 3.07579 21.3884 3.63515 21.4316C1.39676 25.1282 0.255972 26.2085 0.0502136 26.0898C-0.155545 25.9708 0.210213 24.4412 2.295 20.6515Z" fill="#236003"/>
<path d="M4.65422 21.4562L4.64686 32.5H2.87695L2.88431 24.2537C3.38127 23.5314 3.96719 22.6127 4.65422 21.4562Z" fill="#236003"/>
</svg>
