<svg width="32" height="15" viewBox="0 0 32 15" fill="none" xmlns="http://www.w3.org/2000/svg">
<path d="M24.8886 0.388794C22.9283 0.388794 21.1504 1.18655 19.8627 2.47391L10.8806 11.2691C9.91488 12.2352 8.58144 12.8333 7.11104 12.8333C4.17024 12.8333 1.7776 10.4406 1.7776 7.49983C1.7776 4.55903 4.17024 2.16671 7.11104 2.16671C8.58144 2.16671 9.91488 2.76479 10.8806 3.73055L11.7939 4.62463C11.6419 4.95967 11.5555 5.33055 11.5555 5.72223C11.5555 6.45887 11.8541 7.12543 12.3363 7.60831L16.1082 3.83647C15.6256 3.35423 14.9587 3.05567 14.2221 3.05567C13.7907 3.05567 13.3843 3.16031 13.0237 3.34207L12.137 2.47391C10.8493 1.18655 9.07168 0.388794 7.11104 0.388794C3.19008 0.388794 0 3.57887 0 7.49983C0 11.4208 3.19008 14.6112 7.11104 14.6112C9.07136 14.6112 10.8493 13.8134 12.1373 12.5258L21.1194 3.73023C22.0851 2.76447 23.4186 2.16639 24.8886 2.16639C27.8298 2.16639 30.2221 4.55871 30.2221 7.49983C30.2221 10.441 27.8298 12.8333 24.8886 12.8333C23.8426 12.8333 22.8694 12.5264 22.0454 12.0042C22.1581 11.7088 22.2221 11.3901 22.2221 11.0554C22.2221 10.3187 21.9235 9.65215 21.4413 9.16927L20.7587 9.85215L18.9808 8.07423L18.3523 8.70271L20.1302 10.4806L18.9808 11.6301L17.2029 9.85215L16.5744 10.4806L18.3523 12.2586L17.6694 12.9411C18.1523 13.4237 18.8189 13.7219 19.5555 13.7219C20.0381 13.7219 20.4896 13.5917 20.8797 13.368C22.0224 14.1507 23.4026 14.6112 24.8886 14.6112C28.8099 14.6112 32 11.4208 32 7.49983C32 3.57887 28.8099 0.388794 24.8886 0.388794Z" fill="#236003"/>
</svg>
